0
SECTION
2
HEADER
9
$ACADVER
1
AC1006
0
ENDSEC
0
SECTION
2
TABLES
0
TABLE
2
LAYER
70
10
0
LAYER
70
0
62
1
6
CONTINUOUS
2
L0D0_0
0
LAYER
70
0
62
2
6
CONTINUOUS
2
BottomMetal
0
LAYER
70
0
62
3
6
CONTINUOUS
2
TopMetal
0
LAYER
70
0
62
4
6
CONTINUOUS
2
ADSK_ASSOC_ENTITY_BACKUPS
0
LAYER
70
0
62
5
6
CONTINUOUS
2
ADSK_CONSTRAINTS
0
LAYER
70
0
62
6
6
CONTINUOUS
2
Defpoints
0
LAYER
70
0
62
7
6
CONTINUOUS
2
Layer1
0
LAYER
70
0
62
8
6
CONTINUOUS
2
BondPadCutOut
0
LAYER
70
0
62
9
6
CONTINUOUS
2
NbDoor
0
LAYER
70
0
62
10
6
CONTINUOUS
2
NbDoorEtch
0
ENDTAB
0
ENDSEC
0
SECTION
2
BLOCKS
0
ENDSEC
0
SECTION
2
ENTITIES
0
POLYLINE
8
BottomMetal
70
1
40
0
41
0
66
1
0
VERTEX
8
BottomMetal
10
-2296
20
3435.5
0
VERTEX
8
BottomMetal
10
-2296
20
3495.5
0
VERTEX
8
BottomMetal
10
2300
20
3495.5
0
VERTEX
8
BottomMetal
10
2300
20
4768
0
VERTEX
8
BottomMetal
10
1385.854
20
4768
0
VERTEX
8
BottomMetal
10
1385.854
20
8000
0
VERTEX
8
BottomMetal
10
1153.966
20
8000
0
VERTEX
8
BottomMetal
10
1153.966
20
9000
0
VERTEX
8
BottomMetal
10
2500
20
9000
0
VERTEX
8
BottomMetal
10
2500
20
3435.5
0
SEQEND
0
POLYLINE
8
BottomMetal
70
1
40
0
41
0
66
1
0
VERTEX
8
BottomMetal
10
-2296
20
3497
0
VERTEX
8
BottomMetal
10
-2296
20
4764
0
VERTEX
8
BottomMetal
10
-1100
20
4764
0
VERTEX
8
BottomMetal
10
-1100
20
8000
0
VERTEX
8
BottomMetal
10
-500
20
8000
0
VERTEX
8
BottomMetal
10
-500
20
9000
0
VERTEX
8
BottomMetal
10
500
20
9000
0
VERTEX
8
BottomMetal
10
500
20
8000
0
VERTEX
8
BottomMetal
10
950
20
8000
0
VERTEX
8
BottomMetal
10
950
20
4764
0
VERTEX
8
BottomMetal
10
2296
20
4764
0
VERTEX
8
BottomMetal
10
2296
20
3497
0
SEQEND
0
POLYLINE
8
BottomMetal
70
1
40
0
41
0
66
1
0
VERTEX
8
BottomMetal
10
-6000
20
-5200.045
0
VERTEX
8
BottomMetal
10
-6000
20
-4299.297
0
VERTEX
8
BottomMetal
10
-6500
20
-4299.297
0
VERTEX
8
BottomMetal
10
-6500
20
-2014
0
VERTEX
8
BottomMetal
10
-4200
20
-2014
0
VERTEX
8
BottomMetal
10
-4200
20
-1974
0
VERTEX
8
BottomMetal
10
-3
20
-1974
0
VERTEX
8
BottomMetal
10
-3
20
1974
0
VERTEX
8
BottomMetal
10
-4200
20
1974
0
VERTEX
8
BottomMetal
10
-4200
20
2014
0
VERTEX
8
BottomMetal
10
-6500
20
2014
0
VERTEX
8
BottomMetal
10
-6500
20
5200.185
0
VERTEX
8
BottomMetal
10
-4070
20
5200.185
0
VERTEX
8
BottomMetal
10
-4070
20
2109.921
0
VERTEX
8
BottomMetal
10
5120
20
2109.921
0
VERTEX
8
BottomMetal
10
5120
20
5200.185
0
VERTEX
8
BottomMetal
10
6500
20
5200.185
0
VERTEX
8
BottomMetal
10
6500
20
2014
0
VERTEX
8
BottomMetal
10
4200
20
2014
0
VERTEX
8
BottomMetal
10
4200
20
1974
0
VERTEX
8
BottomMetal
10
3
20
1974
0
VERTEX
8
BottomMetal
10
3
20
-1974
0
VERTEX
8
BottomMetal
10
4200
20
-1974
0
VERTEX
8
BottomMetal
10
4200
20
-2014
0
VERTEX
8
BottomMetal
10
6500
20
-2014
0
VERTEX
8
BottomMetal
10
6500
20
-5197.841
0
VERTEX
8
BottomMetal
10
5113.881
20
-5197.841
0
VERTEX
8
BottomMetal
10
5113.881
20
-2109.921
0
VERTEX
8
BottomMetal
10
-4069.939
20
-2109.921
0
VERTEX
8
BottomMetal
10
-4069.939
20
-5200.045
0
SEQEND
0
POLYLINE
8
BottomMetal
70
1
40
0
41
0
66
1
0
VERTEX
8
BottomMetal
10
5.5
20
-1971.5
0
VERTEX
8
BottomMetal
10
5.5
20
1971.5
0
VERTEX
8
BottomMetal
10
9
20
1971.5
0
VERTEX
8
BottomMetal
10
9
20
-1968
0
VERTEX
8
BottomMetal
10
17.5
20
-1968
0
VERTEX
8
BottomMetal
10
17.5
20
1965.5
0
VERTEX
8
BottomMetal
10
21
20
1965.5
0
VERTEX
8
BottomMetal
10
21
20
-1968
0
VERTEX
8
BottomMetal
10
29.5
20
-1968
0
VERTEX
8
BottomMetal
10
29.5
20
1965.5
0
VERTEX
8
BottomMetal
10
33
20
1965.5
0
VERTEX
8
BottomMetal
10
33
20
-1968
0
VERTEX
8
BottomMetal
10
41.5
20
-1968
0
VERTEX
8
BottomMetal
10
41.5
20
1965.5
0
VERTEX
8
BottomMetal
10
45
20
1965.5
0
VERTEX
8
BottomMetal
10
45
20
-1968
0
VERTEX
8
BottomMetal
10
53.5
20
-1968
0
VERTEX
8
BottomMetal
10
53.5
20
1965.5
0
VERTEX
8
BottomMetal
10
57
20
1965.5
0
VERTEX
8
BottomMetal
10
57
20
-1968
0
VERTEX
8
BottomMetal
10
65.5
20
-1968
0
VERTEX
8
BottomMetal
10
65.5
20
1965.5
0
VERTEX
8
BottomMetal
10
69
20
1965.5
0
VERTEX
8
BottomMetal
10
69
20
-1968
0
VERTEX
8
BottomMetal
10
77.5
20
-1968
0
VERTEX
8
BottomMetal
10
77.5
20
1965.5
0
VERTEX
8
BottomMetal
10
81
20
1965.5
0
VERTEX
8
BottomMetal
10
81
20
-1968
0
VERTEX
8
BottomMetal
10
89.5
20
-1968
0
VERTEX
8
BottomMetal
10
89.5
20
1965.5
0
VERTEX
8
BottomMetal
10
93
20
1965.5
0
VERTEX
8
BottomMetal
10
93
20
-1968
0
VERTEX
8
BottomMetal
10
101.5
20
-1968
0
VERTEX
8
BottomMetal
10
101.5
20
1965.5
0
VERTEX
8
BottomMetal
10
105
20
1965.5
0
VERTEX
8
BottomMetal
10
105
20
-1968
0
VERTEX
8
BottomMetal
10
113.5
20
-1968
0
VERTEX
8
BottomMetal
10
113.5
20
1965.5
0
VERTEX
8
BottomMetal
10
117
20
1965.5
0
VERTEX
8
BottomMetal
10
117
20
-1968
0
VERTEX
8
BottomMetal
10
125.5
20
-1968
0
VERTEX
8
BottomMetal
10
125.5
20
1965.5
0
VERTEX
8
BottomMetal
10
129
20
1965.5
0
VERTEX
8
BottomMetal
10
129
20
-1968
0
VERTEX
8
BottomMetal
10
137.5
20
-1968
0
VERTEX
8
BottomMetal
10
137.5
20
1965.5
0
VERTEX
8
BottomMetal
10
141
20
1965.5
0
VERTEX
8
BottomMetal
10
141
20
-1968
0
VERTEX
8
BottomMetal
10
149.5
20
-1968
0
VERTEX
8
BottomMetal
10
149.5
20
1965.5
0
VERTEX
8
BottomMetal
10
153
20
1965.5
0
VERTEX
8
BottomMetal
10
153
20
-1968
0
VERTEX
8
BottomMetal
10
161.5
20
-1968
0
VERTEX
8
BottomMetal
10
161.5
20
1965.5
0
VERTEX
8
BottomMetal
10
165
20
1965.5
0
VERTEX
8
BottomMetal
10
165
20
-1968
0
VERTEX
8
BottomMetal
10
173.5
20
-1968
0
VERTEX
8
BottomMetal
10
173.5
20
1965.5
0
VERTEX
8
BottomMetal
10
177
20
1965.5
0
VERTEX
8
BottomMetal
10
177
20
-1968
0
VERTEX
8
BottomMetal
10
185.5
20
-1968
0
VERTEX
8
BottomMetal
10
185.5
20
1965.5
0
VERTEX
8
BottomMetal
10
189
20
1965.5
0
VERTEX
8
BottomMetal
10
189
20
-1968
0
VERTEX
8
BottomMetal
10
197.5
20
-1968
0
VERTEX
8
BottomMetal
10
197.5
20
1965.5
0
VERTEX
8
BottomMetal
10
201
20
1965.5
0
VERTEX
8
BottomMetal
10
201
20
-1968
0
VERTEX
8
BottomMetal
10
209.5
20
-1968
0
VERTEX
8
BottomMetal
10
209.5
20
1965.5
0
VERTEX
8
BottomMetal
10
213
20
1965.5
0
VERTEX
8
BottomMetal
10
213
20
-1968
0
VERTEX
8
BottomMetal
10
221.5
20
-1968
0
VERTEX
8
BottomMetal
10
221.5
20
1965.5
0
VERTEX
8
BottomMetal
10
225
20
1965.5
0
VERTEX
8
BottomMetal
10
225
20
-1968
0
VERTEX
8
BottomMetal
10
233.5
20
-1968
0
VERTEX
8
BottomMetal
10
233.5
20
1965.5
0
VERTEX
8
BottomMetal
10
237
20
1965.5
0
VERTEX
8
BottomMetal
10
237
20
-1968
0
VERTEX
8
BottomMetal
10
245.5
20
-1968
0
VERTEX
8
BottomMetal
10
245.5
20
1965.5
0
VERTEX
8
BottomMetal
10
249
20
1965.5
0
VERTEX
8
BottomMetal
10
249
20
-1968
0
VERTEX
8
BottomMetal
10
257.5
20
-1968
0
VERTEX
8
BottomMetal
10
257.5
20
1965.5
0
VERTEX
8
BottomMetal
10
261
20
1965.5
0
VERTEX
8
BottomMetal
10
261
20
-1968
0
VERTEX
8
BottomMetal
10
269.5
20
-1968
0
VERTEX
8
BottomMetal
10
269.5
20
1965.5
0
VERTEX
8
BottomMetal
10
273
20
1965.5
0
VERTEX
8
BottomMetal
10
273
20
-1968
0
VERTEX
8
BottomMetal
10
281.5
20
-1968
0
VERTEX
8
BottomMetal
10
281.5
20
1965.5
0
VERTEX
8
BottomMetal
10
285
20
1965.5
0
VERTEX
8
BottomMetal
10
285
20
-1968
0
VERTEX
8
BottomMetal
10
293.5
20
-1968
0
VERTEX
8
BottomMetal
10
293.5
20
1965.5
0
VERTEX
8
BottomMetal
10
297
20
1965.5
0
VERTEX
8
BottomMetal
10
297
20
-179.6
0
VERTEX
8
BottomMetal
10
6500.05
20
-179.6
0
VERTEX
8
BottomMetal
10
6500.05
20
-1919.6
0
VERTEX
8
BottomMetal
10
4200.05
20
-1919.6
0
VERTEX
8
BottomMetal
10
4200.05
20
-1971.5
0
SEQEND
0
POLYLINE
8
BottomMetal
70
1
40
0
41
0
66
1
0
VERTEX
8
BottomMetal
10
11.5
20
-1965.5
0
VERTEX
8
BottomMetal
10
11.5
20
1971.5
0
VERTEX
8
BottomMetal
10
4206.05
20
1971.5
0
VERTEX
8
BottomMetal
10
4206.05
20
1919.6
0
VERTEX
8
BottomMetal
10
6506.05
20
1919.6
0
VERTEX
8
BottomMetal
10
6506.05
20
179.6
0
VERTEX
8
BottomMetal
10
299.5
20
179.6
0
VERTEX
8
BottomMetal
10
299.5
20
1968
0
VERTEX
8
BottomMetal
10
291
20
1968
0
VERTEX
8
BottomMetal
10
291
20
-1965.5
0
VERTEX
8
BottomMetal
10
287.5
20
-1965.5
0
VERTEX
8
BottomMetal
10
287.5
20
1968
0
VERTEX
8
BottomMetal
10
279
20
1968
0
VERTEX
8
BottomMetal
10
279
20
-1965.5
0
VERTEX
8
BottomMetal
10
275.5
20
-1965.5
0
VERTEX
8
BottomMetal
10
275.5
20
1968
0
VERTEX
8
BottomMetal
10
267
20
1968
0
VERTEX
8
BottomMetal
10
267
20
-1965.5
0
VERTEX
8
BottomMetal
10
263.5
20
-1965.5
0
VERTEX
8
BottomMetal
10
263.5
20
1968
0
VERTEX
8
BottomMetal
10
255
20
1968
0
VERTEX
8
BottomMetal
10
255
20
-1965.5
0
VERTEX
8
BottomMetal
10
251.5
20
-1965.5
0
VERTEX
8
BottomMetal
10
251.5
20
1968
0
VERTEX
8
BottomMetal
10
243
20
1968
0
VERTEX
8
BottomMetal
10
243
20
-1965.5
0
VERTEX
8
BottomMetal
10
239.5
20
-1965.5
0
VERTEX
8
BottomMetal
10
239.5
20
1968
0
VERTEX
8
BottomMetal
10
231
20
1968
0
VERTEX
8
BottomMetal
10
231
20
-1965.5
0
VERTEX
8
BottomMetal
10
227.5
20
-1965.5
0
VERTEX
8
BottomMetal
10
227.5
20
1968
0
VERTEX
8
BottomMetal
10
219
20
1968
0
VERTEX
8
BottomMetal
10
219
20
-1965.5
0
VERTEX
8
BottomMetal
10
215.5
20
-1965.5
0
VERTEX
8
BottomMetal
10
215.5
20
1968
0
VERTEX
8
BottomMetal
10
207
20
1968
0
VERTEX
8
BottomMetal
10
207
20
-1965.5
0
VERTEX
8
BottomMetal
10
203.5
20
-1965.5
0
VERTEX
8
BottomMetal
10
203.5
20
1968
0
VERTEX
8
BottomMetal
10
195
20
1968
0
VERTEX
8
BottomMetal
10
195
20
-1965.5
0
VERTEX
8
BottomMetal
10
191.5
20
-1965.5
0
VERTEX
8
BottomMetal
10
191.5
20
1968
0
VERTEX
8
BottomMetal
10
183
20
1968
0
VERTEX
8
BottomMetal
10
183
20
-1965.5
0
VERTEX
8
BottomMetal
10
179.5
20
-1965.5
0
VERTEX
8
BottomMetal
10
179.5
20
1968
0
VERTEX
8
BottomMetal
10
171
20
1968
0
VERTEX
8
BottomMetal
10
171
20
-1965.5
0
VERTEX
8
BottomMetal
10
167.5
20
-1965.5
0
VERTEX
8
BottomMetal
10
167.5
20
1968
0
VERTEX
8
BottomMetal
10
159
20
1968
0
VERTEX
8
BottomMetal
10
159
20
-1965.5
0
VERTEX
8
BottomMetal
10
155.5
20
-1965.5
0
VERTEX
8
BottomMetal
10
155.5
20
1968
0
VERTEX
8
BottomMetal
10
147
20
1968
0
VERTEX
8
BottomMetal
10
147
20
-1965.5
0
VERTEX
8
BottomMetal
10
143.5
20
-1965.5
0
VERTEX
8
BottomMetal
10
143.5
20
1968
0
VERTEX
8
BottomMetal
10
135
20
1968
0
VERTEX
8
BottomMetal
10
135
20
-1965.5
0
VERTEX
8
BottomMetal
10
131.5
20
-1965.5
0
VERTEX
8
BottomMetal
10
131.5
20
1968
0
VERTEX
8
BottomMetal
10
123
20
1968
0
VERTEX
8
BottomMetal
10
123
20
-1965.5
0
VERTEX
8
BottomMetal
10
119.5
20
-1965.5
0
VERTEX
8
BottomMetal
10
119.5
20
1968
0
VERTEX
8
BottomMetal
10
111
20
1968
0
VERTEX
8
BottomMetal
10
111
20
-1965.5
0
VERTEX
8
BottomMetal
10
107.5
20
-1965.5
0
VERTEX
8
BottomMetal
10
107.5
20
1968
0
VERTEX
8
BottomMetal
10
99
20
1968
0
VERTEX
8
BottomMetal
10
99
20
-1965.5
0
VERTEX
8
BottomMetal
10
95.5
20
-1965.5
0
VERTEX
8
BottomMetal
10
95.5
20
1968
0
VERTEX
8
BottomMetal
10
87
20
1968
0
VERTEX
8
BottomMetal
10
87
20
-1965.5
0
VERTEX
8
BottomMetal
10
83.5
20
-1965.5
0
VERTEX
8
BottomMetal
10
83.5
20
1968
0
VERTEX
8
BottomMetal
10
75
20
1968
0
VERTEX
8
BottomMetal
10
75
20
-1965.5
0
VERTEX
8
BottomMetal
10
71.5
20
-1965.5
0
VERTEX
8
BottomMetal
10
71.5
20
1968
0
VERTEX
8
BottomMetal
10
63
20
1968
0
VERTEX
8
BottomMetal
10
63
20
-1965.5
0
VERTEX
8
BottomMetal
10
59.5
20
-1965.5
0
VERTEX
8
BottomMetal
10
59.5
20
1968
0
VERTEX
8
BottomMetal
10
51
20
1968
0
VERTEX
8
BottomMetal
10
51
20
-1965.5
0
VERTEX
8
BottomMetal
10
47.5
20
-1965.5
0
VERTEX
8
BottomMetal
10
47.5
20
1968
0
VERTEX
8
BottomMetal
10
39
20
1968
0
VERTEX
8
BottomMetal
10
39
20
-1965.5
0
VERTEX
8
BottomMetal
10
35.5
20
-1965.5
0
VERTEX
8
BottomMetal
10
35.5
20
1968
0
VERTEX
8
BottomMetal
10
27
20
1968
0
VERTEX
8
BottomMetal
10
27
20
-1965.5
0
VERTEX
8
BottomMetal
10
23.5
20
-1965.5
0
VERTEX
8
BottomMetal
10
23.5
20
1968
0
VERTEX
8
BottomMetal
10
15
20
1968
0
VERTEX
8
BottomMetal
10
15
20
-1965.5
0
SEQEND
0
POLYLINE
8
BottomMetal
70
1
40
0
41
0
66
1
0
VERTEX
8
BottomMetal
10
-4200.05
20
-1971.5
0
VERTEX
8
BottomMetal
10
-4200.05
20
-1919.6
0
VERTEX
8
BottomMetal
10
-6500.05
20
-1919.6
0
VERTEX
8
BottomMetal
10
-6500.05
20
-179.6
0
VERTEX
8
BottomMetal
10
-297
20
-179.6
0
VERTEX
8
BottomMetal
10
-297
20
1965.5
0
VERTEX
8
BottomMetal
10
-293.5
20
1965.5
0
VERTEX
8
BottomMetal
10
-293.5
20
-1968
0
VERTEX
8
BottomMetal
10
-285
20
-1968
0
VERTEX
8
BottomMetal
10
-285
20
1965.5
0
VERTEX
8
BottomMetal
10
-281.5
20
1965.5
0
VERTEX
8
BottomMetal
10
-281.5
20
-1968
0
VERTEX
8
BottomMetal
10
-273
20
-1968
0
VERTEX
8
BottomMetal
10
-273
20
1965.5
0
VERTEX
8
BottomMetal
10
-269.5
20
1965.5
0
VERTEX
8
BottomMetal
10
-269.5
20
-1968
0
VERTEX
8
BottomMetal
10
-261
20
-1968
0
VERTEX
8
BottomMetal
10
-261
20
1965.5
0
VERTEX
8
BottomMetal
10
-257.5
20
1965.5
0
VERTEX
8
BottomMetal
10
-257.5
20
-1968
0
VERTEX
8
BottomMetal
10
-249
20
-1968
0
VERTEX
8
BottomMetal
10
-249
20
1965.5
0
VERTEX
8
BottomMetal
10
-245.5
20
1965.5
0
VERTEX
8
BottomMetal
10
-245.5
20
-1968
0
VERTEX
8
BottomMetal
10
-237
20
-1968
0
VERTEX
8
BottomMetal
10
-237
20
1965.5
0
VERTEX
8
BottomMetal
10
-233.5
20
1965.5
0
VERTEX
8
BottomMetal
10
-233.5
20
-1968
0
VERTEX
8
BottomMetal
10
-225
20
-1968
0
VERTEX
8
BottomMetal
10
-225
20
1965.5
0
VERTEX
8
BottomMetal
10
-221.5
20
1965.5
0
VERTEX
8
BottomMetal
10
-221.5
20
-1968
0
VERTEX
8
BottomMetal
10
-213
20
-1968
0
VERTEX
8
BottomMetal
10
-213
20
1965.5
0
VERTEX
8
BottomMetal
10
-209.5
20
1965.5
0
VERTEX
8
BottomMetal
10
-209.5
20
-1968
0
VERTEX
8
BottomMetal
10
-201
20
-1968
0
VERTEX
8
BottomMetal
10
-201
20
1965.5
0
VERTEX
8
BottomMetal
10
-197.5
20
1965.5
0
VERTEX
8
BottomMetal
10
-197.5
20
-1968
0
VERTEX
8
BottomMetal
10
-189
20
-1968
0
VERTEX
8
BottomMetal
10
-189
20
1965.5
0
VERTEX
8
BottomMetal
10
-185.5
20
1965.5
0
VERTEX
8
BottomMetal
10
-185.5
20
-1968
0
VERTEX
8
BottomMetal
10
-177
20
-1968
0
VERTEX
8
BottomMetal
10
-177
20
1965.5
0
VERTEX
8
BottomMetal
10
-173.5
20
1965.5
0
VERTEX
8
BottomMetal
10
-173.5
20
-1968
0
VERTEX
8
BottomMetal
10
-165
20
-1968
0
VERTEX
8
BottomMetal
10
-165
20
1965.5
0
VERTEX
8
BottomMetal
10
-161.5
20
1965.5
0
VERTEX
8
BottomMetal
10
-161.5
20
-1968
0
VERTEX
8
BottomMetal
10
-153
20
-1968
0
VERTEX
8
BottomMetal
10
-153
20
1965.5
0
VERTEX
8
BottomMetal
10
-149.5
20
1965.5
0
VERTEX
8
BottomMetal
10
-149.5
20
-1968
0
VERTEX
8
BottomMetal
10
-141
20
-1968
0
VERTEX
8
BottomMetal
10
-141
20
1965.5
0
VERTEX
8
BottomMetal
10
-137.5
20
1965.5
0
VERTEX
8
BottomMetal
10
-137.5
20
-1968
0
VERTEX
8
BottomMetal
10
-129
20
-1968
0
VERTEX
8
BottomMetal
10
-129
20
1965.5
0
VERTEX
8
BottomMetal
10
-125.5
20
1965.5
0
VERTEX
8
BottomMetal
10
-125.5
20
-1968
0
VERTEX
8
BottomMetal
10
-117
20
-1968
0
VERTEX
8
BottomMetal
10
-117
20
1965.5
0
VERTEX
8
BottomMetal
10
-113.5
20
1965.5
0
VERTEX
8
BottomMetal
10
-113.5
20
-1968
0
VERTEX
8
BottomMetal
10
-105
20
-1968
0
VERTEX
8
BottomMetal
10
-105
20
1965.5
0
VERTEX
8
BottomMetal
10
-101.5
20
1965.5
0
VERTEX
8
BottomMetal
10
-101.5
20
-1968
0
VERTEX
8
BottomMetal
10
-93
20
-1968
0
VERTEX
8
BottomMetal
10
-93
20
1965.5
0
VERTEX
8
BottomMetal
10
-89.5
20
1965.5
0
VERTEX
8
BottomMetal
10
-89.5
20
-1968
0
VERTEX
8
BottomMetal
10
-81
20
-1968
0
VERTEX
8
BottomMetal
10
-81
20
1965.5
0
VERTEX
8
BottomMetal
10
-77.5
20
1965.5
0
VERTEX
8
BottomMetal
10
-77.5
20
-1968
0
VERTEX
8
BottomMetal
10
-69
20
-1968
0
VERTEX
8
BottomMetal
10
-69
20
1965.5
0
VERTEX
8
BottomMetal
10
-65.5
20
1965.5
0
VERTEX
8
BottomMetal
10
-65.5
20
-1968
0
VERTEX
8
BottomMetal
10
-57
20
-1968
0
VERTEX
8
BottomMetal
10
-57
20
1965.5
0
VERTEX
8
BottomMetal
10
-53.5
20
1965.5
0
VERTEX
8
BottomMetal
10
-53.5
20
-1968
0
VERTEX
8
BottomMetal
10
-45
20
-1968
0
VERTEX
8
BottomMetal
10
-45
20
1965.5
0
VERTEX
8
BottomMetal
10
-41.5
20
1965.5
0
VERTEX
8
BottomMetal
10
-41.5
20
-1968
0
VERTEX
8
BottomMetal
10
-33
20
-1968
0
VERTEX
8
BottomMetal
10
-33
20
1965.5
0
VERTEX
8
BottomMetal
10
-29.5
20
1965.5
0
VERTEX
8
BottomMetal
10
-29.5
20
-1968
0
VERTEX
8
BottomMetal
10
-21
20
-1968
0
VERTEX
8
BottomMetal
10
-21
20
1965.5
0
VERTEX
8
BottomMetal
10
-17.5
20
1965.5
0
VERTEX
8
BottomMetal
10
-17.5
20
-1968
0
VERTEX
8
BottomMetal
10
-9
20
-1968
0
VERTEX
8
BottomMetal
10
-9
20
1971.5
0
VERTEX
8
BottomMetal
10
-5.5
20
1971.5
0
VERTEX
8
BottomMetal
10
-5.5
20
-1971.5
0
SEQEND
0
POLYLINE
8
BottomMetal
70
1
40
0
41
0
66
1
0
VERTEX
8
BottomMetal
10
-291
20
-1965.5
0
VERTEX
8
BottomMetal
10
-291
20
1968
0
VERTEX
8
BottomMetal
10
-299.5
20
1968
0
VERTEX
8
BottomMetal
10
-299.5
20
179.6
0
VERTEX
8
BottomMetal
10
-6506.05
20
179.6
0
VERTEX
8
BottomMetal
10
-6506.05
20
1919.6
0
VERTEX
8
BottomMetal
10
-4206.05
20
1919.6
0
VERTEX
8
BottomMetal
10
-4206.05
20
1971.5
0
VERTEX
8
BottomMetal
10
-11.5
20
1971.5
0
VERTEX
8
BottomMetal
10
-11.5
20
-1965.5
0
VERTEX
8
BottomMetal
10
-15
20
-1965.5
0
VERTEX
8
BottomMetal
10
-15
20
1968
0
VERTEX
8
BottomMetal
10
-23.5
20
1968
0
VERTEX
8
BottomMetal
10
-23.5
20
-1965.5
0
VERTEX
8
BottomMetal
10
-27
20
-1965.5
0
VERTEX
8
BottomMetal
10
-27
20
1968
0
VERTEX
8
BottomMetal
10
-35.5
20
1968
0
VERTEX
8
BottomMetal
10
-35.5
20
-1965.5
0
VERTEX
8
BottomMetal
10
-39
20
-1965.5
0
VERTEX
8
BottomMetal
10
-39
20
1968
0
VERTEX
8
BottomMetal
10
-47.5
20
1968
0
VERTEX
8
BottomMetal
10
-47.5
20
-1965.5
0
VERTEX
8
BottomMetal
10
-51
20
-1965.5
0
VERTEX
8
BottomMetal
10
-51
20
1968
0
VERTEX
8
BottomMetal
10
-59.5
20
1968
0
VERTEX
8
BottomMetal
10
-59.5
20
-1965.5
0
VERTEX
8
BottomMetal
10
-63
20
-1965.5
0
VERTEX
8
BottomMetal
10
-63
20
1968
0
VERTEX
8
BottomMetal
10
-71.5
20
1968
0
VERTEX
8
BottomMetal
10
-71.5
20
-1965.5
0
VERTEX
8
BottomMetal
10
-75
20
-1965.5
0
VERTEX
8
BottomMetal
10
-75
20
1968
0
VERTEX
8
BottomMetal
10
-83.5
20
1968
0
VERTEX
8
BottomMetal
10
-83.5
20
-1965.5
0
VERTEX
8
BottomMetal
10
-87
20
-1965.5
0
VERTEX
8
BottomMetal
10
-87
20
1968
0
VERTEX
8
BottomMetal
10
-95.5
20
1968
0
VERTEX
8
BottomMetal
10
-95.5
20
-1965.5
0
VERTEX
8
BottomMetal
10
-99
20
-1965.5
0
VERTEX
8
BottomMetal
10
-99
20
1968
0
VERTEX
8
BottomMetal
10
-107.5
20
1968
0
VERTEX
8
BottomMetal
10
-107.5
20
-1965.5
0
VERTEX
8
BottomMetal
10
-111
20
-1965.5
0
VERTEX
8
BottomMetal
10
-111
20
1968
0
VERTEX
8
BottomMetal
10
-119.5
20
1968
0
VERTEX
8
BottomMetal
10
-119.5
20
-1965.5
0
VERTEX
8
BottomMetal
10
-123
20
-1965.5
0
VERTEX
8
BottomMetal
10
-123
20
1968
0
VERTEX
8
BottomMetal
10
-131.5
20
1968
0
VERTEX
8
BottomMetal
10
-131.5
20
-1965.5
0
VERTEX
8
BottomMetal
10
-135
20
-1965.5
0
VERTEX
8
BottomMetal
10
-135
20
1968
0
VERTEX
8
BottomMetal
10
-143.5
20
1968
0
VERTEX
8
BottomMetal
10
-143.5
20
-1965.5
0
VERTEX
8
BottomMetal
10
-147
20
-1965.5
0
VERTEX
8
BottomMetal
10
-147
20
1968
0
VERTEX
8
BottomMetal
10
-155.5
20
1968
0
VERTEX
8
BottomMetal
10
-155.5
20
-1965.5
0
VERTEX
8
BottomMetal
10
-159
20
-1965.5
0
VERTEX
8
BottomMetal
10
-159
20
1968
0
VERTEX
8
BottomMetal
10
-167.5
20
1968
0
VERTEX
8
BottomMetal
10
-167.5
20
-1965.5
0
VERTEX
8
BottomMetal
10
-171
20
-1965.5
0
VERTEX
8
BottomMetal
10
-171
20
1968
0
VERTEX
8
BottomMetal
10
-179.5
20
1968
0
VERTEX
8
BottomMetal
10
-179.5
20
-1965.5
0
VERTEX
8
BottomMetal
10
-183
20
-1965.5
0
VERTEX
8
BottomMetal
10
-183
20
1968
0
VERTEX
8
BottomMetal
10
-191.5
20
1968
0
VERTEX
8
BottomMetal
10
-191.5
20
-1965.5
0
VERTEX
8
BottomMetal
10
-195
20
-1965.5
0
VERTEX
8
BottomMetal
10
-195
20
1968
0
VERTEX
8
BottomMetal
10
-203.5
20
1968
0
VERTEX
8
BottomMetal
10
-203.5
20
-1965.5
0
VERTEX
8
BottomMetal
10
-207
20
-1965.5
0
VERTEX
8
BottomMetal
10
-207
20
1968
0
VERTEX
8
BottomMetal
10
-215.5
20
1968
0
VERTEX
8
BottomMetal
10
-215.5
20
-1965.5
0
VERTEX
8
BottomMetal
10
-219
20
-1965.5
0
VERTEX
8
BottomMetal
10
-219
20
1968
0
VERTEX
8
BottomMetal
10
-227.5
20
1968
0
VERTEX
8
BottomMetal
10
-227.5
20
-1965.5
0
VERTEX
8
BottomMetal
10
-231
20
-1965.5
0
VERTEX
8
BottomMetal
10
-231
20
1968
0
VERTEX
8
BottomMetal
10
-239.5
20
1968
0
VERTEX
8
BottomMetal
10
-239.5
20
-1965.5
0
VERTEX
8
BottomMetal
10
-243
20
-1965.5
0
VERTEX
8
BottomMetal
10
-243
20
1968
0
VERTEX
8
BottomMetal
10
-251.5
20
1968
0
VERTEX
8
BottomMetal
10
-251.5
20
-1965.5
0
VERTEX
8
BottomMetal
10
-255
20
-1965.5
0
VERTEX
8
BottomMetal
10
-255
20
1968
0
VERTEX
8
BottomMetal
10
-263.5
20
1968
0
VERTEX
8
BottomMetal
10
-263.5
20
-1965.5
0
VERTEX
8
BottomMetal
10
-267
20
-1965.5
0
VERTEX
8
BottomMetal
10
-267
20
1968
0
VERTEX
8
BottomMetal
10
-275.5
20
1968
0
VERTEX
8
BottomMetal
10
-275.5
20
-1965.5
0
VERTEX
8
BottomMetal
10
-279
20
-1965.5
0
VERTEX
8
BottomMetal
10
-279
20
1968
0
VERTEX
8
BottomMetal
10
-287.5
20
1968
0
VERTEX
8
BottomMetal
10
-287.5
20
-1965.5
0
SEQEND
0
POLYLINE
8
BottomMetal
70
1
40
0
41
0
66
1
0
VERTEX
8
BottomMetal
10
-3043.339
20
2122.521
0
VERTEX
8
BottomMetal
10
-3043.339
20
9000
0
VERTEX
8
BottomMetal
10
-2543.314
20
9000
0
VERTEX
8
BottomMetal
10
-2543.314
20
2132.521
0
VERTEX
8
BottomMetal
10
2378.898
20
2132.521
0
VERTEX
8
BottomMetal
10
2378.898
20
2122.521
0
SEQEND
0
POLYLINE
8
BottomMetal
70
1
40
0
41
0
66
1
0
VERTEX
8
BottomMetal
10
-2394.635
20
2145.121
0
VERTEX
8
BottomMetal
10
-2394.635
20
2155.121
0
VERTEX
8
BottomMetal
10
3700.753
20
2155.121
0
VERTEX
8
BottomMetal
10
3700.753
20
9000
0
VERTEX
8
BottomMetal
10
4617.163
20
9000
0
VERTEX
8
BottomMetal
10
4617.163
20
2145.121
0
SEQEND
0
POLYLINE
8
BottomMetal
70
1
40
0
41
0
66
1
0
VERTEX
8
BottomMetal
10
-2296
20
2156.421
0
VERTEX
8
BottomMetal
10
-2296
20
3434
0
VERTEX
8
BottomMetal
10
2600
20
3434
0
VERTEX
8
BottomMetal
10
2600
20
9000
0
VERTEX
8
BottomMetal
10
3601.504
20
9000
0
VERTEX
8
BottomMetal
10
3601.504
20
2156.421
0
SEQEND
0
POLYLINE
8
BottomMetal
70
1
40
0
41
0
66
1
0
VERTEX
8
BottomMetal
10
1153.966
20
-9000
0
VERTEX
8
BottomMetal
10
1153.966
20
-8000
0
VERTEX
8
BottomMetal
10
1385.854
20
-8000
0
VERTEX
8
BottomMetal
10
1385.854
20
-4768
0
VERTEX
8
BottomMetal
10
2300
20
-4768
0
VERTEX
8
BottomMetal
10
2300
20
-3495.5
0
VERTEX
8
BottomMetal
10
-2296
20
-3495.5
0
VERTEX
8
BottomMetal
10
-2296
20
-3435.5
0
VERTEX
8
BottomMetal
10
2500
20
-3435.5
0
VERTEX
8
BottomMetal
10
2500
20
-9000
0
SEQEND
0
POLYLINE
8
BottomMetal
70
1
40
0
41
0
66
1
0
VERTEX
8
BottomMetal
10
-500
20
-9000
0
VERTEX
8
BottomMetal
10
-500
20
-8000
0
VERTEX
8
BottomMetal
10
-1100
20
-8000
0
VERTEX
8
BottomMetal
10
-1100
20
-4764
0
VERTEX
8
BottomMetal
10
-2296
20
-4764
0
VERTEX
8
BottomMetal
10
-2296
20
-3497
0
VERTEX
8
BottomMetal
10
2296
20
-3497
0
VERTEX
8
BottomMetal
10
2296
20
-4764
0
VERTEX
8
BottomMetal
10
950
20
-4764
0
VERTEX
8
BottomMetal
10
950
20
-8000
0
VERTEX
8
BottomMetal
10
500
20
-8000
0
VERTEX
8
BottomMetal
10
500
20
-9000
0
SEQEND
0
POLYLINE
8
BottomMetal
70
1
40
0
41
0
66
1
0
VERTEX
8
BottomMetal
10
-3043.339
20
-9000
0
VERTEX
8
BottomMetal
10
-3043.339
20
-2122.521
0
VERTEX
8
BottomMetal
10
2378.898
20
-2122.521
0
VERTEX
8
BottomMetal
10
2378.898
20
-2132.521
0
VERTEX
8
BottomMetal
10
-2543.314
20
-2132.521
0
VERTEX
8
BottomMetal
10
-2543.314
20
-9000
0
SEQEND
0
POLYLINE
8
BottomMetal
70
1
40
0
41
0
66
1
0
VERTEX
8
BottomMetal
10
3700.753
20
-9000
0
VERTEX
8
BottomMetal
10
3700.753
20
-2155.121
0
VERTEX
8
BottomMetal
10
-2394.635
20
-2155.121
0
VERTEX
8
BottomMetal
10
-2394.635
20
-2145.121
0
VERTEX
8
BottomMetal
10
4617.163
20
-2145.121
0
VERTEX
8
BottomMetal
10
4617.163
20
-9000
0
SEQEND
0
POLYLINE
8
BottomMetal
70
1
40
0
41
0
66
1
0
VERTEX
8
BottomMetal
10
2600
20
-9000
0
VERTEX
8
BottomMetal
10
2600
20
-3434
0
VERTEX
8
BottomMetal
10
-2296
20
-3434
0
VERTEX
8
BottomMetal
10
-2296
20
-2156.421
0
VERTEX
8
BottomMetal
10
3601.504
20
-2156.421
0
VERTEX
8
BottomMetal
10
3601.504
20
-9000
0
SEQEND
0
POLYLINE
8
BottomMetal
70
1
40
0
41
0
66
1
0
VERTEX
8
BottomMetal
10
2387.322
20
2118.821
0
VERTEX
8
BottomMetal
10
2387.322
20
2133.821
0
VERTEX
8
BottomMetal
10
-2394.635
20
2133.821
0
VERTEX
8
BottomMetal
10
-2394.635
20
2143.821
0
VERTEX
8
BottomMetal
10
4717.163
20
2143.821
0
VERTEX
8
BottomMetal
10
4717.163
20
9000
0
VERTEX
8
BottomMetal
10
6500
20
9000
0
VERTEX
8
BottomMetal
10
6500
20
5297.841
0
VERTEX
8
BottomMetal
10
5013.881
20
5297.841
0
VERTEX
8
BottomMetal
10
5013.881
20
2118.821
0
SEQEND
0
POLYLINE
8
BottomMetal
70
1
40
0
41
0
66
1
0
VERTEX
8
BottomMetal
10
4717.163
20
-9000
0
VERTEX
8
BottomMetal
10
4717.163
20
-2143.821
0
VERTEX
8
BottomMetal
10
-2394.635
20
-2143.821
0
VERTEX
8
BottomMetal
10
-2394.635
20
-2133.821
0
VERTEX
8
BottomMetal
10
2387.322
20
-2133.821
0
VERTEX
8
BottomMetal
10
2387.322
20
-2118.821
0
VERTEX
8
BottomMetal
10
5013.881
20
-2118.821
0
VERTEX
8
BottomMetal
10
5013.881
20
-5297.841
0
VERTEX
8
BottomMetal
10
6500
20
-5297.841
0
VERTEX
8
BottomMetal
10
6500
20
-9000
0
SEQEND
0
POLYLINE
8
BottomMetal
70
1
40
0
41
0
66
1
0
VERTEX
8
BottomMetal
10
-6461.5
20
5230
0
VERTEX
8
BottomMetal
10
-6461.5
20
5258.5
0
VERTEX
8
BottomMetal
10
-6490
20
5258.5
0
VERTEX
8
BottomMetal
10
-6490
20
5261.5
0
VERTEX
8
BottomMetal
10
-6461.5
20
5261.5
0
VERTEX
8
BottomMetal
10
-6461.5
20
5290
0
VERTEX
8
BottomMetal
10
-6458.5
20
5290
0
VERTEX
8
BottomMetal
10
-6458.5
20
5261.5
0
VERTEX
8
BottomMetal
10
-6430
20
5261.5
0
VERTEX
8
BottomMetal
10
-6430
20
5258.5
0
VERTEX
8
BottomMetal
10
-6458.5
20
5258.5
0
VERTEX
8
BottomMetal
10
-6458.5
20
5230
0
SEQEND
0
POLYLINE
8
BottomMetal
70
1
40
0
41
0
66
1
0
VERTEX
8
BottomMetal
10
6458.5
20
5230
0
VERTEX
8
BottomMetal
10
6458.5
20
5258.5
0
VERTEX
8
BottomMetal
10
6430
20
5258.5
0
VERTEX
8
BottomMetal
10
6430
20
5261.5
0
VERTEX
8
BottomMetal
10
6458.5
20
5261.5
0
VERTEX
8
BottomMetal
10
6458.5
20
5290
0
VERTEX
8
BottomMetal
10
6461.5
20
5290
0
VERTEX
8
BottomMetal
10
6461.5
20
5261.5
0
VERTEX
8
BottomMetal
10
6490
20
5261.5
0
VERTEX
8
BottomMetal
10
6490
20
5258.5
0
VERTEX
8
BottomMetal
10
6461.5
20
5258.5
0
VERTEX
8
BottomMetal
10
6461.5
20
5230
0
SEQEND
0
POLYLINE
8
BottomMetal
70
1
40
0
41
0
66
1
0
VERTEX
8
BottomMetal
10
-6461.5
20
-5290
0
VERTEX
8
BottomMetal
10
-6461.5
20
-5261.5
0
VERTEX
8
BottomMetal
10
-6490
20
-5261.5
0
VERTEX
8
BottomMetal
10
-6490
20
-5258.5
0
VERTEX
8
BottomMetal
10
-6461.5
20
-5258.5
0
VERTEX
8
BottomMetal
10
-6461.5
20
-5230
0
VERTEX
8
BottomMetal
10
-6458.5
20
-5230
0
VERTEX
8
BottomMetal
10
-6458.5
20
-5258.5
0
VERTEX
8
BottomMetal
10
-6430
20
-5258.5
0
VERTEX
8
BottomMetal
10
-6430
20
-5261.5
0
VERTEX
8
BottomMetal
10
-6458.5
20
-5261.5
0
VERTEX
8
BottomMetal
10
-6458.5
20
-5290
0
SEQEND
0
POLYLINE
8
BottomMetal
70
1
40
0
41
0
66
1
0
VERTEX
8
BottomMetal
10
6458.5
20
-5290
0
VERTEX
8
BottomMetal
10
6458.5
20
-5261.5
0
VERTEX
8
BottomMetal
10
6430
20
-5261.5
0
VERTEX
8
BottomMetal
10
6430
20
-5258.5
0
VERTEX
8
BottomMetal
10
6458.5
20
-5258.5
0
VERTEX
8
BottomMetal
10
6458.5
20
-5230
0
VERTEX
8
BottomMetal
10
6461.5
20
-5230
0
VERTEX
8
BottomMetal
10
6461.5
20
-5258.5
0
VERTEX
8
BottomMetal
10
6490
20
-5258.5
0
VERTEX
8
BottomMetal
10
6490
20
-5261.5
0
VERTEX
8
BottomMetal
10
6461.5
20
-5261.5
0
VERTEX
8
BottomMetal
10
6461.5
20
-5290
0
SEQEND
0
POLYLINE
8
TopMetal
70
1
40
0
41
0
66
1
0
VERTEX
8
TopMetal
10
-15.5
20
1894
0
VERTEX
8
TopMetal
10
-18
20
1964
0
VERTEX
8
TopMetal
10
-18
20
2069
0
VERTEX
8
TopMetal
10
-2400
20
2069
0
VERTEX
8
TopMetal
10
-2400
20
9000
0
VERTEX
8
TopMetal
10
-1400
20
9000
0
VERTEX
8
TopMetal
10
-1400
20
4944
0
VERTEX
8
TopMetal
10
2384
20
4944
0
VERTEX
8
TopMetal
10
2384
20
2069
0
VERTEX
8
TopMetal
10
18
20
2069
0
VERTEX
8
TopMetal
10
18
20
1964
0
VERTEX
8
TopMetal
10
15.5
20
1894
0
VERTEX
8
TopMetal
10
13.5
20
1894
0
VERTEX
8
TopMetal
10
6
20
1964
0
VERTEX
8
TopMetal
10
6
20
2173.221
0
VERTEX
8
TopMetal
10
2284
20
2173.221
0
VERTEX
8
TopMetal
10
2284
20
4744
0
VERTEX
8
TopMetal
10
2274
20
4744
0
VERTEX
8
TopMetal
10
2274
20
2183.221
0
VERTEX
8
TopMetal
10
2264
20
2183.221
0
VERTEX
8
TopMetal
10
2264
20
4744
0
VERTEX
8
TopMetal
10
2254
20
4744
0
VERTEX
8
TopMetal
10
2254
20
2183.221
0
VERTEX
8
TopMetal
10
2244
20
2183.221
0
VERTEX
8
TopMetal
10
2244
20
4744
0
VERTEX
8
TopMetal
10
2234
20
4744
0
VERTEX
8
TopMetal
10
2234
20
2183.221
0
VERTEX
8
TopMetal
10
2224
20
2183.221
0
VERTEX
8
TopMetal
10
2224
20
4744
0
VERTEX
8
TopMetal
10
2214
20
4744
0
VERTEX
8
TopMetal
10
2214
20
2183.221
0
VERTEX
8
TopMetal
10
2204
20
2183.221
0
VERTEX
8
TopMetal
10
2204
20
4744
0
VERTEX
8
TopMetal
10
2194
20
4744
0
VERTEX
8
TopMetal
10
2194
20
2183.221
0
VERTEX
8
TopMetal
10
2184
20
2183.221
0
VERTEX
8
TopMetal
10
2184
20
4744
0
VERTEX
8
TopMetal
10
2174
20
4744
0
VERTEX
8
TopMetal
10
2174
20
2183.221
0
VERTEX
8
TopMetal
10
2164
20
2183.221
0
VERTEX
8
TopMetal
10
2164
20
4744
0
VERTEX
8
TopMetal
10
2154
20
4744
0
VERTEX
8
TopMetal
10
2154
20
2183.221
0
VERTEX
8
TopMetal
10
2144
20
2183.221
0
VERTEX
8
TopMetal
10
2144
20
4744
0
VERTEX
8
TopMetal
10
2134
20
4744
0
VERTEX
8
TopMetal
10
2134
20
2183.221
0
VERTEX
8
TopMetal
10
2124
20
2183.221
0
VERTEX
8
TopMetal
10
2124
20
4744
0
VERTEX
8
TopMetal
10
2114
20
4744
0
VERTEX
8
TopMetal
10
2114
20
2183.221
0
VERTEX
8
TopMetal
10
2104
20
2183.221
0
VERTEX
8
TopMetal
10
2104
20
4744
0
VERTEX
8
TopMetal
10
2094
20
4744
0
VERTEX
8
TopMetal
10
2094
20
2183.221
0
VERTEX
8
TopMetal
10
2084
20
2183.221
0
VERTEX
8
TopMetal
10
2084
20
4744
0
VERTEX
8
TopMetal
10
2074
20
4744
0
VERTEX
8
TopMetal
10
2074
20
2183.221
0
VERTEX
8
TopMetal
10
2064
20
2183.221
0
VERTEX
8
TopMetal
10
2064
20
4744
0
VERTEX
8
TopMetal
10
2054
20
4744
0
VERTEX
8
TopMetal
10
2054
20
2183.221
0
VERTEX
8
TopMetal
10
2044
20
2183.221
0
VERTEX
8
TopMetal
10
2044
20
4744
0
VERTEX
8
TopMetal
10
2034
20
4744
0
VERTEX
8
TopMetal
10
2034
20
2183.221
0
VERTEX
8
TopMetal
10
2024
20
2183.221
0
VERTEX
8
TopMetal
10
2024
20
4744
0
VERTEX
8
TopMetal
10
2014
20
4744
0
VERTEX
8
TopMetal
10
2014
20
2183.221
0
VERTEX
8
TopMetal
10
2004
20
2183.221
0
VERTEX
8
TopMetal
10
2004
20
4744
0
VERTEX
8
TopMetal
10
1994
20
4744
0
VERTEX
8
TopMetal
10
1994
20
2183.221
0
VERTEX
8
TopMetal
10
1984
20
2183.221
0
VERTEX
8
TopMetal
10
1984
20
4744
0
VERTEX
8
TopMetal
10
1974
20
4744
0
VERTEX
8
TopMetal
10
1974
20
2183.221
0
VERTEX
8
TopMetal
10
1964
20
2183.221
0
VERTEX
8
TopMetal
10
1964
20
4744
0
VERTEX
8
TopMetal
10
1954
20
4744
0
VERTEX
8
TopMetal
10
1954
20
2183.221
0
VERTEX
8
TopMetal
10
1944
20
2183.221
0
VERTEX
8
TopMetal
10
1944
20
4744
0
VERTEX
8
TopMetal
10
1934
20
4744
0
VERTEX
8
TopMetal
10
1934
20
2183.221
0
VERTEX
8
TopMetal
10
1924
20
2183.221
0
VERTEX
8
TopMetal
10
1924
20
4744
0
VERTEX
8
TopMetal
10
1914
20
4744
0
VERTEX
8
TopMetal
10
1914
20
2183.221
0
VERTEX
8
TopMetal
10
1904
20
2183.221
0
VERTEX
8
TopMetal
10
1904
20
4744
0
VERTEX
8
TopMetal
10
1894
20
4744
0
VERTEX
8
TopMetal
10
1894
20
2183.221
0
VERTEX
8
TopMetal
10
1884
20
2183.221
0
VERTEX
8
TopMetal
10
1884
20
4744
0
VERTEX
8
TopMetal
10
1874
20
4744
0
VERTEX
8
TopMetal
10
1874
20
2183.221
0
VERTEX
8
TopMetal
10
1864
20
2183.221
0
VERTEX
8
TopMetal
10
1864
20
4744
0
VERTEX
8
TopMetal
10
1854
20
4744
0
VERTEX
8
TopMetal
10
1854
20
2183.221
0
VERTEX
8
TopMetal
10
1844
20
2183.221
0
VERTEX
8
TopMetal
10
1844
20
4744
0
VERTEX
8
TopMetal
10
1834
20
4744
0
VERTEX
8
TopMetal
10
1834
20
2183.221
0
VERTEX
8
TopMetal
10
1824
20
2183.221
0
VERTEX
8
TopMetal
10
1824
20
4744
0
VERTEX
8
TopMetal
10
1814
20
4744
0
VERTEX
8
TopMetal
10
1814
20
2183.221
0
VERTEX
8
TopMetal
10
1804
20
2183.221
0
VERTEX
8
TopMetal
10
1804
20
4744
0
VERTEX
8
TopMetal
10
1794
20
4744
0
VERTEX
8
TopMetal
10
1794
20
2183.221
0
VERTEX
8
TopMetal
10
1784
20
2183.221
0
VERTEX
8
TopMetal
10
1784
20
4744
0
VERTEX
8
TopMetal
10
1774
20
4744
0
VERTEX
8
TopMetal
10
1774
20
2183.221
0
VERTEX
8
TopMetal
10
1764
20
2183.221
0
VERTEX
8
TopMetal
10
1764
20
4744
0
VERTEX
8
TopMetal
10
1754
20
4744
0
VERTEX
8
TopMetal
10
1754
20
2183.221
0
VERTEX
8
TopMetal
10
1744
20
2183.221
0
VERTEX
8
TopMetal
10
1744
20
4744
0
VERTEX
8
TopMetal
10
1734
20
4744
0
VERTEX
8
TopMetal
10
1734
20
2183.221
0
VERTEX
8
TopMetal
10
1724
20
2183.221
0
VERTEX
8
TopMetal
10
1724
20
4744
0
VERTEX
8
TopMetal
10
1714
20
4744
0
VERTEX
8
TopMetal
10
1714
20
2183.221
0
VERTEX
8
TopMetal
10
1704
20
2183.221
0
VERTEX
8
TopMetal
10
1704
20
4744
0
VERTEX
8
TopMetal
10
1694
20
4744
0
VERTEX
8
TopMetal
10
1694
20
2183.221
0
VERTEX
8
TopMetal
10
1684
20
2183.221
0
VERTEX
8
TopMetal
10
1684
20
4744
0
VERTEX
8
TopMetal
10
1674
20
4744
0
VERTEX
8
TopMetal
10
1674
20
2183.221
0
VERTEX
8
TopMetal
10
1664
20
2183.221
0
VERTEX
8
TopMetal
10
1664
20
4744
0
VERTEX
8
TopMetal
10
1654
20
4744
0
VERTEX
8
TopMetal
10
1654
20
2183.221
0
VERTEX
8
TopMetal
10
1644
20
2183.221
0
VERTEX
8
TopMetal
10
1644
20
4744
0
VERTEX
8
TopMetal
10
1634
20
4744
0
VERTEX
8
TopMetal
10
1634
20
2183.221
0
VERTEX
8
TopMetal
10
1624
20
2183.221
0
VERTEX
8
TopMetal
10
1624
20
4744
0
VERTEX
8
TopMetal
10
1614
20
4744
0
VERTEX
8
TopMetal
10
1614
20
2183.221
0
VERTEX
8
TopMetal
10
1604
20
2183.221
0
VERTEX
8
TopMetal
10
1604
20
4744
0
VERTEX
8
TopMetal
10
1594
20
4744
0
VERTEX
8
TopMetal
10
1594
20
2183.221
0
VERTEX
8
TopMetal
10
1584
20
2183.221
0
VERTEX
8
TopMetal
10
1584
20
4744
0
VERTEX
8
TopMetal
10
1574
20
4744
0
VERTEX
8
TopMetal
10
1574
20
2183.221
0
VERTEX
8
TopMetal
10
1564
20
2183.221
0
VERTEX
8
TopMetal
10
1564
20
4744
0
VERTEX
8
TopMetal
10
1554
20
4744
0
VERTEX
8
TopMetal
10
1554
20
2183.221
0
VERTEX
8
TopMetal
10
1544
20
2183.221
0
VERTEX
8
TopMetal
10
1544
20
4744
0
VERTEX
8
TopMetal
10
1534
20
4744
0
VERTEX
8
TopMetal
10
1534
20
2183.221
0
VERTEX
8
TopMetal
10
1524
20
2183.221
0
VERTEX
8
TopMetal
10
1524
20
4744
0
VERTEX
8
TopMetal
10
1514
20
4744
0
VERTEX
8
TopMetal
10
1514
20
2183.221
0
VERTEX
8
TopMetal
10
1504
20
2183.221
0
VERTEX
8
TopMetal
10
1504
20
4744
0
VERTEX
8
TopMetal
10
1494
20
4744
0
VERTEX
8
TopMetal
10
1494
20
2183.221
0
VERTEX
8
TopMetal
10
1484
20
2183.221
0
VERTEX
8
TopMetal
10
1484
20
4744
0
VERTEX
8
TopMetal
10
1474
20
4744
0
VERTEX
8
TopMetal
10
1474
20
2183.221
0
VERTEX
8
TopMetal
10
1464
20
2183.221
0
VERTEX
8
TopMetal
10
1464
20
4744
0
VERTEX
8
TopMetal
10
1454
20
4744
0
VERTEX
8
TopMetal
10
1454
20
2183.221
0
VERTEX
8
TopMetal
10
1444
20
2183.221
0
VERTEX
8
TopMetal
10
1444
20
4744
0
VERTEX
8
TopMetal
10
1434
20
4744
0
VERTEX
8
TopMetal
10
1434
20
2183.221
0
VERTEX
8
TopMetal
10
1424
20
2183.221
0
VERTEX
8
TopMetal
10
1424
20
4744
0
VERTEX
8
TopMetal
10
1414
20
4744
0
VERTEX
8
TopMetal
10
1414
20
2183.221
0
VERTEX
8
TopMetal
10
1404
20
2183.221
0
VERTEX
8
TopMetal
10
1404
20
4744
0
VERTEX
8
TopMetal
10
1394
20
4744
0
VERTEX
8
TopMetal
10
1394
20
2183.221
0
VERTEX
8
TopMetal
10
1384
20
2183.221
0
VERTEX
8
TopMetal
10
1384
20
4744
0
VERTEX
8
TopMetal
10
1374
20
4744
0
VERTEX
8
TopMetal
10
1374
20
2183.221
0
VERTEX
8
TopMetal
10
1364
20
2183.221
0
VERTEX
8
TopMetal
10
1364
20
4744
0
VERTEX
8
TopMetal
10
1354
20
4744
0
VERTEX
8
TopMetal
10
1354
20
2183.221
0
VERTEX
8
TopMetal
10
1344
20
2183.221
0
VERTEX
8
TopMetal
10
1344
20
4744
0
VERTEX
8
TopMetal
10
1334
20
4744
0
VERTEX
8
TopMetal
10
1334
20
2183.221
0
VERTEX
8
TopMetal
10
1324
20
2183.221
0
VERTEX
8
TopMetal
10
1324
20
4744
0
VERTEX
8
TopMetal
10
1314
20
4744
0
VERTEX
8
TopMetal
10
1314
20
2183.221
0
VERTEX
8
TopMetal
10
1304
20
2183.221
0
VERTEX
8
TopMetal
10
1304
20
4744
0
VERTEX
8
TopMetal
10
1294
20
4744
0
VERTEX
8
TopMetal
10
1294
20
2183.221
0
VERTEX
8
TopMetal
10
1284
20
2183.221
0
VERTEX
8
TopMetal
10
1284
20
4744
0
VERTEX
8
TopMetal
10
1274
20
4744
0
VERTEX
8
TopMetal
10
1274
20
2183.221
0
VERTEX
8
TopMetal
10
1264
20
2183.221
0
VERTEX
8
TopMetal
10
1264
20
4744
0
VERTEX
8
TopMetal
10
1254
20
4744
0
VERTEX
8
TopMetal
10
1254
20
2183.221
0
VERTEX
8
TopMetal
10
1244
20
2183.221
0
VERTEX
8
TopMetal
10
1244
20
4744
0
VERTEX
8
TopMetal
10
1234
20
4744
0
VERTEX
8
TopMetal
10
1234
20
2183.221
0
VERTEX
8
TopMetal
10
1224
20
2183.221
0
VERTEX
8
TopMetal
10
1224
20
4744
0
VERTEX
8
TopMetal
10
1214
20
4744
0
VERTEX
8
TopMetal
10
1214
20
2183.221
0
VERTEX
8
TopMetal
10
1204
20
2183.221
0
VERTEX
8
TopMetal
10
1204
20
4744
0
VERTEX
8
TopMetal
10
1194
20
4744
0
VERTEX
8
TopMetal
10
1194
20
2183.221
0
VERTEX
8
TopMetal
10
1184
20
2183.221
0
VERTEX
8
TopMetal
10
1184
20
4744
0
VERTEX
8
TopMetal
10
1174
20
4744
0
VERTEX
8
TopMetal
10
1174
20
2183.221
0
VERTEX
8
TopMetal
10
1164
20
2183.221
0
VERTEX
8
TopMetal
10
1164
20
4744
0
VERTEX
8
TopMetal
10
1154
20
4744
0
VERTEX
8
TopMetal
10
1154
20
2183.221
0
VERTEX
8
TopMetal
10
1144
20
2183.221
0
VERTEX
8
TopMetal
10
1144
20
4744
0
VERTEX
8
TopMetal
10
1134
20
4744
0
VERTEX
8
TopMetal
10
1134
20
2183.221
0
VERTEX
8
TopMetal
10
1124
20
2183.221
0
VERTEX
8
TopMetal
10
1124
20
4744
0
VERTEX
8
TopMetal
10
1114
20
4744
0
VERTEX
8
TopMetal
10
1114
20
2183.221
0
VERTEX
8
TopMetal
10
1104
20
2183.221
0
VERTEX
8
TopMetal
10
1104
20
4744
0
VERTEX
8
TopMetal
10
1094
20
4744
0
VERTEX
8
TopMetal
10
1094
20
2183.221
0
VERTEX
8
TopMetal
10
1084
20
2183.221
0
VERTEX
8
TopMetal
10
1084
20
4744
0
VERTEX
8
TopMetal
10
1074
20
4744
0
VERTEX
8
TopMetal
10
1074
20
2183.221
0
VERTEX
8
TopMetal
10
1064
20
2183.221
0
VERTEX
8
TopMetal
10
1064
20
4744
0
VERTEX
8
TopMetal
10
1054
20
4744
0
VERTEX
8
TopMetal
10
1054
20
2183.221
0
VERTEX
8
TopMetal
10
1044
20
2183.221
0
VERTEX
8
TopMetal
10
1044
20
4744
0
VERTEX
8
TopMetal
10
1034
20
4744
0
VERTEX
8
TopMetal
10
1034
20
2183.221
0
VERTEX
8
TopMetal
10
1024
20
2183.221
0
VERTEX
8
TopMetal
10
1024
20
4744
0
VERTEX
8
TopMetal
10
1014
20
4744
0
VERTEX
8
TopMetal
10
1014
20
2183.221
0
VERTEX
8
TopMetal
10
1004
20
2183.221
0
VERTEX
8
TopMetal
10
1004
20
4744
0
VERTEX
8
TopMetal
10
994
20
4744
0
VERTEX
8
TopMetal
10
994
20
2183.221
0
VERTEX
8
TopMetal
10
984
20
2183.221
0
VERTEX
8
TopMetal
10
984
20
4744
0
VERTEX
8
TopMetal
10
974
20
4744
0
VERTEX
8
TopMetal
10
974
20
2183.221
0
VERTEX
8
TopMetal
10
964
20
2183.221
0
VERTEX
8
TopMetal
10
964
20
4744
0
VERTEX
8
TopMetal
10
954
20
4744
0
VERTEX
8
TopMetal
10
954
20
2183.221
0
VERTEX
8
TopMetal
10
944
20
2183.221
0
VERTEX
8
TopMetal
10
944
20
4744
0
VERTEX
8
TopMetal
10
934
20
4744
0
VERTEX
8
TopMetal
10
934
20
2183.221
0
VERTEX
8
TopMetal
10
924
20
2183.221
0
VERTEX
8
TopMetal
10
924
20
4744
0
VERTEX
8
TopMetal
10
914
20
4744
0
VERTEX
8
TopMetal
10
914
20
2183.221
0
VERTEX
8
TopMetal
10
904
20
2183.221
0
VERTEX
8
TopMetal
10
904
20
4744
0
VERTEX
8
TopMetal
10
894
20
4744
0
VERTEX
8
TopMetal
10
894
20
2183.221
0
VERTEX
8
TopMetal
10
884
20
2183.221
0
VERTEX
8
TopMetal
10
884
20
4744
0
VERTEX
8
TopMetal
10
874
20
4744
0
VERTEX
8
TopMetal
10
874
20
2183.221
0
VERTEX
8
TopMetal
10
864
20
2183.221
0
VERTEX
8
TopMetal
10
864
20
4744
0
VERTEX
8
TopMetal
10
854
20
4744
0
VERTEX
8
TopMetal
10
854
20
2183.221
0
VERTEX
8
TopMetal
10
844
20
2183.221
0
VERTEX
8
TopMetal
10
844
20
4744
0
VERTEX
8
TopMetal
10
834
20
4744
0
VERTEX
8
TopMetal
10
834
20
2183.221
0
VERTEX
8
TopMetal
10
824
20
2183.221
0
VERTEX
8
TopMetal
10
824
20
4744
0
VERTEX
8
TopMetal
10
814
20
4744
0
VERTEX
8
TopMetal
10
814
20
2183.221
0
VERTEX
8
TopMetal
10
804
20
2183.221
0
VERTEX
8
TopMetal
10
804
20
4744
0
VERTEX
8
TopMetal
10
794
20
4744
0
VERTEX
8
TopMetal
10
794
20
2183.221
0
VERTEX
8
TopMetal
10
784
20
2183.221
0
VERTEX
8
TopMetal
10
784
20
4744
0
VERTEX
8
TopMetal
10
774
20
4744
0
VERTEX
8
TopMetal
10
774
20
2183.221
0
VERTEX
8
TopMetal
10
764
20
2183.221
0
VERTEX
8
TopMetal
10
764
20
4744
0
VERTEX
8
TopMetal
10
754
20
4744
0
VERTEX
8
TopMetal
10
754
20
2183.221
0
VERTEX
8
TopMetal
10
744
20
2183.221
0
VERTEX
8
TopMetal
10
744
20
4744
0
VERTEX
8
TopMetal
10
734
20
4744
0
VERTEX
8
TopMetal
10
734
20
2183.221
0
VERTEX
8
TopMetal
10
724
20
2183.221
0
VERTEX
8
TopMetal
10
724
20
4744
0
VERTEX
8
TopMetal
10
714
20
4744
0
VERTEX
8
TopMetal
10
714
20
2183.221
0
VERTEX
8
TopMetal
10
704
20
2183.221
0
VERTEX
8
TopMetal
10
704
20
4744
0
VERTEX
8
TopMetal
10
694
20
4744
0
VERTEX
8
TopMetal
10
694
20
2183.221
0
VERTEX
8
TopMetal
10
684
20
2183.221
0
VERTEX
8
TopMetal
10
684
20
4744
0
VERTEX
8
TopMetal
10
674
20
4744
0
VERTEX
8
TopMetal
10
674
20
2183.221
0
VERTEX
8
TopMetal
10
664
20
2183.221
0
VERTEX
8
TopMetal
10
664
20
4744
0
VERTEX
8
TopMetal
10
654
20
4744
0
VERTEX
8
TopMetal
10
654
20
2183.221
0
VERTEX
8
TopMetal
10
644
20
2183.221
0
VERTEX
8
TopMetal
10
644
20
4744
0
VERTEX
8
TopMetal
10
634
20
4744
0
VERTEX
8
TopMetal
10
634
20
2183.221
0
VERTEX
8
TopMetal
10
624
20
2183.221
0
VERTEX
8
TopMetal
10
624
20
4744
0
VERTEX
8
TopMetal
10
614
20
4744
0
VERTEX
8
TopMetal
10
614
20
2183.221
0
VERTEX
8
TopMetal
10
604
20
2183.221
0
VERTEX
8
TopMetal
10
604
20
4744
0
VERTEX
8
TopMetal
10
594
20
4744
0
VERTEX
8
TopMetal
10
594
20
2183.221
0
VERTEX
8
TopMetal
10
584
20
2183.221
0
VERTEX
8
TopMetal
10
584
20
4744
0
VERTEX
8
TopMetal
10
574
20
4744
0
VERTEX
8
TopMetal
10
574
20
2183.221
0
VERTEX
8
TopMetal
10
564
20
2183.221
0
VERTEX
8
TopMetal
10
564
20
4744
0
VERTEX
8
TopMetal
10
554
20
4744
0
VERTEX
8
TopMetal
10
554
20
2183.221
0
VERTEX
8
TopMetal
10
544
20
2183.221
0
VERTEX
8
TopMetal
10
544
20
4744
0
VERTEX
8
TopMetal
10
534
20
4744
0
VERTEX
8
TopMetal
10
534
20
2183.221
0
VERTEX
8
TopMetal
10
524
20
2183.221
0
VERTEX
8
TopMetal
10
524
20
4744
0
VERTEX
8
TopMetal
10
514
20
4744
0
VERTEX
8
TopMetal
10
514
20
2183.221
0
VERTEX
8
TopMetal
10
504
20
2183.221
0
VERTEX
8
TopMetal
10
504
20
4744
0
VERTEX
8
TopMetal
10
494
20
4744
0
VERTEX
8
TopMetal
10
494
20
2183.221
0
VERTEX
8
TopMetal
10
484
20
2183.221
0
VERTEX
8
TopMetal
10
484
20
4744
0
VERTEX
8
TopMetal
10
474
20
4744
0
VERTEX
8
TopMetal
10
474
20
2183.221
0
VERTEX
8
TopMetal
10
464
20
2183.221
0
VERTEX
8
TopMetal
10
464
20
4744
0
VERTEX
8
TopMetal
10
454
20
4744
0
VERTEX
8
TopMetal
10
454
20
2183.221
0
VERTEX
8
TopMetal
10
444
20
2183.221
0
VERTEX
8
TopMetal
10
444
20
4744
0
VERTEX
8
TopMetal
10
434
20
4744
0
VERTEX
8
TopMetal
10
434
20
2183.221
0
VERTEX
8
TopMetal
10
424
20
2183.221
0
VERTEX
8
TopMetal
10
424
20
4744
0
VERTEX
8
TopMetal
10
414
20
4744
0
VERTEX
8
TopMetal
10
414
20
2183.221
0
VERTEX
8
TopMetal
10
404
20
2183.221
0
VERTEX
8
TopMetal
10
404
20
4744
0
VERTEX
8
TopMetal
10
394
20
4744
0
VERTEX
8
TopMetal
10
394
20
2183.221
0
VERTEX
8
TopMetal
10
384
20
2183.221
0
VERTEX
8
TopMetal
10
384
20
4744
0
VERTEX
8
TopMetal
10
374
20
4744
0
VERTEX
8
TopMetal
10
374
20
2183.221
0
VERTEX
8
TopMetal
10
364
20
2183.221
0
VERTEX
8
TopMetal
10
364
20
4744
0
VERTEX
8
TopMetal
10
354
20
4744
0
VERTEX
8
TopMetal
10
354
20
2183.221
0
VERTEX
8
TopMetal
10
344
20
2183.221
0
VERTEX
8
TopMetal
10
344
20
4744
0
VERTEX
8
TopMetal
10
334
20
4744
0
VERTEX
8
TopMetal
10
334
20
2183.221
0
VERTEX
8
TopMetal
10
324
20
2183.221
0
VERTEX
8
TopMetal
10
324
20
4744
0
VERTEX
8
TopMetal
10
314
20
4744
0
VERTEX
8
TopMetal
10
314
20
2183.221
0
VERTEX
8
TopMetal
10
304
20
2183.221
0
VERTEX
8
TopMetal
10
304
20
4744
0
VERTEX
8
TopMetal
10
294
20
4744
0
VERTEX
8
TopMetal
10
294
20
2183.221
0
VERTEX
8
TopMetal
10
284
20
2183.221
0
VERTEX
8
TopMetal
10
284
20
4744
0
VERTEX
8
TopMetal
10
274
20
4744
0
VERTEX
8
TopMetal
10
274
20
2183.221
0
VERTEX
8
TopMetal
10
264
20
2183.221
0
VERTEX
8
TopMetal
10
264
20
4744
0
VERTEX
8
TopMetal
10
254
20
4744
0
VERTEX
8
TopMetal
10
254
20
2183.221
0
VERTEX
8
TopMetal
10
244
20
2183.221
0
VERTEX
8
TopMetal
10
244
20
4744
0
VERTEX
8
TopMetal
10
234
20
4744
0
VERTEX
8
TopMetal
10
234
20
2183.221
0
VERTEX
8
TopMetal
10
224
20
2183.221
0
VERTEX
8
TopMetal
10
224
20
4744
0
VERTEX
8
TopMetal
10
214
20
4744
0
VERTEX
8
TopMetal
10
214
20
2183.221
0
VERTEX
8
TopMetal
10
204
20
2183.221
0
VERTEX
8
TopMetal
10
204
20
4744
0
VERTEX
8
TopMetal
10
194
20
4744
0
VERTEX
8
TopMetal
10
194
20
2183.221
0
VERTEX
8
TopMetal
10
184
20
2183.221
0
VERTEX
8
TopMetal
10
184
20
4744
0
VERTEX
8
TopMetal
10
174
20
4744
0
VERTEX
8
TopMetal
10
174
20
2183.221
0
VERTEX
8
TopMetal
10
164
20
2183.221
0
VERTEX
8
TopMetal
10
164
20
4744
0
VERTEX
8
TopMetal
10
154
20
4744
0
VERTEX
8
TopMetal
10
154
20
2183.221
0
VERTEX
8
TopMetal
10
144
20
2183.221
0
VERTEX
8
TopMetal
10
144
20
4744
0
VERTEX
8
TopMetal
10
134
20
4744
0
VERTEX
8
TopMetal
10
134
20
2183.221
0
VERTEX
8
TopMetal
10
124
20
2183.221
0
VERTEX
8
TopMetal
10
124
20
4744
0
VERTEX
8
TopMetal
10
114
20
4744
0
VERTEX
8
TopMetal
10
114
20
2183.221
0
VERTEX
8
TopMetal
10
104
20
2183.221
0
VERTEX
8
TopMetal
10
104
20
4744
0
VERTEX
8
TopMetal
10
94
20
4744
0
VERTEX
8
TopMetal
10
94
20
2183.221
0
VERTEX
8
TopMetal
10
84
20
2183.221
0
VERTEX
8
TopMetal
10
84
20
4744
0
VERTEX
8
TopMetal
10
74
20
4744
0
VERTEX
8
TopMetal
10
74
20
2183.221
0
VERTEX
8
TopMetal
10
64
20
2183.221
0
VERTEX
8
TopMetal
10
64
20
4744
0
VERTEX
8
TopMetal
10
54
20
4744
0
VERTEX
8
TopMetal
10
54
20
2183.221
0
VERTEX
8
TopMetal
10
44
20
2183.221
0
VERTEX
8
TopMetal
10
44
20
4744
0
VERTEX
8
TopMetal
10
34
20
4744
0
VERTEX
8
TopMetal
10
34
20
2183.221
0
VERTEX
8
TopMetal
10
24
20
2183.221
0
VERTEX
8
TopMetal
10
24
20
4744
0
VERTEX
8
TopMetal
10
14
20
4744
0
VERTEX
8
TopMetal
10
14
20
2183.221
0
VERTEX
8
TopMetal
10
4
20
2183.221
0
VERTEX
8
TopMetal
10
4
20
4744
0
VERTEX
8
TopMetal
10
-6
20
4744
0
VERTEX
8
TopMetal
10
-6
20
2183.221
0
VERTEX
8
TopMetal
10
-16
20
2183.221
0
VERTEX
8
TopMetal
10
-16
20
4744
0
VERTEX
8
TopMetal
10
-26
20
4744
0
VERTEX
8
TopMetal
10
-26
20
2183.221
0
VERTEX
8
TopMetal
10
-36
20
2183.221
0
VERTEX
8
TopMetal
10
-36
20
4744
0
VERTEX
8
TopMetal
10
-46
20
4744
0
VERTEX
8
TopMetal
10
-46
20
2183.221
0
VERTEX
8
TopMetal
10
-56
20
2183.221
0
VERTEX
8
TopMetal
10
-56
20
4744
0
VERTEX
8
TopMetal
10
-66
20
4744
0
VERTEX
8
TopMetal
10
-66
20
2183.221
0
VERTEX
8
TopMetal
10
-76
20
2183.221
0
VERTEX
8
TopMetal
10
-76
20
4744
0
VERTEX
8
TopMetal
10
-86
20
4744
0
VERTEX
8
TopMetal
10
-86
20
2183.221
0
VERTEX
8
TopMetal
10
-96
20
2183.221
0
VERTEX
8
TopMetal
10
-96
20
4744
0
VERTEX
8
TopMetal
10
-106
20
4744
0
VERTEX
8
TopMetal
10
-106
20
2183.221
0
VERTEX
8
TopMetal
10
-116
20
2183.221
0
VERTEX
8
TopMetal
10
-116
20
4744
0
VERTEX
8
TopMetal
10
-126
20
4744
0
VERTEX
8
TopMetal
10
-126
20
2183.221
0
VERTEX
8
TopMetal
10
-136
20
2183.221
0
VERTEX
8
TopMetal
10
-136
20
4744
0
VERTEX
8
TopMetal
10
-146
20
4744
0
VERTEX
8
TopMetal
10
-146
20
2183.221
0
VERTEX
8
TopMetal
10
-156
20
2183.221
0
VERTEX
8
TopMetal
10
-156
20
4744
0
VERTEX
8
TopMetal
10
-166
20
4744
0
VERTEX
8
TopMetal
10
-166
20
2183.221
0
VERTEX
8
TopMetal
10
-176
20
2183.221
0
VERTEX
8
TopMetal
10
-176
20
4744
0
VERTEX
8
TopMetal
10
-186
20
4744
0
VERTEX
8
TopMetal
10
-186
20
2183.221
0
VERTEX
8
TopMetal
10
-196
20
2183.221
0
VERTEX
8
TopMetal
10
-196
20
4744
0
VERTEX
8
TopMetal
10
-206
20
4744
0
VERTEX
8
TopMetal
10
-206
20
2183.221
0
VERTEX
8
TopMetal
10
-216
20
2183.221
0
VERTEX
8
TopMetal
10
-216
20
4744
0
VERTEX
8
TopMetal
10
-226
20
4744
0
VERTEX
8
TopMetal
10
-226
20
2183.221
0
VERTEX
8
TopMetal
10
-236
20
2183.221
0
VERTEX
8
TopMetal
10
-236
20
4744
0
VERTEX
8
TopMetal
10
-246
20
4744
0
VERTEX
8
TopMetal
10
-246
20
2183.221
0
VERTEX
8
TopMetal
10
-256
20
2183.221
0
VERTEX
8
TopMetal
10
-256
20
4744
0
VERTEX
8
TopMetal
10
-266
20
4744
0
VERTEX
8
TopMetal
10
-266
20
2183.221
0
VERTEX
8
TopMetal
10
-276
20
2183.221
0
VERTEX
8
TopMetal
10
-276
20
4744
0
VERTEX
8
TopMetal
10
-286
20
4744
0
VERTEX
8
TopMetal
10
-286
20
2183.221
0
VERTEX
8
TopMetal
10
-296
20
2183.221
0
VERTEX
8
TopMetal
10
-296
20
4744
0
VERTEX
8
TopMetal
10
-306
20
4744
0
VERTEX
8
TopMetal
10
-306
20
2183.221
0
VERTEX
8
TopMetal
10
-316
20
2183.221
0
VERTEX
8
TopMetal
10
-316
20
4744
0
VERTEX
8
TopMetal
10
-326
20
4744
0
VERTEX
8
TopMetal
10
-326
20
2183.221
0
VERTEX
8
TopMetal
10
-336
20
2183.221
0
VERTEX
8
TopMetal
10
-336
20
4744
0
VERTEX
8
TopMetal
10
-346
20
4744
0
VERTEX
8
TopMetal
10
-346
20
2183.221
0
VERTEX
8
TopMetal
10
-356
20
2183.221
0
VERTEX
8
TopMetal
10
-356
20
4744
0
VERTEX
8
TopMetal
10
-366
20
4744
0
VERTEX
8
TopMetal
10
-366
20
2183.221
0
VERTEX
8
TopMetal
10
-376
20
2183.221
0
VERTEX
8
TopMetal
10
-376
20
4744
0
VERTEX
8
TopMetal
10
-386
20
4744
0
VERTEX
8
TopMetal
10
-386
20
2183.221
0
VERTEX
8
TopMetal
10
-396
20
2183.221
0
VERTEX
8
TopMetal
10
-396
20
4744
0
VERTEX
8
TopMetal
10
-406
20
4744
0
VERTEX
8
TopMetal
10
-406
20
2183.221
0
VERTEX
8
TopMetal
10
-416
20
2183.221
0
VERTEX
8
TopMetal
10
-416
20
4744
0
VERTEX
8
TopMetal
10
-426
20
4744
0
VERTEX
8
TopMetal
10
-426
20
2183.221
0
VERTEX
8
TopMetal
10
-436
20
2183.221
0
VERTEX
8
TopMetal
10
-436
20
4744
0
VERTEX
8
TopMetal
10
-446
20
4744
0
VERTEX
8
TopMetal
10
-446
20
2183.221
0
VERTEX
8
TopMetal
10
-456
20
2183.221
0
VERTEX
8
TopMetal
10
-456
20
4744
0
VERTEX
8
TopMetal
10
-466
20
4744
0
VERTEX
8
TopMetal
10
-466
20
2183.221
0
VERTEX
8
TopMetal
10
-476
20
2183.221
0
VERTEX
8
TopMetal
10
-476
20
4744
0
VERTEX
8
TopMetal
10
-486
20
4744
0
VERTEX
8
TopMetal
10
-486
20
2183.221
0
VERTEX
8
TopMetal
10
-496
20
2183.221
0
VERTEX
8
TopMetal
10
-496
20
4744
0
VERTEX
8
TopMetal
10
-506
20
4744
0
VERTEX
8
TopMetal
10
-506
20
2183.221
0
VERTEX
8
TopMetal
10
-516
20
2183.221
0
VERTEX
8
TopMetal
10
-516
20
4744
0
VERTEX
8
TopMetal
10
-526
20
4744
0
VERTEX
8
TopMetal
10
-526
20
2183.221
0
VERTEX
8
TopMetal
10
-536
20
2183.221
0
VERTEX
8
TopMetal
10
-536
20
4744
0
VERTEX
8
TopMetal
10
-546
20
4744
0
VERTEX
8
TopMetal
10
-546
20
2183.221
0
VERTEX
8
TopMetal
10
-556
20
2183.221
0
VERTEX
8
TopMetal
10
-556
20
4744
0
VERTEX
8
TopMetal
10
-566
20
4744
0
VERTEX
8
TopMetal
10
-566
20
2183.221
0
VERTEX
8
TopMetal
10
-576
20
2183.221
0
VERTEX
8
TopMetal
10
-576
20
4744
0
VERTEX
8
TopMetal
10
-586
20
4744
0
VERTEX
8
TopMetal
10
-586
20
2183.221
0
VERTEX
8
TopMetal
10
-596
20
2183.221
0
VERTEX
8
TopMetal
10
-596
20
4744
0
VERTEX
8
TopMetal
10
-606
20
4744
0
VERTEX
8
TopMetal
10
-606
20
2183.221
0
VERTEX
8
TopMetal
10
-616
20
2183.221
0
VERTEX
8
TopMetal
10
-616
20
4744
0
VERTEX
8
TopMetal
10
-626
20
4744
0
VERTEX
8
TopMetal
10
-626
20
2183.221
0
VERTEX
8
TopMetal
10
-636
20
2183.221
0
VERTEX
8
TopMetal
10
-636
20
4744
0
VERTEX
8
TopMetal
10
-646
20
4744
0
VERTEX
8
TopMetal
10
-646
20
2183.221
0
VERTEX
8
TopMetal
10
-656
20
2183.221
0
VERTEX
8
TopMetal
10
-656
20
4744
0
VERTEX
8
TopMetal
10
-666
20
4744
0
VERTEX
8
TopMetal
10
-666
20
2183.221
0
VERTEX
8
TopMetal
10
-676
20
2183.221
0
VERTEX
8
TopMetal
10
-676
20
4744
0
VERTEX
8
TopMetal
10
-686
20
4744
0
VERTEX
8
TopMetal
10
-686
20
2183.221
0
VERTEX
8
TopMetal
10
-696
20
2183.221
0
VERTEX
8
TopMetal
10
-696
20
4744
0
VERTEX
8
TopMetal
10
-706
20
4744
0
VERTEX
8
TopMetal
10
-706
20
2183.221
0
VERTEX
8
TopMetal
10
-716
20
2183.221
0
VERTEX
8
TopMetal
10
-716
20
4744
0
VERTEX
8
TopMetal
10
-726
20
4744
0
VERTEX
8
TopMetal
10
-726
20
2183.221
0
VERTEX
8
TopMetal
10
-736
20
2183.221
0
VERTEX
8
TopMetal
10
-736
20
4744
0
VERTEX
8
TopMetal
10
-746
20
4744
0
VERTEX
8
TopMetal
10
-746
20
2183.221
0
VERTEX
8
TopMetal
10
-756
20
2183.221
0
VERTEX
8
TopMetal
10
-756
20
4744
0
VERTEX
8
TopMetal
10
-766
20
4744
0
VERTEX
8
TopMetal
10
-766
20
2183.221
0
VERTEX
8
TopMetal
10
-776
20
2183.221
0
VERTEX
8
TopMetal
10
-776
20
4744
0
VERTEX
8
TopMetal
10
-786
20
4744
0
VERTEX
8
TopMetal
10
-786
20
2183.221
0
VERTEX
8
TopMetal
10
-796
20
2183.221
0
VERTEX
8
TopMetal
10
-796
20
4744
0
VERTEX
8
TopMetal
10
-806
20
4744
0
VERTEX
8
TopMetal
10
-806
20
2183.221
0
VERTEX
8
TopMetal
10
-816
20
2183.221
0
VERTEX
8
TopMetal
10
-816
20
4744
0
VERTEX
8
TopMetal
10
-826
20
4744
0
VERTEX
8
TopMetal
10
-826
20
2183.221
0
VERTEX
8
TopMetal
10
-836
20
2183.221
0
VERTEX
8
TopMetal
10
-836
20
4744
0
VERTEX
8
TopMetal
10
-846
20
4744
0
VERTEX
8
TopMetal
10
-846
20
2183.221
0
VERTEX
8
TopMetal
10
-856
20
2183.221
0
VERTEX
8
TopMetal
10
-856
20
4744
0
VERTEX
8
TopMetal
10
-866
20
4744
0
VERTEX
8
TopMetal
10
-866
20
2183.221
0
VERTEX
8
TopMetal
10
-876
20
2183.221
0
VERTEX
8
TopMetal
10
-876
20
4744
0
VERTEX
8
TopMetal
10
-886
20
4744
0
VERTEX
8
TopMetal
10
-886
20
2183.221
0
VERTEX
8
TopMetal
10
-896
20
2183.221
0
VERTEX
8
TopMetal
10
-896
20
4744
0
VERTEX
8
TopMetal
10
-906
20
4744
0
VERTEX
8
TopMetal
10
-906
20
2183.221
0
VERTEX
8
TopMetal
10
-916
20
2183.221
0
VERTEX
8
TopMetal
10
-916
20
4744
0
VERTEX
8
TopMetal
10
-926
20
4744
0
VERTEX
8
TopMetal
10
-926
20
2183.221
0
VERTEX
8
TopMetal
10
-936
20
2183.221
0
VERTEX
8
TopMetal
10
-936
20
4744
0
VERTEX
8
TopMetal
10
-946
20
4744
0
VERTEX
8
TopMetal
10
-946
20
2183.221
0
VERTEX
8
TopMetal
10
-956
20
2183.221
0
VERTEX
8
TopMetal
10
-956
20
4744
0
VERTEX
8
TopMetal
10
-966
20
4744
0
VERTEX
8
TopMetal
10
-966
20
2183.221
0
VERTEX
8
TopMetal
10
-976
20
2183.221
0
VERTEX
8
TopMetal
10
-976
20
4744
0
VERTEX
8
TopMetal
10
-986
20
4744
0
VERTEX
8
TopMetal
10
-986
20
2183.221
0
VERTEX
8
TopMetal
10
-996
20
2183.221
0
VERTEX
8
TopMetal
10
-996
20
4744
0
VERTEX
8
TopMetal
10
-1006
20
4744
0
VERTEX
8
TopMetal
10
-1006
20
2183.221
0
VERTEX
8
TopMetal
10
-1016
20
2183.221
0
VERTEX
8
TopMetal
10
-1016
20
4744
0
VERTEX
8
TopMetal
10
-1026
20
4744
0
VERTEX
8
TopMetal
10
-1026
20
2183.221
0
VERTEX
8
TopMetal
10
-1036
20
2183.221
0
VERTEX
8
TopMetal
10
-1036
20
4744
0
VERTEX
8
TopMetal
10
-1046
20
4744
0
VERTEX
8
TopMetal
10
-1046
20
2183.221
0
VERTEX
8
TopMetal
10
-1056
20
2183.221
0
VERTEX
8
TopMetal
10
-1056
20
4744
0
VERTEX
8
TopMetal
10
-1066
20
4744
0
VERTEX
8
TopMetal
10
-1066
20
2183.221
0
VERTEX
8
TopMetal
10
-1076
20
2183.221
0
VERTEX
8
TopMetal
10
-1076
20
4744
0
VERTEX
8
TopMetal
10
-1086
20
4744
0
VERTEX
8
TopMetal
10
-1086
20
2183.221
0
VERTEX
8
TopMetal
10
-1096
20
2183.221
0
VERTEX
8
TopMetal
10
-1096
20
4744
0
VERTEX
8
TopMetal
10
-1106
20
4744
0
VERTEX
8
TopMetal
10
-1106
20
2183.221
0
VERTEX
8
TopMetal
10
-1116
20
2183.221
0
VERTEX
8
TopMetal
10
-1116
20
4744
0
VERTEX
8
TopMetal
10
-1126
20
4744
0
VERTEX
8
TopMetal
10
-1126
20
2183.221
0
VERTEX
8
TopMetal
10
-1136
20
2183.221
0
VERTEX
8
TopMetal
10
-1136
20
4744
0
VERTEX
8
TopMetal
10
-1146
20
4744
0
VERTEX
8
TopMetal
10
-1146
20
2183.221
0
VERTEX
8
TopMetal
10
-1156
20
2183.221
0
VERTEX
8
TopMetal
10
-1156
20
4744
0
VERTEX
8
TopMetal
10
-1166
20
4744
0
VERTEX
8
TopMetal
10
-1166
20
2183.221
0
VERTEX
8
TopMetal
10
-1176
20
2183.221
0
VERTEX
8
TopMetal
10
-1176
20
4744
0
VERTEX
8
TopMetal
10
-1186
20
4744
0
VERTEX
8
TopMetal
10
-1186
20
2183.221
0
VERTEX
8
TopMetal
10
-1196
20
2183.221
0
VERTEX
8
TopMetal
10
-1196
20
4744
0
VERTEX
8
TopMetal
10
-1206
20
4744
0
VERTEX
8
TopMetal
10
-1206
20
2183.221
0
VERTEX
8
TopMetal
10
-1216
20
2183.221
0
VERTEX
8
TopMetal
10
-1216
20
4744
0
VERTEX
8
TopMetal
10
-1226
20
4744
0
VERTEX
8
TopMetal
10
-1226
20
2183.221
0
VERTEX
8
TopMetal
10
-1236
20
2183.221
0
VERTEX
8
TopMetal
10
-1236
20
4744
0
VERTEX
8
TopMetal
10
-1246
20
4744
0
VERTEX
8
TopMetal
10
-1246
20
2183.221
0
VERTEX
8
TopMetal
10
-1256
20
2183.221
0
VERTEX
8
TopMetal
10
-1256
20
4744
0
VERTEX
8
TopMetal
10
-1266
20
4744
0
VERTEX
8
TopMetal
10
-1266
20
2183.221
0
VERTEX
8
TopMetal
10
-1276
20
2183.221
0
VERTEX
8
TopMetal
10
-1276
20
4744
0
VERTEX
8
TopMetal
10
-1286
20
4744
0
VERTEX
8
TopMetal
10
-1286
20
2183.221
0
VERTEX
8
TopMetal
10
-1296
20
2183.221
0
VERTEX
8
TopMetal
10
-1296
20
4744
0
VERTEX
8
TopMetal
10
-1306
20
4744
0
VERTEX
8
TopMetal
10
-1306
20
2183.221
0
VERTEX
8
TopMetal
10
-1316
20
2183.221
0
VERTEX
8
TopMetal
10
-1316
20
4744
0
VERTEX
8
TopMetal
10
-1326
20
4744
0
VERTEX
8
TopMetal
10
-1326
20
2183.221
0
VERTEX
8
TopMetal
10
-1336
20
2183.221
0
VERTEX
8
TopMetal
10
-1336
20
4744
0
VERTEX
8
TopMetal
10
-1346
20
4744
0
VERTEX
8
TopMetal
10
-1346
20
2183.221
0
VERTEX
8
TopMetal
10
-1356
20
2183.221
0
VERTEX
8
TopMetal
10
-1356
20
4744
0
VERTEX
8
TopMetal
10
-1366
20
4744
0
VERTEX
8
TopMetal
10
-1366
20
2183.221
0
VERTEX
8
TopMetal
10
-1376
20
2183.221
0
VERTEX
8
TopMetal
10
-1376
20
4744
0
VERTEX
8
TopMetal
10
-1386
20
4744
0
VERTEX
8
TopMetal
10
-1386
20
2183.221
0
VERTEX
8
TopMetal
10
-1396
20
2183.221
0
VERTEX
8
TopMetal
10
-1396
20
4744
0
VERTEX
8
TopMetal
10
-1406
20
4744
0
VERTEX
8
TopMetal
10
-1406
20
2183.221
0
VERTEX
8
TopMetal
10
-1416
20
2183.221
0
VERTEX
8
TopMetal
10
-1416
20
4744
0
VERTEX
8
TopMetal
10
-1426
20
4744
0
VERTEX
8
TopMetal
10
-1426
20
2183.221
0
VERTEX
8
TopMetal
10
-1436
20
2183.221
0
VERTEX
8
TopMetal
10
-1436
20
4744
0
VERTEX
8
TopMetal
10
-1446
20
4744
0
VERTEX
8
TopMetal
10
-1446
20
2183.221
0
VERTEX
8
TopMetal
10
-1456
20
2183.221
0
VERTEX
8
TopMetal
10
-1456
20
4744
0
VERTEX
8
TopMetal
10
-1466
20
4744
0
VERTEX
8
TopMetal
10
-1466
20
2183.221
0
VERTEX
8
TopMetal
10
-1476
20
2183.221
0
VERTEX
8
TopMetal
10
-1476
20
4744
0
VERTEX
8
TopMetal
10
-1486
20
4744
0
VERTEX
8
TopMetal
10
-1486
20
2183.221
0
VERTEX
8
TopMetal
10
-1496
20
2183.221
0
VERTEX
8
TopMetal
10
-1496
20
4744
0
VERTEX
8
TopMetal
10
-1506
20
4744
0
VERTEX
8
TopMetal
10
-1506
20
2183.221
0
VERTEX
8
TopMetal
10
-1516
20
2183.221
0
VERTEX
8
TopMetal
10
-1516
20
4744
0
VERTEX
8
TopMetal
10
-1526
20
4744
0
VERTEX
8
TopMetal
10
-1526
20
2183.221
0
VERTEX
8
TopMetal
10
-1536
20
2183.221
0
VERTEX
8
TopMetal
10
-1536
20
4744
0
VERTEX
8
TopMetal
10
-1546
20
4744
0
VERTEX
8
TopMetal
10
-1546
20
2183.221
0
VERTEX
8
TopMetal
10
-1556
20
2183.221
0
VERTEX
8
TopMetal
10
-1556
20
4744
0
VERTEX
8
TopMetal
10
-1566
20
4744
0
VERTEX
8
TopMetal
10
-1566
20
2183.221
0
VERTEX
8
TopMetal
10
-1576
20
2183.221
0
VERTEX
8
TopMetal
10
-1576
20
4744
0
VERTEX
8
TopMetal
10
-1586
20
4744
0
VERTEX
8
TopMetal
10
-1586
20
2183.221
0
VERTEX
8
TopMetal
10
-1596
20
2183.221
0
VERTEX
8
TopMetal
10
-1596
20
4744
0
VERTEX
8
TopMetal
10
-1606
20
4744
0
VERTEX
8
TopMetal
10
-1606
20
2183.221
0
VERTEX
8
TopMetal
10
-1616
20
2183.221
0
VERTEX
8
TopMetal
10
-1616
20
4744
0
VERTEX
8
TopMetal
10
-1626
20
4744
0
VERTEX
8
TopMetal
10
-1626
20
2183.221
0
VERTEX
8
TopMetal
10
-1636
20
2183.221
0
VERTEX
8
TopMetal
10
-1636
20
4744
0
VERTEX
8
TopMetal
10
-1646
20
4744
0
VERTEX
8
TopMetal
10
-1646
20
2183.221
0
VERTEX
8
TopMetal
10
-1656
20
2183.221
0
VERTEX
8
TopMetal
10
-1656
20
4744
0
VERTEX
8
TopMetal
10
-1666
20
4744
0
VERTEX
8
TopMetal
10
-1666
20
2183.221
0
VERTEX
8
TopMetal
10
-1676
20
2183.221
0
VERTEX
8
TopMetal
10
-1676
20
4744
0
VERTEX
8
TopMetal
10
-1686
20
4744
0
VERTEX
8
TopMetal
10
-1686
20
2183.221
0
VERTEX
8
TopMetal
10
-1696
20
2183.221
0
VERTEX
8
TopMetal
10
-1696
20
4744
0
VERTEX
8
TopMetal
10
-1706
20
4744
0
VERTEX
8
TopMetal
10
-1706
20
2183.221
0
VERTEX
8
TopMetal
10
-1716
20
2183.221
0
VERTEX
8
TopMetal
10
-1716
20
4744
0
VERTEX
8
TopMetal
10
-1726
20
4744
0
VERTEX
8
TopMetal
10
-1726
20
2183.221
0
VERTEX
8
TopMetal
10
-1736
20
2183.221
0
VERTEX
8
TopMetal
10
-1736
20
4744
0
VERTEX
8
TopMetal
10
-1746
20
4744
0
VERTEX
8
TopMetal
10
-1746
20
2183.221
0
VERTEX
8
TopMetal
10
-1756
20
2183.221
0
VERTEX
8
TopMetal
10
-1756
20
4744
0
VERTEX
8
TopMetal
10
-1766
20
4744
0
VERTEX
8
TopMetal
10
-1766
20
2183.221
0
VERTEX
8
TopMetal
10
-1776
20
2183.221
0
VERTEX
8
TopMetal
10
-1776
20
4744
0
VERTEX
8
TopMetal
10
-1786
20
4744
0
VERTEX
8
TopMetal
10
-1786
20
2183.221
0
VERTEX
8
TopMetal
10
-1796
20
2183.221
0
VERTEX
8
TopMetal
10
-1796
20
4744
0
VERTEX
8
TopMetal
10
-1806
20
4744
0
VERTEX
8
TopMetal
10
-1806
20
2183.221
0
VERTEX
8
TopMetal
10
-1816
20
2183.221
0
VERTEX
8
TopMetal
10
-1816
20
4744
0
VERTEX
8
TopMetal
10
-1826
20
4744
0
VERTEX
8
TopMetal
10
-1826
20
2183.221
0
VERTEX
8
TopMetal
10
-1836
20
2183.221
0
VERTEX
8
TopMetal
10
-1836
20
4744
0
VERTEX
8
TopMetal
10
-1846
20
4744
0
VERTEX
8
TopMetal
10
-1846
20
2183.221
0
VERTEX
8
TopMetal
10
-1856
20
2183.221
0
VERTEX
8
TopMetal
10
-1856
20
4744
0
VERTEX
8
TopMetal
10
-1866
20
4744
0
VERTEX
8
TopMetal
10
-1866
20
2183.221
0
VERTEX
8
TopMetal
10
-1876
20
2183.221
0
VERTEX
8
TopMetal
10
-1876
20
4744
0
VERTEX
8
TopMetal
10
-1886
20
4744
0
VERTEX
8
TopMetal
10
-1886
20
2183.221
0
VERTEX
8
TopMetal
10
-1896
20
2183.221
0
VERTEX
8
TopMetal
10
-1896
20
4744
0
VERTEX
8
TopMetal
10
-1906
20
4744
0
VERTEX
8
TopMetal
10
-1906
20
2183.221
0
VERTEX
8
TopMetal
10
-1916
20
2183.221
0
VERTEX
8
TopMetal
10
-1916
20
4744
0
VERTEX
8
TopMetal
10
-1926
20
4744
0
VERTEX
8
TopMetal
10
-1926
20
2183.221
0
VERTEX
8
TopMetal
10
-1936
20
2183.221
0
VERTEX
8
TopMetal
10
-1936
20
4744
0
VERTEX
8
TopMetal
10
-1946
20
4744
0
VERTEX
8
TopMetal
10
-1946
20
2183.221
0
VERTEX
8
TopMetal
10
-1956
20
2183.221
0
VERTEX
8
TopMetal
10
-1956
20
4744
0
VERTEX
8
TopMetal
10
-1966
20
4744
0
VERTEX
8
TopMetal
10
-1966
20
2183.221
0
VERTEX
8
TopMetal
10
-1976
20
2183.221
0
VERTEX
8
TopMetal
10
-1976
20
4744
0
VERTEX
8
TopMetal
10
-1986
20
4744
0
VERTEX
8
TopMetal
10
-1986
20
2183.221
0
VERTEX
8
TopMetal
10
-1996
20
2183.221
0
VERTEX
8
TopMetal
10
-1996
20
4744
0
VERTEX
8
TopMetal
10
-2006
20
4744
0
VERTEX
8
TopMetal
10
-2006
20
2183.221
0
VERTEX
8
TopMetal
10
-2016
20
2183.221
0
VERTEX
8
TopMetal
10
-2016
20
4744
0
VERTEX
8
TopMetal
10
-2026
20
4744
0
VERTEX
8
TopMetal
10
-2026
20
2183.221
0
VERTEX
8
TopMetal
10
-2036
20
2183.221
0
VERTEX
8
TopMetal
10
-2036
20
4744
0
VERTEX
8
TopMetal
10
-2046
20
4744
0
VERTEX
8
TopMetal
10
-2046
20
2183.221
0
VERTEX
8
TopMetal
10
-2056
20
2183.221
0
VERTEX
8
TopMetal
10
-2056
20
4744
0
VERTEX
8
TopMetal
10
-2066
20
4744
0
VERTEX
8
TopMetal
10
-2066
20
2183.221
0
VERTEX
8
TopMetal
10
-2076
20
2183.221
0
VERTEX
8
TopMetal
10
-2076
20
4744
0
VERTEX
8
TopMetal
10
-2086
20
4744
0
VERTEX
8
TopMetal
10
-2086
20
2183.221
0
VERTEX
8
TopMetal
10
-2096
20
2183.221
0
VERTEX
8
TopMetal
10
-2096
20
4744
0
VERTEX
8
TopMetal
10
-2106
20
4744
0
VERTEX
8
TopMetal
10
-2106
20
2183.221
0
VERTEX
8
TopMetal
10
-2116
20
2183.221
0
VERTEX
8
TopMetal
10
-2116
20
4744
0
VERTEX
8
TopMetal
10
-2126
20
4744
0
VERTEX
8
TopMetal
10
-2126
20
2183.221
0
VERTEX
8
TopMetal
10
-2136
20
2183.221
0
VERTEX
8
TopMetal
10
-2136
20
4744
0
VERTEX
8
TopMetal
10
-2146
20
4744
0
VERTEX
8
TopMetal
10
-2146
20
2183.221
0
VERTEX
8
TopMetal
10
-2156
20
2183.221
0
VERTEX
8
TopMetal
10
-2156
20
4744
0
VERTEX
8
TopMetal
10
-2166
20
4744
0
VERTEX
8
TopMetal
10
-2166
20
2183.221
0
VERTEX
8
TopMetal
10
-2176
20
2183.221
0
VERTEX
8
TopMetal
10
-2176
20
4744
0
VERTEX
8
TopMetal
10
-2186
20
4744
0
VERTEX
8
TopMetal
10
-2186
20
2183.221
0
VERTEX
8
TopMetal
10
-2196
20
2183.221
0
VERTEX
8
TopMetal
10
-2196
20
4744
0
VERTEX
8
TopMetal
10
-2206
20
4744
0
VERTEX
8
TopMetal
10
-2206
20
2183.221
0
VERTEX
8
TopMetal
10
-2216
20
2183.221
0
VERTEX
8
TopMetal
10
-2216
20
4744
0
VERTEX
8
TopMetal
10
-2226
20
4744
0
VERTEX
8
TopMetal
10
-2226
20
2183.221
0
VERTEX
8
TopMetal
10
-2236
20
2183.221
0
VERTEX
8
TopMetal
10
-2236
20
4744
0
VERTEX
8
TopMetal
10
-2246
20
4744
0
VERTEX
8
TopMetal
10
-2246
20
2183.221
0
VERTEX
8
TopMetal
10
-2256
20
2183.221
0
VERTEX
8
TopMetal
10
-2256
20
4744
0
VERTEX
8
TopMetal
10
-2266
20
4744
0
VERTEX
8
TopMetal
10
-2266
20
2183.221
0
VERTEX
8
TopMetal
10
-2276
20
2183.221
0
VERTEX
8
TopMetal
10
-2276
20
4744
0
VERTEX
8
TopMetal
10
-2286
20
4744
0
VERTEX
8
TopMetal
10
-2286
20
2173.221
0
VERTEX
8
TopMetal
10
-6
20
2173.221
0
VERTEX
8
TopMetal
10
-6
20
1964
0
VERTEX
8
TopMetal
10
-13.5
20
1894
0
SEQEND
0
POLYLINE
8
TopMetal
70
1
40
0
41
0
66
1
0
VERTEX
8
TopMetal
10
-2400
20
-9000
0
VERTEX
8
TopMetal
10
-2400
20
-2069
0
VERTEX
8
TopMetal
10
-18
20
-2069
0
VERTEX
8
TopMetal
10
-18
20
-1964
0
VERTEX
8
TopMetal
10
-15.5
20
-1894
0
VERTEX
8
TopMetal
10
-13.5
20
-1894
0
VERTEX
8
TopMetal
10
-6
20
-1964
0
VERTEX
8
TopMetal
10
-6
20
-2173.221
0
VERTEX
8
TopMetal
10
-2286
20
-2173.221
0
VERTEX
8
TopMetal
10
-2286
20
-4744
0
VERTEX
8
TopMetal
10
-2276
20
-4744
0
VERTEX
8
TopMetal
10
-2276
20
-2183.221
0
VERTEX
8
TopMetal
10
-2266
20
-2183.221
0
VERTEX
8
TopMetal
10
-2266
20
-4744
0
VERTEX
8
TopMetal
10
-2256
20
-4744
0
VERTEX
8
TopMetal
10
-2256
20
-2183.221
0
VERTEX
8
TopMetal
10
-2246
20
-2183.221
0
VERTEX
8
TopMetal
10
-2246
20
-4744
0
VERTEX
8
TopMetal
10
-2236
20
-4744
0
VERTEX
8
TopMetal
10
-2236
20
-2183.221
0
VERTEX
8
TopMetal
10
-2226
20
-2183.221
0
VERTEX
8
TopMetal
10
-2226
20
-4744
0
VERTEX
8
TopMetal
10
-2216
20
-4744
0
VERTEX
8
TopMetal
10
-2216
20
-2183.221
0
VERTEX
8
TopMetal
10
-2206
20
-2183.221
0
VERTEX
8
TopMetal
10
-2206
20
-4744
0
VERTEX
8
TopMetal
10
-2196
20
-4744
0
VERTEX
8
TopMetal
10
-2196
20
-2183.221
0
VERTEX
8
TopMetal
10
-2186
20
-2183.221
0
VERTEX
8
TopMetal
10
-2186
20
-4744
0
VERTEX
8
TopMetal
10
-2176
20
-4744
0
VERTEX
8
TopMetal
10
-2176
20
-2183.221
0
VERTEX
8
TopMetal
10
-2166
20
-2183.221
0
VERTEX
8
TopMetal
10
-2166
20
-4744
0
VERTEX
8
TopMetal
10
-2156
20
-4744
0
VERTEX
8
TopMetal
10
-2156
20
-2183.221
0
VERTEX
8
TopMetal
10
-2146
20
-2183.221
0
VERTEX
8
TopMetal
10
-2146
20
-4744
0
VERTEX
8
TopMetal
10
-2136
20
-4744
0
VERTEX
8
TopMetal
10
-2136
20
-2183.221
0
VERTEX
8
TopMetal
10
-2126
20
-2183.221
0
VERTEX
8
TopMetal
10
-2126
20
-4744
0
VERTEX
8
TopMetal
10
-2116
20
-4744
0
VERTEX
8
TopMetal
10
-2116
20
-2183.221
0
VERTEX
8
TopMetal
10
-2106
20
-2183.221
0
VERTEX
8
TopMetal
10
-2106
20
-4744
0
VERTEX
8
TopMetal
10
-2096
20
-4744
0
VERTEX
8
TopMetal
10
-2096
20
-2183.221
0
VERTEX
8
TopMetal
10
-2086
20
-2183.221
0
VERTEX
8
TopMetal
10
-2086
20
-4744
0
VERTEX
8
TopMetal
10
-2076
20
-4744
0
VERTEX
8
TopMetal
10
-2076
20
-2183.221
0
VERTEX
8
TopMetal
10
-2066
20
-2183.221
0
VERTEX
8
TopMetal
10
-2066
20
-4744
0
VERTEX
8
TopMetal
10
-2056
20
-4744
0
VERTEX
8
TopMetal
10
-2056
20
-2183.221
0
VERTEX
8
TopMetal
10
-2046
20
-2183.221
0
VERTEX
8
TopMetal
10
-2046
20
-4744
0
VERTEX
8
TopMetal
10
-2036
20
-4744
0
VERTEX
8
TopMetal
10
-2036
20
-2183.221
0
VERTEX
8
TopMetal
10
-2026
20
-2183.221
0
VERTEX
8
TopMetal
10
-2026
20
-4744
0
VERTEX
8
TopMetal
10
-2016
20
-4744
0
VERTEX
8
TopMetal
10
-2016
20
-2183.221
0
VERTEX
8
TopMetal
10
-2006
20
-2183.221
0
VERTEX
8
TopMetal
10
-2006
20
-4744
0
VERTEX
8
TopMetal
10
-1996
20
-4744
0
VERTEX
8
TopMetal
10
-1996
20
-2183.221
0
VERTEX
8
TopMetal
10
-1986
20
-2183.221
0
VERTEX
8
TopMetal
10
-1986
20
-4744
0
VERTEX
8
TopMetal
10
-1976
20
-4744
0
VERTEX
8
TopMetal
10
-1976
20
-2183.221
0
VERTEX
8
TopMetal
10
-1966
20
-2183.221
0
VERTEX
8
TopMetal
10
-1966
20
-4744
0
VERTEX
8
TopMetal
10
-1956
20
-4744
0
VERTEX
8
TopMetal
10
-1956
20
-2183.221
0
VERTEX
8
TopMetal
10
-1946
20
-2183.221
0
VERTEX
8
TopMetal
10
-1946
20
-4744
0
VERTEX
8
TopMetal
10
-1936
20
-4744
0
VERTEX
8
TopMetal
10
-1936
20
-2183.221
0
VERTEX
8
TopMetal
10
-1926
20
-2183.221
0
VERTEX
8
TopMetal
10
-1926
20
-4744
0
VERTEX
8
TopMetal
10
-1916
20
-4744
0
VERTEX
8
TopMetal
10
-1916
20
-2183.221
0
VERTEX
8
TopMetal
10
-1906
20
-2183.221
0
VERTEX
8
TopMetal
10
-1906
20
-4744
0
VERTEX
8
TopMetal
10
-1896
20
-4744
0
VERTEX
8
TopMetal
10
-1896
20
-2183.221
0
VERTEX
8
TopMetal
10
-1886
20
-2183.221
0
VERTEX
8
TopMetal
10
-1886
20
-4744
0
VERTEX
8
TopMetal
10
-1876
20
-4744
0
VERTEX
8
TopMetal
10
-1876
20
-2183.221
0
VERTEX
8
TopMetal
10
-1866
20
-2183.221
0
VERTEX
8
TopMetal
10
-1866
20
-4744
0
VERTEX
8
TopMetal
10
-1856
20
-4744
0
VERTEX
8
TopMetal
10
-1856
20
-2183.221
0
VERTEX
8
TopMetal
10
-1846
20
-2183.221
0
VERTEX
8
TopMetal
10
-1846
20
-4744
0
VERTEX
8
TopMetal
10
-1836
20
-4744
0
VERTEX
8
TopMetal
10
-1836
20
-2183.221
0
VERTEX
8
TopMetal
10
-1826
20
-2183.221
0
VERTEX
8
TopMetal
10
-1826
20
-4744
0
VERTEX
8
TopMetal
10
-1816
20
-4744
0
VERTEX
8
TopMetal
10
-1816
20
-2183.221
0
VERTEX
8
TopMetal
10
-1806
20
-2183.221
0
VERTEX
8
TopMetal
10
-1806
20
-4744
0
VERTEX
8
TopMetal
10
-1796
20
-4744
0
VERTEX
8
TopMetal
10
-1796
20
-2183.221
0
VERTEX
8
TopMetal
10
-1786
20
-2183.221
0
VERTEX
8
TopMetal
10
-1786
20
-4744
0
VERTEX
8
TopMetal
10
-1776
20
-4744
0
VERTEX
8
TopMetal
10
-1776
20
-2183.221
0
VERTEX
8
TopMetal
10
-1766
20
-2183.221
0
VERTEX
8
TopMetal
10
-1766
20
-4744
0
VERTEX
8
TopMetal
10
-1756
20
-4744
0
VERTEX
8
TopMetal
10
-1756
20
-2183.221
0
VERTEX
8
TopMetal
10
-1746
20
-2183.221
0
VERTEX
8
TopMetal
10
-1746
20
-4744
0
VERTEX
8
TopMetal
10
-1736
20
-4744
0
VERTEX
8
TopMetal
10
-1736
20
-2183.221
0
VERTEX
8
TopMetal
10
-1726
20
-2183.221
0
VERTEX
8
TopMetal
10
-1726
20
-4744
0
VERTEX
8
TopMetal
10
-1716
20
-4744
0
VERTEX
8
TopMetal
10
-1716
20
-2183.221
0
VERTEX
8
TopMetal
10
-1706
20
-2183.221
0
VERTEX
8
TopMetal
10
-1706
20
-4744
0
VERTEX
8
TopMetal
10
-1696
20
-4744
0
VERTEX
8
TopMetal
10
-1696
20
-2183.221
0
VERTEX
8
TopMetal
10
-1686
20
-2183.221
0
VERTEX
8
TopMetal
10
-1686
20
-4744
0
VERTEX
8
TopMetal
10
-1676
20
-4744
0
VERTEX
8
TopMetal
10
-1676
20
-2183.221
0
VERTEX
8
TopMetal
10
-1666
20
-2183.221
0
VERTEX
8
TopMetal
10
-1666
20
-4744
0
VERTEX
8
TopMetal
10
-1656
20
-4744
0
VERTEX
8
TopMetal
10
-1656
20
-2183.221
0
VERTEX
8
TopMetal
10
-1646
20
-2183.221
0
VERTEX
8
TopMetal
10
-1646
20
-4744
0
VERTEX
8
TopMetal
10
-1636
20
-4744
0
VERTEX
8
TopMetal
10
-1636
20
-2183.221
0
VERTEX
8
TopMetal
10
-1626
20
-2183.221
0
VERTEX
8
TopMetal
10
-1626
20
-4744
0
VERTEX
8
TopMetal
10
-1616
20
-4744
0
VERTEX
8
TopMetal
10
-1616
20
-2183.221
0
VERTEX
8
TopMetal
10
-1606
20
-2183.221
0
VERTEX
8
TopMetal
10
-1606
20
-4744
0
VERTEX
8
TopMetal
10
-1596
20
-4744
0
VERTEX
8
TopMetal
10
-1596
20
-2183.221
0
VERTEX
8
TopMetal
10
-1586
20
-2183.221
0
VERTEX
8
TopMetal
10
-1586
20
-4744
0
VERTEX
8
TopMetal
10
-1576
20
-4744
0
VERTEX
8
TopMetal
10
-1576
20
-2183.221
0
VERTEX
8
TopMetal
10
-1566
20
-2183.221
0
VERTEX
8
TopMetal
10
-1566
20
-4744
0
VERTEX
8
TopMetal
10
-1556
20
-4744
0
VERTEX
8
TopMetal
10
-1556
20
-2183.221
0
VERTEX
8
TopMetal
10
-1546
20
-2183.221
0
VERTEX
8
TopMetal
10
-1546
20
-4744
0
VERTEX
8
TopMetal
10
-1536
20
-4744
0
VERTEX
8
TopMetal
10
-1536
20
-2183.221
0
VERTEX
8
TopMetal
10
-1526
20
-2183.221
0
VERTEX
8
TopMetal
10
-1526
20
-4744
0
VERTEX
8
TopMetal
10
-1516
20
-4744
0
VERTEX
8
TopMetal
10
-1516
20
-2183.221
0
VERTEX
8
TopMetal
10
-1506
20
-2183.221
0
VERTEX
8
TopMetal
10
-1506
20
-4744
0
VERTEX
8
TopMetal
10
-1496
20
-4744
0
VERTEX
8
TopMetal
10
-1496
20
-2183.221
0
VERTEX
8
TopMetal
10
-1486
20
-2183.221
0
VERTEX
8
TopMetal
10
-1486
20
-4744
0
VERTEX
8
TopMetal
10
-1476
20
-4744
0
VERTEX
8
TopMetal
10
-1476
20
-2183.221
0
VERTEX
8
TopMetal
10
-1466
20
-2183.221
0
VERTEX
8
TopMetal
10
-1466
20
-4744
0
VERTEX
8
TopMetal
10
-1456
20
-4744
0
VERTEX
8
TopMetal
10
-1456
20
-2183.221
0
VERTEX
8
TopMetal
10
-1446
20
-2183.221
0
VERTEX
8
TopMetal
10
-1446
20
-4744
0
VERTEX
8
TopMetal
10
-1436
20
-4744
0
VERTEX
8
TopMetal
10
-1436
20
-2183.221
0
VERTEX
8
TopMetal
10
-1426
20
-2183.221
0
VERTEX
8
TopMetal
10
-1426
20
-4744
0
VERTEX
8
TopMetal
10
-1416
20
-4744
0
VERTEX
8
TopMetal
10
-1416
20
-2183.221
0
VERTEX
8
TopMetal
10
-1406
20
-2183.221
0
VERTEX
8
TopMetal
10
-1406
20
-4744
0
VERTEX
8
TopMetal
10
-1396
20
-4744
0
VERTEX
8
TopMetal
10
-1396
20
-2183.221
0
VERTEX
8
TopMetal
10
-1386
20
-2183.221
0
VERTEX
8
TopMetal
10
-1386
20
-4744
0
VERTEX
8
TopMetal
10
-1376
20
-4744
0
VERTEX
8
TopMetal
10
-1376
20
-2183.221
0
VERTEX
8
TopMetal
10
-1366
20
-2183.221
0
VERTEX
8
TopMetal
10
-1366
20
-4744
0
VERTEX
8
TopMetal
10
-1356
20
-4744
0
VERTEX
8
TopMetal
10
-1356
20
-2183.221
0
VERTEX
8
TopMetal
10
-1346
20
-2183.221
0
VERTEX
8
TopMetal
10
-1346
20
-4744
0
VERTEX
8
TopMetal
10
-1336
20
-4744
0
VERTEX
8
TopMetal
10
-1336
20
-2183.221
0
VERTEX
8
TopMetal
10
-1326
20
-2183.221
0
VERTEX
8
TopMetal
10
-1326
20
-4744
0
VERTEX
8
TopMetal
10
-1316
20
-4744
0
VERTEX
8
TopMetal
10
-1316
20
-2183.221
0
VERTEX
8
TopMetal
10
-1306
20
-2183.221
0
VERTEX
8
TopMetal
10
-1306
20
-4744
0
VERTEX
8
TopMetal
10
-1296
20
-4744
0
VERTEX
8
TopMetal
10
-1296
20
-2183.221
0
VERTEX
8
TopMetal
10
-1286
20
-2183.221
0
VERTEX
8
TopMetal
10
-1286
20
-4744
0
VERTEX
8
TopMetal
10
-1276
20
-4744
0
VERTEX
8
TopMetal
10
-1276
20
-2183.221
0
VERTEX
8
TopMetal
10
-1266
20
-2183.221
0
VERTEX
8
TopMetal
10
-1266
20
-4744
0
VERTEX
8
TopMetal
10
-1256
20
-4744
0
VERTEX
8
TopMetal
10
-1256
20
-2183.221
0
VERTEX
8
TopMetal
10
-1246
20
-2183.221
0
VERTEX
8
TopMetal
10
-1246
20
-4744
0
VERTEX
8
TopMetal
10
-1236
20
-4744
0
VERTEX
8
TopMetal
10
-1236
20
-2183.221
0
VERTEX
8
TopMetal
10
-1226
20
-2183.221
0
VERTEX
8
TopMetal
10
-1226
20
-4744
0
VERTEX
8
TopMetal
10
-1216
20
-4744
0
VERTEX
8
TopMetal
10
-1216
20
-2183.221
0
VERTEX
8
TopMetal
10
-1206
20
-2183.221
0
VERTEX
8
TopMetal
10
-1206
20
-4744
0
VERTEX
8
TopMetal
10
-1196
20
-4744
0
VERTEX
8
TopMetal
10
-1196
20
-2183.221
0
VERTEX
8
TopMetal
10
-1186
20
-2183.221
0
VERTEX
8
TopMetal
10
-1186
20
-4744
0
VERTEX
8
TopMetal
10
-1176
20
-4744
0
VERTEX
8
TopMetal
10
-1176
20
-2183.221
0
VERTEX
8
TopMetal
10
-1166
20
-2183.221
0
VERTEX
8
TopMetal
10
-1166
20
-4744
0
VERTEX
8
TopMetal
10
-1156
20
-4744
0
VERTEX
8
TopMetal
10
-1156
20
-2183.221
0
VERTEX
8
TopMetal
10
-1146
20
-2183.221
0
VERTEX
8
TopMetal
10
-1146
20
-4744
0
VERTEX
8
TopMetal
10
-1136
20
-4744
0
VERTEX
8
TopMetal
10
-1136
20
-2183.221
0
VERTEX
8
TopMetal
10
-1126
20
-2183.221
0
VERTEX
8
TopMetal
10
-1126
20
-4744
0
VERTEX
8
TopMetal
10
-1116
20
-4744
0
VERTEX
8
TopMetal
10
-1116
20
-2183.221
0
VERTEX
8
TopMetal
10
-1106
20
-2183.221
0
VERTEX
8
TopMetal
10
-1106
20
-4744
0
VERTEX
8
TopMetal
10
-1096
20
-4744
0
VERTEX
8
TopMetal
10
-1096
20
-2183.221
0
VERTEX
8
TopMetal
10
-1086
20
-2183.221
0
VERTEX
8
TopMetal
10
-1086
20
-4744
0
VERTEX
8
TopMetal
10
-1076
20
-4744
0
VERTEX
8
TopMetal
10
-1076
20
-2183.221
0
VERTEX
8
TopMetal
10
-1066
20
-2183.221
0
VERTEX
8
TopMetal
10
-1066
20
-4744
0
VERTEX
8
TopMetal
10
-1056
20
-4744
0
VERTEX
8
TopMetal
10
-1056
20
-2183.221
0
VERTEX
8
TopMetal
10
-1046
20
-2183.221
0
VERTEX
8
TopMetal
10
-1046
20
-4744
0
VERTEX
8
TopMetal
10
-1036
20
-4744
0
VERTEX
8
TopMetal
10
-1036
20
-2183.221
0
VERTEX
8
TopMetal
10
-1026
20
-2183.221
0
VERTEX
8
TopMetal
10
-1026
20
-4744
0
VERTEX
8
TopMetal
10
-1016
20
-4744
0
VERTEX
8
TopMetal
10
-1016
20
-2183.221
0
VERTEX
8
TopMetal
10
-1006
20
-2183.221
0
VERTEX
8
TopMetal
10
-1006
20
-4744
0
VERTEX
8
TopMetal
10
-996
20
-4744
0
VERTEX
8
TopMetal
10
-996
20
-2183.221
0
VERTEX
8
TopMetal
10
-986
20
-2183.221
0
VERTEX
8
TopMetal
10
-986
20
-4744
0
VERTEX
8
TopMetal
10
-976
20
-4744
0
VERTEX
8
TopMetal
10
-976
20
-2183.221
0
VERTEX
8
TopMetal
10
-966
20
-2183.221
0
VERTEX
8
TopMetal
10
-966
20
-4744
0
VERTEX
8
TopMetal
10
-956
20
-4744
0
VERTEX
8
TopMetal
10
-956
20
-2183.221
0
VERTEX
8
TopMetal
10
-946
20
-2183.221
0
VERTEX
8
TopMetal
10
-946
20
-4744
0
VERTEX
8
TopMetal
10
-936
20
-4744
0
VERTEX
8
TopMetal
10
-936
20
-2183.221
0
VERTEX
8
TopMetal
10
-926
20
-2183.221
0
VERTEX
8
TopMetal
10
-926
20
-4744
0
VERTEX
8
TopMetal
10
-916
20
-4744
0
VERTEX
8
TopMetal
10
-916
20
-2183.221
0
VERTEX
8
TopMetal
10
-906
20
-2183.221
0
VERTEX
8
TopMetal
10
-906
20
-4744
0
VERTEX
8
TopMetal
10
-896
20
-4744
0
VERTEX
8
TopMetal
10
-896
20
-2183.221
0
VERTEX
8
TopMetal
10
-886
20
-2183.221
0
VERTEX
8
TopMetal
10
-886
20
-4744
0
VERTEX
8
TopMetal
10
-876
20
-4744
0
VERTEX
8
TopMetal
10
-876
20
-2183.221
0
VERTEX
8
TopMetal
10
-866
20
-2183.221
0
VERTEX
8
TopMetal
10
-866
20
-4744
0
VERTEX
8
TopMetal
10
-856
20
-4744
0
VERTEX
8
TopMetal
10
-856
20
-2183.221
0
VERTEX
8
TopMetal
10
-846
20
-2183.221
0
VERTEX
8
TopMetal
10
-846
20
-4744
0
VERTEX
8
TopMetal
10
-836
20
-4744
0
VERTEX
8
TopMetal
10
-836
20
-2183.221
0
VERTEX
8
TopMetal
10
-826
20
-2183.221
0
VERTEX
8
TopMetal
10
-826
20
-4744
0
VERTEX
8
TopMetal
10
-816
20
-4744
0
VERTEX
8
TopMetal
10
-816
20
-2183.221
0
VERTEX
8
TopMetal
10
-806
20
-2183.221
0
VERTEX
8
TopMetal
10
-806
20
-4744
0
VERTEX
8
TopMetal
10
-796
20
-4744
0
VERTEX
8
TopMetal
10
-796
20
-2183.221
0
VERTEX
8
TopMetal
10
-786
20
-2183.221
0
VERTEX
8
TopMetal
10
-786
20
-4744
0
VERTEX
8
TopMetal
10
-776
20
-4744
0
VERTEX
8
TopMetal
10
-776
20
-2183.221
0
VERTEX
8
TopMetal
10
-766
20
-2183.221
0
VERTEX
8
TopMetal
10
-766
20
-4744
0
VERTEX
8
TopMetal
10
-756
20
-4744
0
VERTEX
8
TopMetal
10
-756
20
-2183.221
0
VERTEX
8
TopMetal
10
-746
20
-2183.221
0
VERTEX
8
TopMetal
10
-746
20
-4744
0
VERTEX
8
TopMetal
10
-736
20
-4744
0
VERTEX
8
TopMetal
10
-736
20
-2183.221
0
VERTEX
8
TopMetal
10
-726
20
-2183.221
0
VERTEX
8
TopMetal
10
-726
20
-4744
0
VERTEX
8
TopMetal
10
-716
20
-4744
0
VERTEX
8
TopMetal
10
-716
20
-2183.221
0
VERTEX
8
TopMetal
10
-706
20
-2183.221
0
VERTEX
8
TopMetal
10
-706
20
-4744
0
VERTEX
8
TopMetal
10
-696
20
-4744
0
VERTEX
8
TopMetal
10
-696
20
-2183.221
0
VERTEX
8
TopMetal
10
-686
20
-2183.221
0
VERTEX
8
TopMetal
10
-686
20
-4744
0
VERTEX
8
TopMetal
10
-676
20
-4744
0
VERTEX
8
TopMetal
10
-676
20
-2183.221
0
VERTEX
8
TopMetal
10
-666
20
-2183.221
0
VERTEX
8
TopMetal
10
-666
20
-4744
0
VERTEX
8
TopMetal
10
-656
20
-4744
0
VERTEX
8
TopMetal
10
-656
20
-2183.221
0
VERTEX
8
TopMetal
10
-646
20
-2183.221
0
VERTEX
8
TopMetal
10
-646
20
-4744
0
VERTEX
8
TopMetal
10
-636
20
-4744
0
VERTEX
8
TopMetal
10
-636
20
-2183.221
0
VERTEX
8
TopMetal
10
-626
20
-2183.221
0
VERTEX
8
TopMetal
10
-626
20
-4744
0
VERTEX
8
TopMetal
10
-616
20
-4744
0
VERTEX
8
TopMetal
10
-616
20
-2183.221
0
VERTEX
8
TopMetal
10
-606
20
-2183.221
0
VERTEX
8
TopMetal
10
-606
20
-4744
0
VERTEX
8
TopMetal
10
-596
20
-4744
0
VERTEX
8
TopMetal
10
-596
20
-2183.221
0
VERTEX
8
TopMetal
10
-586
20
-2183.221
0
VERTEX
8
TopMetal
10
-586
20
-4744
0
VERTEX
8
TopMetal
10
-576
20
-4744
0
VERTEX
8
TopMetal
10
-576
20
-2183.221
0
VERTEX
8
TopMetal
10
-566
20
-2183.221
0
VERTEX
8
TopMetal
10
-566
20
-4744
0
VERTEX
8
TopMetal
10
-556
20
-4744
0
VERTEX
8
TopMetal
10
-556
20
-2183.221
0
VERTEX
8
TopMetal
10
-546
20
-2183.221
0
VERTEX
8
TopMetal
10
-546
20
-4744
0
VERTEX
8
TopMetal
10
-536
20
-4744
0
VERTEX
8
TopMetal
10
-536
20
-2183.221
0
VERTEX
8
TopMetal
10
-526
20
-2183.221
0
VERTEX
8
TopMetal
10
-526
20
-4744
0
VERTEX
8
TopMetal
10
-516
20
-4744
0
VERTEX
8
TopMetal
10
-516
20
-2183.221
0
VERTEX
8
TopMetal
10
-506
20
-2183.221
0
VERTEX
8
TopMetal
10
-506
20
-4744
0
VERTEX
8
TopMetal
10
-496
20
-4744
0
VERTEX
8
TopMetal
10
-496
20
-2183.221
0
VERTEX
8
TopMetal
10
-486
20
-2183.221
0
VERTEX
8
TopMetal
10
-486
20
-4744
0
VERTEX
8
TopMetal
10
-476
20
-4744
0
VERTEX
8
TopMetal
10
-476
20
-2183.221
0
VERTEX
8
TopMetal
10
-466
20
-2183.221
0
VERTEX
8
TopMetal
10
-466
20
-4744
0
VERTEX
8
TopMetal
10
-456
20
-4744
0
VERTEX
8
TopMetal
10
-456
20
-2183.221
0
VERTEX
8
TopMetal
10
-446
20
-2183.221
0
VERTEX
8
TopMetal
10
-446
20
-4744
0
VERTEX
8
TopMetal
10
-436
20
-4744
0
VERTEX
8
TopMetal
10
-436
20
-2183.221
0
VERTEX
8
TopMetal
10
-426
20
-2183.221
0
VERTEX
8
TopMetal
10
-426
20
-4744
0
VERTEX
8
TopMetal
10
-416
20
-4744
0
VERTEX
8
TopMetal
10
-416
20
-2183.221
0
VERTEX
8
TopMetal
10
-406
20
-2183.221
0
VERTEX
8
TopMetal
10
-406
20
-4744
0
VERTEX
8
TopMetal
10
-396
20
-4744
0
VERTEX
8
TopMetal
10
-396
20
-2183.221
0
VERTEX
8
TopMetal
10
-386
20
-2183.221
0
VERTEX
8
TopMetal
10
-386
20
-4744
0
VERTEX
8
TopMetal
10
-376
20
-4744
0
VERTEX
8
TopMetal
10
-376
20
-2183.221
0
VERTEX
8
TopMetal
10
-366
20
-2183.221
0
VERTEX
8
TopMetal
10
-366
20
-4744
0
VERTEX
8
TopMetal
10
-356
20
-4744
0
VERTEX
8
TopMetal
10
-356
20
-2183.221
0
VERTEX
8
TopMetal
10
-346
20
-2183.221
0
VERTEX
8
TopMetal
10
-346
20
-4744
0
VERTEX
8
TopMetal
10
-336
20
-4744
0
VERTEX
8
TopMetal
10
-336
20
-2183.221
0
VERTEX
8
TopMetal
10
-326
20
-2183.221
0
VERTEX
8
TopMetal
10
-326
20
-4744
0
VERTEX
8
TopMetal
10
-316
20
-4744
0
VERTEX
8
TopMetal
10
-316
20
-2183.221
0
VERTEX
8
TopMetal
10
-306
20
-2183.221
0
VERTEX
8
TopMetal
10
-306
20
-4744
0
VERTEX
8
TopMetal
10
-296
20
-4744
0
VERTEX
8
TopMetal
10
-296
20
-2183.221
0
VERTEX
8
TopMetal
10
-286
20
-2183.221
0
VERTEX
8
TopMetal
10
-286
20
-4744
0
VERTEX
8
TopMetal
10
-276
20
-4744
0
VERTEX
8
TopMetal
10
-276
20
-2183.221
0
VERTEX
8
TopMetal
10
-266
20
-2183.221
0
VERTEX
8
TopMetal
10
-266
20
-4744
0
VERTEX
8
TopMetal
10
-256
20
-4744
0
VERTEX
8
TopMetal
10
-256
20
-2183.221
0
VERTEX
8
TopMetal
10
-246
20
-2183.221
0
VERTEX
8
TopMetal
10
-246
20
-4744
0
VERTEX
8
TopMetal
10
-236
20
-4744
0
VERTEX
8
TopMetal
10
-236
20
-2183.221
0
VERTEX
8
TopMetal
10
-226
20
-2183.221
0
VERTEX
8
TopMetal
10
-226
20
-4744
0
VERTEX
8
TopMetal
10
-216
20
-4744
0
VERTEX
8
TopMetal
10
-216
20
-2183.221
0
VERTEX
8
TopMetal
10
-206
20
-2183.221
0
VERTEX
8
TopMetal
10
-206
20
-4744
0
VERTEX
8
TopMetal
10
-196
20
-4744
0
VERTEX
8
TopMetal
10
-196
20
-2183.221
0
VERTEX
8
TopMetal
10
-186
20
-2183.221
0
VERTEX
8
TopMetal
10
-186
20
-4744
0
VERTEX
8
TopMetal
10
-176
20
-4744
0
VERTEX
8
TopMetal
10
-176
20
-2183.221
0
VERTEX
8
TopMetal
10
-166
20
-2183.221
0
VERTEX
8
TopMetal
10
-166
20
-4744
0
VERTEX
8
TopMetal
10
-156
20
-4744
0
VERTEX
8
TopMetal
10
-156
20
-2183.221
0
VERTEX
8
TopMetal
10
-146
20
-2183.221
0
VERTEX
8
TopMetal
10
-146
20
-4744
0
VERTEX
8
TopMetal
10
-136
20
-4744
0
VERTEX
8
TopMetal
10
-136
20
-2183.221
0
VERTEX
8
TopMetal
10
-126
20
-2183.221
0
VERTEX
8
TopMetal
10
-126
20
-4744
0
VERTEX
8
TopMetal
10
-116
20
-4744
0
VERTEX
8
TopMetal
10
-116
20
-2183.221
0
VERTEX
8
TopMetal
10
-106
20
-2183.221
0
VERTEX
8
TopMetal
10
-106
20
-4744
0
VERTEX
8
TopMetal
10
-96
20
-4744
0
VERTEX
8
TopMetal
10
-96
20
-2183.221
0
VERTEX
8
TopMetal
10
-86
20
-2183.221
0
VERTEX
8
TopMetal
10
-86
20
-4744
0
VERTEX
8
TopMetal
10
-76
20
-4744
0
VERTEX
8
TopMetal
10
-76
20
-2183.221
0
VERTEX
8
TopMetal
10
-66
20
-2183.221
0
VERTEX
8
TopMetal
10
-66
20
-4744
0
VERTEX
8
TopMetal
10
-56
20
-4744
0
VERTEX
8
TopMetal
10
-56
20
-2183.221
0
VERTEX
8
TopMetal
10
-46
20
-2183.221
0
VERTEX
8
TopMetal
10
-46
20
-4744
0
VERTEX
8
TopMetal
10
-36
20
-4744
0
VERTEX
8
TopMetal
10
-36
20
-2183.221
0
VERTEX
8
TopMetal
10
-26
20
-2183.221
0
VERTEX
8
TopMetal
10
-26
20
-4744
0
VERTEX
8
TopMetal
10
-16
20
-4744
0
VERTEX
8
TopMetal
10
-16
20
-2183.221
0
VERTEX
8
TopMetal
10
-6
20
-2183.221
0
VERTEX
8
TopMetal
10
-6
20
-4744
0
VERTEX
8
TopMetal
10
4
20
-4744
0
VERTEX
8
TopMetal
10
4
20
-2183.221
0
VERTEX
8
TopMetal
10
14
20
-2183.221
0
VERTEX
8
TopMetal
10
14
20
-4744
0
VERTEX
8
TopMetal
10
24
20
-4744
0
VERTEX
8
TopMetal
10
24
20
-2183.221
0
VERTEX
8
TopMetal
10
34
20
-2183.221
0
VERTEX
8
TopMetal
10
34
20
-4744
0
VERTEX
8
TopMetal
10
44
20
-4744
0
VERTEX
8
TopMetal
10
44
20
-2183.221
0
VERTEX
8
TopMetal
10
54
20
-2183.221
0
VERTEX
8
TopMetal
10
54
20
-4744
0
VERTEX
8
TopMetal
10
64
20
-4744
0
VERTEX
8
TopMetal
10
64
20
-2183.221
0
VERTEX
8
TopMetal
10
74
20
-2183.221
0
VERTEX
8
TopMetal
10
74
20
-4744
0
VERTEX
8
TopMetal
10
84
20
-4744
0
VERTEX
8
TopMetal
10
84
20
-2183.221
0
VERTEX
8
TopMetal
10
94
20
-2183.221
0
VERTEX
8
TopMetal
10
94
20
-4744
0
VERTEX
8
TopMetal
10
104
20
-4744
0
VERTEX
8
TopMetal
10
104
20
-2183.221
0
VERTEX
8
TopMetal
10
114
20
-2183.221
0
VERTEX
8
TopMetal
10
114
20
-4744
0
VERTEX
8
TopMetal
10
124
20
-4744
0
VERTEX
8
TopMetal
10
124
20
-2183.221
0
VERTEX
8
TopMetal
10
134
20
-2183.221
0
VERTEX
8
TopMetal
10
134
20
-4744
0
VERTEX
8
TopMetal
10
144
20
-4744
0
VERTEX
8
TopMetal
10
144
20
-2183.221
0
VERTEX
8
TopMetal
10
154
20
-2183.221
0
VERTEX
8
TopMetal
10
154
20
-4744
0
VERTEX
8
TopMetal
10
164
20
-4744
0
VERTEX
8
TopMetal
10
164
20
-2183.221
0
VERTEX
8
TopMetal
10
174
20
-2183.221
0
VERTEX
8
TopMetal
10
174
20
-4744
0
VERTEX
8
TopMetal
10
184
20
-4744
0
VERTEX
8
TopMetal
10
184
20
-2183.221
0
VERTEX
8
TopMetal
10
194
20
-2183.221
0
VERTEX
8
TopMetal
10
194
20
-4744
0
VERTEX
8
TopMetal
10
204
20
-4744
0
VERTEX
8
TopMetal
10
204
20
-2183.221
0
VERTEX
8
TopMetal
10
214
20
-2183.221
0
VERTEX
8
TopMetal
10
214
20
-4744
0
VERTEX
8
TopMetal
10
224
20
-4744
0
VERTEX
8
TopMetal
10
224
20
-2183.221
0
VERTEX
8
TopMetal
10
234
20
-2183.221
0
VERTEX
8
TopMetal
10
234
20
-4744
0
VERTEX
8
TopMetal
10
244
20
-4744
0
VERTEX
8
TopMetal
10
244
20
-2183.221
0
VERTEX
8
TopMetal
10
254
20
-2183.221
0
VERTEX
8
TopMetal
10
254
20
-4744
0
VERTEX
8
TopMetal
10
264
20
-4744
0
VERTEX
8
TopMetal
10
264
20
-2183.221
0
VERTEX
8
TopMetal
10
274
20
-2183.221
0
VERTEX
8
TopMetal
10
274
20
-4744
0
VERTEX
8
TopMetal
10
284
20
-4744
0
VERTEX
8
TopMetal
10
284
20
-2183.221
0
VERTEX
8
TopMetal
10
294
20
-2183.221
0
VERTEX
8
TopMetal
10
294
20
-4744
0
VERTEX
8
TopMetal
10
304
20
-4744
0
VERTEX
8
TopMetal
10
304
20
-2183.221
0
VERTEX
8
TopMetal
10
314
20
-2183.221
0
VERTEX
8
TopMetal
10
314
20
-4744
0
VERTEX
8
TopMetal
10
324
20
-4744
0
VERTEX
8
TopMetal
10
324
20
-2183.221
0
VERTEX
8
TopMetal
10
334
20
-2183.221
0
VERTEX
8
TopMetal
10
334
20
-4744
0
VERTEX
8
TopMetal
10
344
20
-4744
0
VERTEX
8
TopMetal
10
344
20
-2183.221
0
VERTEX
8
TopMetal
10
354
20
-2183.221
0
VERTEX
8
TopMetal
10
354
20
-4744
0
VERTEX
8
TopMetal
10
364
20
-4744
0
VERTEX
8
TopMetal
10
364
20
-2183.221
0
VERTEX
8
TopMetal
10
374
20
-2183.221
0
VERTEX
8
TopMetal
10
374
20
-4744
0
VERTEX
8
TopMetal
10
384
20
-4744
0
VERTEX
8
TopMetal
10
384
20
-2183.221
0
VERTEX
8
TopMetal
10
394
20
-2183.221
0
VERTEX
8
TopMetal
10
394
20
-4744
0
VERTEX
8
TopMetal
10
404
20
-4744
0
VERTEX
8
TopMetal
10
404
20
-2183.221
0
VERTEX
8
TopMetal
10
414
20
-2183.221
0
VERTEX
8
TopMetal
10
414
20
-4744
0
VERTEX
8
TopMetal
10
424
20
-4744
0
VERTEX
8
TopMetal
10
424
20
-2183.221
0
VERTEX
8
TopMetal
10
434
20
-2183.221
0
VERTEX
8
TopMetal
10
434
20
-4744
0
VERTEX
8
TopMetal
10
444
20
-4744
0
VERTEX
8
TopMetal
10
444
20
-2183.221
0
VERTEX
8
TopMetal
10
454
20
-2183.221
0
VERTEX
8
TopMetal
10
454
20
-4744
0
VERTEX
8
TopMetal
10
464
20
-4744
0
VERTEX
8
TopMetal
10
464
20
-2183.221
0
VERTEX
8
TopMetal
10
474
20
-2183.221
0
VERTEX
8
TopMetal
10
474
20
-4744
0
VERTEX
8
TopMetal
10
484
20
-4744
0
VERTEX
8
TopMetal
10
484
20
-2183.221
0
VERTEX
8
TopMetal
10
494
20
-2183.221
0
VERTEX
8
TopMetal
10
494
20
-4744
0
VERTEX
8
TopMetal
10
504
20
-4744
0
VERTEX
8
TopMetal
10
504
20
-2183.221
0
VERTEX
8
TopMetal
10
514
20
-2183.221
0
VERTEX
8
TopMetal
10
514
20
-4744
0
VERTEX
8
TopMetal
10
524
20
-4744
0
VERTEX
8
TopMetal
10
524
20
-2183.221
0
VERTEX
8
TopMetal
10
534
20
-2183.221
0
VERTEX
8
TopMetal
10
534
20
-4744
0
VERTEX
8
TopMetal
10
544
20
-4744
0
VERTEX
8
TopMetal
10
544
20
-2183.221
0
VERTEX
8
TopMetal
10
554
20
-2183.221
0
VERTEX
8
TopMetal
10
554
20
-4744
0
VERTEX
8
TopMetal
10
564
20
-4744
0
VERTEX
8
TopMetal
10
564
20
-2183.221
0
VERTEX
8
TopMetal
10
574
20
-2183.221
0
VERTEX
8
TopMetal
10
574
20
-4744
0
VERTEX
8
TopMetal
10
584
20
-4744
0
VERTEX
8
TopMetal
10
584
20
-2183.221
0
VERTEX
8
TopMetal
10
594
20
-2183.221
0
VERTEX
8
TopMetal
10
594
20
-4744
0
VERTEX
8
TopMetal
10
604
20
-4744
0
VERTEX
8
TopMetal
10
604
20
-2183.221
0
VERTEX
8
TopMetal
10
614
20
-2183.221
0
VERTEX
8
TopMetal
10
614
20
-4744
0
VERTEX
8
TopMetal
10
624
20
-4744
0
VERTEX
8
TopMetal
10
624
20
-2183.221
0
VERTEX
8
TopMetal
10
634
20
-2183.221
0
VERTEX
8
TopMetal
10
634
20
-4744
0
VERTEX
8
TopMetal
10
644
20
-4744
0
VERTEX
8
TopMetal
10
644
20
-2183.221
0
VERTEX
8
TopMetal
10
654
20
-2183.221
0
VERTEX
8
TopMetal
10
654
20
-4744
0
VERTEX
8
TopMetal
10
664
20
-4744
0
VERTEX
8
TopMetal
10
664
20
-2183.221
0
VERTEX
8
TopMetal
10
674
20
-2183.221
0
VERTEX
8
TopMetal
10
674
20
-4744
0
VERTEX
8
TopMetal
10
684
20
-4744
0
VERTEX
8
TopMetal
10
684
20
-2183.221
0
VERTEX
8
TopMetal
10
694
20
-2183.221
0
VERTEX
8
TopMetal
10
694
20
-4744
0
VERTEX
8
TopMetal
10
704
20
-4744
0
VERTEX
8
TopMetal
10
704
20
-2183.221
0
VERTEX
8
TopMetal
10
714
20
-2183.221
0
VERTEX
8
TopMetal
10
714
20
-4744
0
VERTEX
8
TopMetal
10
724
20
-4744
0
VERTEX
8
TopMetal
10
724
20
-2183.221
0
VERTEX
8
TopMetal
10
734
20
-2183.221
0
VERTEX
8
TopMetal
10
734
20
-4744
0
VERTEX
8
TopMetal
10
744
20
-4744
0
VERTEX
8
TopMetal
10
744
20
-2183.221
0
VERTEX
8
TopMetal
10
754
20
-2183.221
0
VERTEX
8
TopMetal
10
754
20
-4744
0
VERTEX
8
TopMetal
10
764
20
-4744
0
VERTEX
8
TopMetal
10
764
20
-2183.221
0
VERTEX
8
TopMetal
10
774
20
-2183.221
0
VERTEX
8
TopMetal
10
774
20
-4744
0
VERTEX
8
TopMetal
10
784
20
-4744
0
VERTEX
8
TopMetal
10
784
20
-2183.221
0
VERTEX
8
TopMetal
10
794
20
-2183.221
0
VERTEX
8
TopMetal
10
794
20
-4744
0
VERTEX
8
TopMetal
10
804
20
-4744
0
VERTEX
8
TopMetal
10
804
20
-2183.221
0
VERTEX
8
TopMetal
10
814
20
-2183.221
0
VERTEX
8
TopMetal
10
814
20
-4744
0
VERTEX
8
TopMetal
10
824
20
-4744
0
VERTEX
8
TopMetal
10
824
20
-2183.221
0
VERTEX
8
TopMetal
10
834
20
-2183.221
0
VERTEX
8
TopMetal
10
834
20
-4744
0
VERTEX
8
TopMetal
10
844
20
-4744
0
VERTEX
8
TopMetal
10
844
20
-2183.221
0
VERTEX
8
TopMetal
10
854
20
-2183.221
0
VERTEX
8
TopMetal
10
854
20
-4744
0
VERTEX
8
TopMetal
10
864
20
-4744
0
VERTEX
8
TopMetal
10
864
20
-2183.221
0
VERTEX
8
TopMetal
10
874
20
-2183.221
0
VERTEX
8
TopMetal
10
874
20
-4744
0
VERTEX
8
TopMetal
10
884
20
-4744
0
VERTEX
8
TopMetal
10
884
20
-2183.221
0
VERTEX
8
TopMetal
10
894
20
-2183.221
0
VERTEX
8
TopMetal
10
894
20
-4744
0
VERTEX
8
TopMetal
10
904
20
-4744
0
VERTEX
8
TopMetal
10
904
20
-2183.221
0
VERTEX
8
TopMetal
10
914
20
-2183.221
0
VERTEX
8
TopMetal
10
914
20
-4744
0
VERTEX
8
TopMetal
10
924
20
-4744
0
VERTEX
8
TopMetal
10
924
20
-2183.221
0
VERTEX
8
TopMetal
10
934
20
-2183.221
0
VERTEX
8
TopMetal
10
934
20
-4744
0
VERTEX
8
TopMetal
10
944
20
-4744
0
VERTEX
8
TopMetal
10
944
20
-2183.221
0
VERTEX
8
TopMetal
10
954
20
-2183.221
0
VERTEX
8
TopMetal
10
954
20
-4744
0
VERTEX
8
TopMetal
10
964
20
-4744
0
VERTEX
8
TopMetal
10
964
20
-2183.221
0
VERTEX
8
TopMetal
10
974
20
-2183.221
0
VERTEX
8
TopMetal
10
974
20
-4744
0
VERTEX
8
TopMetal
10
984
20
-4744
0
VERTEX
8
TopMetal
10
984
20
-2183.221
0
VERTEX
8
TopMetal
10
994
20
-2183.221
0
VERTEX
8
TopMetal
10
994
20
-4744
0
VERTEX
8
TopMetal
10
1004
20
-4744
0
VERTEX
8
TopMetal
10
1004
20
-2183.221
0
VERTEX
8
TopMetal
10
1014
20
-2183.221
0
VERTEX
8
TopMetal
10
1014
20
-4744
0
VERTEX
8
TopMetal
10
1024
20
-4744
0
VERTEX
8
TopMetal
10
1024
20
-2183.221
0
VERTEX
8
TopMetal
10
1034
20
-2183.221
0
VERTEX
8
TopMetal
10
1034
20
-4744
0
VERTEX
8
TopMetal
10
1044
20
-4744
0
VERTEX
8
TopMetal
10
1044
20
-2183.221
0
VERTEX
8
TopMetal
10
1054
20
-2183.221
0
VERTEX
8
TopMetal
10
1054
20
-4744
0
VERTEX
8
TopMetal
10
1064
20
-4744
0
VERTEX
8
TopMetal
10
1064
20
-2183.221
0
VERTEX
8
TopMetal
10
1074
20
-2183.221
0
VERTEX
8
TopMetal
10
1074
20
-4744
0
VERTEX
8
TopMetal
10
1084
20
-4744
0
VERTEX
8
TopMetal
10
1084
20
-2183.221
0
VERTEX
8
TopMetal
10
1094
20
-2183.221
0
VERTEX
8
TopMetal
10
1094
20
-4744
0
VERTEX
8
TopMetal
10
1104
20
-4744
0
VERTEX
8
TopMetal
10
1104
20
-2183.221
0
VERTEX
8
TopMetal
10
1114
20
-2183.221
0
VERTEX
8
TopMetal
10
1114
20
-4744
0
VERTEX
8
TopMetal
10
1124
20
-4744
0
VERTEX
8
TopMetal
10
1124
20
-2183.221
0
VERTEX
8
TopMetal
10
1134
20
-2183.221
0
VERTEX
8
TopMetal
10
1134
20
-4744
0
VERTEX
8
TopMetal
10
1144
20
-4744
0
VERTEX
8
TopMetal
10
1144
20
-2183.221
0
VERTEX
8
TopMetal
10
1154
20
-2183.221
0
VERTEX
8
TopMetal
10
1154
20
-4744
0
VERTEX
8
TopMetal
10
1164
20
-4744
0
VERTEX
8
TopMetal
10
1164
20
-2183.221
0
VERTEX
8
TopMetal
10
1174
20
-2183.221
0
VERTEX
8
TopMetal
10
1174
20
-4744
0
VERTEX
8
TopMetal
10
1184
20
-4744
0
VERTEX
8
TopMetal
10
1184
20
-2183.221
0
VERTEX
8
TopMetal
10
1194
20
-2183.221
0
VERTEX
8
TopMetal
10
1194
20
-4744
0
VERTEX
8
TopMetal
10
1204
20
-4744
0
VERTEX
8
TopMetal
10
1204
20
-2183.221
0
VERTEX
8
TopMetal
10
1214
20
-2183.221
0
VERTEX
8
TopMetal
10
1214
20
-4744
0
VERTEX
8
TopMetal
10
1224
20
-4744
0
VERTEX
8
TopMetal
10
1224
20
-2183.221
0
VERTEX
8
TopMetal
10
1234
20
-2183.221
0
VERTEX
8
TopMetal
10
1234
20
-4744
0
VERTEX
8
TopMetal
10
1244
20
-4744
0
VERTEX
8
TopMetal
10
1244
20
-2183.221
0
VERTEX
8
TopMetal
10
1254
20
-2183.221
0
VERTEX
8
TopMetal
10
1254
20
-4744
0
VERTEX
8
TopMetal
10
1264
20
-4744
0
VERTEX
8
TopMetal
10
1264
20
-2183.221
0
VERTEX
8
TopMetal
10
1274
20
-2183.221
0
VERTEX
8
TopMetal
10
1274
20
-4744
0
VERTEX
8
TopMetal
10
1284
20
-4744
0
VERTEX
8
TopMetal
10
1284
20
-2183.221
0
VERTEX
8
TopMetal
10
1294
20
-2183.221
0
VERTEX
8
TopMetal
10
1294
20
-4744
0
VERTEX
8
TopMetal
10
1304
20
-4744
0
VERTEX
8
TopMetal
10
1304
20
-2183.221
0
VERTEX
8
TopMetal
10
1314
20
-2183.221
0
VERTEX
8
TopMetal
10
1314
20
-4744
0
VERTEX
8
TopMetal
10
1324
20
-4744
0
VERTEX
8
TopMetal
10
1324
20
-2183.221
0
VERTEX
8
TopMetal
10
1334
20
-2183.221
0
VERTEX
8
TopMetal
10
1334
20
-4744
0
VERTEX
8
TopMetal
10
1344
20
-4744
0
VERTEX
8
TopMetal
10
1344
20
-2183.221
0
VERTEX
8
TopMetal
10
1354
20
-2183.221
0
VERTEX
8
TopMetal
10
1354
20
-4744
0
VERTEX
8
TopMetal
10
1364
20
-4744
0
VERTEX
8
TopMetal
10
1364
20
-2183.221
0
VERTEX
8
TopMetal
10
1374
20
-2183.221
0
VERTEX
8
TopMetal
10
1374
20
-4744
0
VERTEX
8
TopMetal
10
1384
20
-4744
0
VERTEX
8
TopMetal
10
1384
20
-2183.221
0
VERTEX
8
TopMetal
10
1394
20
-2183.221
0
VERTEX
8
TopMetal
10
1394
20
-4744
0
VERTEX
8
TopMetal
10
1404
20
-4744
0
VERTEX
8
TopMetal
10
1404
20
-2183.221
0
VERTEX
8
TopMetal
10
1414
20
-2183.221
0
VERTEX
8
TopMetal
10
1414
20
-4744
0
VERTEX
8
TopMetal
10
1424
20
-4744
0
VERTEX
8
TopMetal
10
1424
20
-2183.221
0
VERTEX
8
TopMetal
10
1434
20
-2183.221
0
VERTEX
8
TopMetal
10
1434
20
-4744
0
VERTEX
8
TopMetal
10
1444
20
-4744
0
VERTEX
8
TopMetal
10
1444
20
-2183.221
0
VERTEX
8
TopMetal
10
1454
20
-2183.221
0
VERTEX
8
TopMetal
10
1454
20
-4744
0
VERTEX
8
TopMetal
10
1464
20
-4744
0
VERTEX
8
TopMetal
10
1464
20
-2183.221
0
VERTEX
8
TopMetal
10
1474
20
-2183.221
0
VERTEX
8
TopMetal
10
1474
20
-4744
0
VERTEX
8
TopMetal
10
1484
20
-4744
0
VERTEX
8
TopMetal
10
1484
20
-2183.221
0
VERTEX
8
TopMetal
10
1494
20
-2183.221
0
VERTEX
8
TopMetal
10
1494
20
-4744
0
VERTEX
8
TopMetal
10
1504
20
-4744
0
VERTEX
8
TopMetal
10
1504
20
-2183.221
0
VERTEX
8
TopMetal
10
1514
20
-2183.221
0
VERTEX
8
TopMetal
10
1514
20
-4744
0
VERTEX
8
TopMetal
10
1524
20
-4744
0
VERTEX
8
TopMetal
10
1524
20
-2183.221
0
VERTEX
8
TopMetal
10
1534
20
-2183.221
0
VERTEX
8
TopMetal
10
1534
20
-4744
0
VERTEX
8
TopMetal
10
1544
20
-4744
0
VERTEX
8
TopMetal
10
1544
20
-2183.221
0
VERTEX
8
TopMetal
10
1554
20
-2183.221
0
VERTEX
8
TopMetal
10
1554
20
-4744
0
VERTEX
8
TopMetal
10
1564
20
-4744
0
VERTEX
8
TopMetal
10
1564
20
-2183.221
0
VERTEX
8
TopMetal
10
1574
20
-2183.221
0
VERTEX
8
TopMetal
10
1574
20
-4744
0
VERTEX
8
TopMetal
10
1584
20
-4744
0
VERTEX
8
TopMetal
10
1584
20
-2183.221
0
VERTEX
8
TopMetal
10
1594
20
-2183.221
0
VERTEX
8
TopMetal
10
1594
20
-4744
0
VERTEX
8
TopMetal
10
1604
20
-4744
0
VERTEX
8
TopMetal
10
1604
20
-2183.221
0
VERTEX
8
TopMetal
10
1614
20
-2183.221
0
VERTEX
8
TopMetal
10
1614
20
-4744
0
VERTEX
8
TopMetal
10
1624
20
-4744
0
VERTEX
8
TopMetal
10
1624
20
-2183.221
0
VERTEX
8
TopMetal
10
1634
20
-2183.221
0
VERTEX
8
TopMetal
10
1634
20
-4744
0
VERTEX
8
TopMetal
10
1644
20
-4744
0
VERTEX
8
TopMetal
10
1644
20
-2183.221
0
VERTEX
8
TopMetal
10
1654
20
-2183.221
0
VERTEX
8
TopMetal
10
1654
20
-4744
0
VERTEX
8
TopMetal
10
1664
20
-4744
0
VERTEX
8
TopMetal
10
1664
20
-2183.221
0
VERTEX
8
TopMetal
10
1674
20
-2183.221
0
VERTEX
8
TopMetal
10
1674
20
-4744
0
VERTEX
8
TopMetal
10
1684
20
-4744
0
VERTEX
8
TopMetal
10
1684
20
-2183.221
0
VERTEX
8
TopMetal
10
1694
20
-2183.221
0
VERTEX
8
TopMetal
10
1694
20
-4744
0
VERTEX
8
TopMetal
10
1704
20
-4744
0
VERTEX
8
TopMetal
10
1704
20
-2183.221
0
VERTEX
8
TopMetal
10
1714
20
-2183.221
0
VERTEX
8
TopMetal
10
1714
20
-4744
0
VERTEX
8
TopMetal
10
1724
20
-4744
0
VERTEX
8
TopMetal
10
1724
20
-2183.221
0
VERTEX
8
TopMetal
10
1734
20
-2183.221
0
VERTEX
8
TopMetal
10
1734
20
-4744
0
VERTEX
8
TopMetal
10
1744
20
-4744
0
VERTEX
8
TopMetal
10
1744
20
-2183.221
0
VERTEX
8
TopMetal
10
1754
20
-2183.221
0
VERTEX
8
TopMetal
10
1754
20
-4744
0
VERTEX
8
TopMetal
10
1764
20
-4744
0
VERTEX
8
TopMetal
10
1764
20
-2183.221
0
VERTEX
8
TopMetal
10
1774
20
-2183.221
0
VERTEX
8
TopMetal
10
1774
20
-4744
0
VERTEX
8
TopMetal
10
1784
20
-4744
0
VERTEX
8
TopMetal
10
1784
20
-2183.221
0
VERTEX
8
TopMetal
10
1794
20
-2183.221
0
VERTEX
8
TopMetal
10
1794
20
-4744
0
VERTEX
8
TopMetal
10
1804
20
-4744
0
VERTEX
8
TopMetal
10
1804
20
-2183.221
0
VERTEX
8
TopMetal
10
1814
20
-2183.221
0
VERTEX
8
TopMetal
10
1814
20
-4744
0
VERTEX
8
TopMetal
10
1824
20
-4744
0
VERTEX
8
TopMetal
10
1824
20
-2183.221
0
VERTEX
8
TopMetal
10
1834
20
-2183.221
0
VERTEX
8
TopMetal
10
1834
20
-4744
0
VERTEX
8
TopMetal
10
1844
20
-4744
0
VERTEX
8
TopMetal
10
1844
20
-2183.221
0
VERTEX
8
TopMetal
10
1854
20
-2183.221
0
VERTEX
8
TopMetal
10
1854
20
-4744
0
VERTEX
8
TopMetal
10
1864
20
-4744
0
VERTEX
8
TopMetal
10
1864
20
-2183.221
0
VERTEX
8
TopMetal
10
1874
20
-2183.221
0
VERTEX
8
TopMetal
10
1874
20
-4744
0
VERTEX
8
TopMetal
10
1884
20
-4744
0
VERTEX
8
TopMetal
10
1884
20
-2183.221
0
VERTEX
8
TopMetal
10
1894
20
-2183.221
0
VERTEX
8
TopMetal
10
1894
20
-4744
0
VERTEX
8
TopMetal
10
1904
20
-4744
0
VERTEX
8
TopMetal
10
1904
20
-2183.221
0
VERTEX
8
TopMetal
10
1914
20
-2183.221
0
VERTEX
8
TopMetal
10
1914
20
-4744
0
VERTEX
8
TopMetal
10
1924
20
-4744
0
VERTEX
8
TopMetal
10
1924
20
-2183.221
0
VERTEX
8
TopMetal
10
1934
20
-2183.221
0
VERTEX
8
TopMetal
10
1934
20
-4744
0
VERTEX
8
TopMetal
10
1944
20
-4744
0
VERTEX
8
TopMetal
10
1944
20
-2183.221
0
VERTEX
8
TopMetal
10
1954
20
-2183.221
0
VERTEX
8
TopMetal
10
1954
20
-4744
0
VERTEX
8
TopMetal
10
1964
20
-4744
0
VERTEX
8
TopMetal
10
1964
20
-2183.221
0
VERTEX
8
TopMetal
10
1974
20
-2183.221
0
VERTEX
8
TopMetal
10
1974
20
-4744
0
VERTEX
8
TopMetal
10
1984
20
-4744
0
VERTEX
8
TopMetal
10
1984
20
-2183.221
0
VERTEX
8
TopMetal
10
1994
20
-2183.221
0
VERTEX
8
TopMetal
10
1994
20
-4744
0
VERTEX
8
TopMetal
10
2004
20
-4744
0
VERTEX
8
TopMetal
10
2004
20
-2183.221
0
VERTEX
8
TopMetal
10
2014
20
-2183.221
0
VERTEX
8
TopMetal
10
2014
20
-4744
0
VERTEX
8
TopMetal
10
2024
20
-4744
0
VERTEX
8
TopMetal
10
2024
20
-2183.221
0
VERTEX
8
TopMetal
10
2034
20
-2183.221
0
VERTEX
8
TopMetal
10
2034
20
-4744
0
VERTEX
8
TopMetal
10
2044
20
-4744
0
VERTEX
8
TopMetal
10
2044
20
-2183.221
0
VERTEX
8
TopMetal
10
2054
20
-2183.221
0
VERTEX
8
TopMetal
10
2054
20
-4744
0
VERTEX
8
TopMetal
10
2064
20
-4744
0
VERTEX
8
TopMetal
10
2064
20
-2183.221
0
VERTEX
8
TopMetal
10
2074
20
-2183.221
0
VERTEX
8
TopMetal
10
2074
20
-4744
0
VERTEX
8
TopMetal
10
2084
20
-4744
0
VERTEX
8
TopMetal
10
2084
20
-2183.221
0
VERTEX
8
TopMetal
10
2094
20
-2183.221
0
VERTEX
8
TopMetal
10
2094
20
-4744
0
VERTEX
8
TopMetal
10
2104
20
-4744
0
VERTEX
8
TopMetal
10
2104
20
-2183.221
0
VERTEX
8
TopMetal
10
2114
20
-2183.221
0
VERTEX
8
TopMetal
10
2114
20
-4744
0
VERTEX
8
TopMetal
10
2124
20
-4744
0
VERTEX
8
TopMetal
10
2124
20
-2183.221
0
VERTEX
8
TopMetal
10
2134
20
-2183.221
0
VERTEX
8
TopMetal
10
2134
20
-4744
0
VERTEX
8
TopMetal
10
2144
20
-4744
0
VERTEX
8
TopMetal
10
2144
20
-2183.221
0
VERTEX
8
TopMetal
10
2154
20
-2183.221
0
VERTEX
8
TopMetal
10
2154
20
-4744
0
VERTEX
8
TopMetal
10
2164
20
-4744
0
VERTEX
8
TopMetal
10
2164
20
-2183.221
0
VERTEX
8
TopMetal
10
2174
20
-2183.221
0
VERTEX
8
TopMetal
10
2174
20
-4744
0
VERTEX
8
TopMetal
10
2184
20
-4744
0
VERTEX
8
TopMetal
10
2184
20
-2183.221
0
VERTEX
8
TopMetal
10
2194
20
-2183.221
0
VERTEX
8
TopMetal
10
2194
20
-4744
0
VERTEX
8
TopMetal
10
2204
20
-4744
0
VERTEX
8
TopMetal
10
2204
20
-2183.221
0
VERTEX
8
TopMetal
10
2214
20
-2183.221
0
VERTEX
8
TopMetal
10
2214
20
-4744
0
VERTEX
8
TopMetal
10
2224
20
-4744
0
VERTEX
8
TopMetal
10
2224
20
-2183.221
0
VERTEX
8
TopMetal
10
2234
20
-2183.221
0
VERTEX
8
TopMetal
10
2234
20
-4744
0
VERTEX
8
TopMetal
10
2244
20
-4744
0
VERTEX
8
TopMetal
10
2244
20
-2183.221
0
VERTEX
8
TopMetal
10
2254
20
-2183.221
0
VERTEX
8
TopMetal
10
2254
20
-4744
0
VERTEX
8
TopMetal
10
2264
20
-4744
0
VERTEX
8
TopMetal
10
2264
20
-2183.221
0
VERTEX
8
TopMetal
10
2274
20
-2183.221
0
VERTEX
8
TopMetal
10
2274
20
-4744
0
VERTEX
8
TopMetal
10
2284
20
-4744
0
VERTEX
8
TopMetal
10
2284
20
-2173.221
0
VERTEX
8
TopMetal
10
6
20
-2173.221
0
VERTEX
8
TopMetal
10
6
20
-1964
0
VERTEX
8
TopMetal
10
13.5
20
-1894
0
VERTEX
8
TopMetal
10
15.5
20
-1894
0
VERTEX
8
TopMetal
10
18
20
-1964
0
VERTEX
8
TopMetal
10
18
20
-2069
0
VERTEX
8
TopMetal
10
2384
20
-2069
0
VERTEX
8
TopMetal
10
2384
20
-4944
0
VERTEX
8
TopMetal
10
-1400
20
-4944
0
VERTEX
8
TopMetal
10
-1400
20
-9000
0
SEQEND
0
POLYLINE
8
BondPadCutOut
70
1
40
0
41
0
66
1
0
VERTEX
8
BondPadCutOut
10
-2450
20
8000
0
VERTEX
8
BondPadCutOut
10
-2450
20
9000
0
VERTEX
8
BondPadCutOut
10
-1300
20
9000
0
VERTEX
8
BondPadCutOut
10
-1300
20
8000
0
SEQEND
0
POLYLINE
8
BondPadCutOut
70
1
40
0
41
0
66
1
0
VERTEX
8
BondPadCutOut
10
-2450
20
-9000
0
VERTEX
8
BondPadCutOut
10
-2450
20
-8000
0
VERTEX
8
BondPadCutOut
10
-1300
20
-8000
0
VERTEX
8
BondPadCutOut
10
-1300
20
-9000
0
SEQEND
0
POLYLINE
8
NbDoor
70
1
40
0
41
0
66
1
0
VERTEX
8
NbDoor
10
-3969.678
20
2111.421
0
VERTEX
8
NbDoor
10
-3969.678
20
5300.045
0
VERTEX
8
NbDoor
10
-6500
20
5300.045
0
VERTEX
8
NbDoor
10
-6500
20
9000
0
VERTEX
8
NbDoor
10
-3143.339
20
9000
0
VERTEX
8
NbDoor
10
-3143.339
20
2121.021
0
VERTEX
8
NbDoor
10
95.478
20
2121.021
0
VERTEX
8
NbDoor
10
95.478
20
2111.421
0
SEQEND
0
POLYLINE
8
NbDoor
70
1
40
0
41
0
66
1
0
VERTEX
8
NbDoor
10
-6500
20
-9000
0
VERTEX
8
NbDoor
10
-6500
20
-5300.045
0
VERTEX
8
NbDoor
10
-3969.678
20
-5300.045
0
VERTEX
8
NbDoor
10
-3969.678
20
-2111.421
0
VERTEX
8
NbDoor
10
95.478
20
-2111.421
0
VERTEX
8
NbDoor
10
95.478
20
-2121.021
0
VERTEX
8
NbDoor
10
-3143.339
20
-2121.021
0
VERTEX
8
NbDoor
10
-3143.339
20
-9000
0
SEQEND
0
POLYLINE
8
NbDoorEtch
70
1
40
0
41
0
66
1
0
VERTEX
8
NbDoorEtch
10
-3969.678
20
2110.921
0
VERTEX
8
NbDoorEtch
10
-3969.678
20
5300.045
0
VERTEX
8
NbDoorEtch
10
-6500
20
5300.045
0
VERTEX
8
NbDoorEtch
10
-6500
20
9000
0
VERTEX
8
NbDoorEtch
10
-3143.339
20
9000
0
VERTEX
8
NbDoorEtch
10
-3143.339
20
2121.521
0
VERTEX
8
NbDoorEtch
10
95.478
20
2121.521
0
VERTEX
8
NbDoorEtch
10
95.478
20
2110.921
0
SEQEND
0
POLYLINE
8
NbDoorEtch
70
1
40
0
41
0
66
1
0
VERTEX
8
NbDoorEtch
10
-6500
20
-9000
0
VERTEX
8
NbDoorEtch
10
-6500
20
-5300.045
0
VERTEX
8
NbDoorEtch
10
-3969.678
20
-5300.045
0
VERTEX
8
NbDoorEtch
10
-3969.678
20
-2110.921
0
VERTEX
8
NbDoorEtch
10
95.478
20
-2110.921
0
VERTEX
8
NbDoorEtch
10
95.478
20
-2121.521
0
VERTEX
8
NbDoorEtch
10
-3143.339
20
-2121.521
0
VERTEX
8
NbDoorEtch
10
-3143.339
20
-9000
0
SEQEND
0
ENDSEC
0
EOF
