cl__1 = 1e+22;
Point(198) = {-709.696, -22, 2.13, cl__1};
Point(199) = {-709.696, -19, 2.13, cl__1};
Point(200) = {-685.7, -19, 2.13, cl__1};
Point(201) = {-670.5, -19, 2.13, cl__1};
Point(202) = {-661.573, -19, 2.13, cl__1};
Point(203) = {-661.573, -22, 2.13, cl__1};
Point(204) = {-661.573, -24.986, 2.13, cl__1};
Point(205) = {-670.5, -24.986, 2.13, cl__1};
Point(206) = {-679.5, -24.986, 2.13, cl__1};
Point(207) = {-685.7, -24.986, 2.13, cl__1};
Point(208) = {-709.696, -24.986, 2.13, cl__1};
Point(221) = {-685.7, -16, 2.13, cl__1};
Point(222) = {-709.696, -16, 2.13, cl__1};
Point(223) = {-709.696, -13, 2.13, cl__1};
Point(224) = {-709.696, -10, 2.13, cl__1};
Point(225) = {-685.7, -10, 2.13, cl__1};
Point(226) = {-679.5, -10, 2.13, cl__1};
Point(227) = {-670.5, -10, 2.13, cl__1};
Point(228) = {-670.5, -9.994, 2.13, cl__1};
Point(229) = {-661.573, -9.994, 2.13, cl__1};
Point(230) = {-661.573, -13, 2.13, cl__1};
Point(231) = {-661.573, -16, 2.13, cl__1};
Point(232) = {-670.5, -16, 2.13, cl__1};
Point(233) = {-679.269, -10.106, 0, cl__1};
Point(234) = {-679.269, -10.106, 0.9, cl__1};
Point(235) = {-676.7610000000001, -10.106, 0, cl__1};
Point(236) = {-676.7610000000001, -10.106, 0.9, cl__1};
Point(237) = {-676.7610000000001, -13.5, 0, cl__1};
Point(238) = {-676.7610000000001, -13.5, 0.9, cl__1};
Point(239) = {-676.75, -13.5, 0, cl__1};
Point(240) = {-676.75, -13.5, 0.9, cl__1};
Point(241) = {-676.75, -21.5, 0, cl__1};
Point(242) = {-676.75, -21.5, 0.9, cl__1};
Point(243) = {-676.75, -16, 0.9, cl__1};
Point(244) = {-676.75, -19, 0.9, cl__1};
Point(245) = {-676.7710000000001, -21.5, 0, cl__1};
Point(246) = {-676.7710000000001, -21.5, 0.9, cl__1};
Point(247) = {-676.7710000000001, -24.886, 0, cl__1};
Point(248) = {-676.7710000000001, -24.886, 0.9, cl__1};
Point(249) = {-679.2280000000001, -24.886, 0, cl__1};
Point(250) = {-679.2280000000001, -24.886, 0.9, cl__1};
Point(251) = {-679.2280000000001, -21.5, 0, cl__1};
Point(252) = {-679.2280000000001, -21.5, 0.9, cl__1};
Point(253) = {-679.25, -21.5, 0, cl__1};
Point(254) = {-679.25, -21.5, 0.9, cl__1};
Point(255) = {-679.25, -20.3, 0, cl__1};
Point(256) = {-679.25, -20.3, 0.9, cl__1};
Point(257) = {-679.25, -19.4, 0, cl__1};
Point(258) = {-679.25, -19.4, 0.9, cl__1};
Point(259) = {-679.25, -14.428, 0, cl__1};
Point(260) = {-679.25, -14.428, 0.9, cl__1};
Point(261) = {-679.25, -19, 0.9, cl__1};
Point(262) = {-679.25, -16, 0.9, cl__1};
Point(263) = {-679.2560000000001, -14.428, 0, cl__1};
Point(264) = {-679.2560000000001, -14.428, 0.9, cl__1};
Point(265) = {-679.2560000000001, -13.886, 0, cl__1};
Point(266) = {-679.2560000000001, -13.886, 0.9, cl__1};
Point(267) = {-679.269, -13.886, 0, cl__1};
Point(268) = {-679.269, -13.886, 0.9, cl__1};
Point(269) = {-664.75, -22, 0, cl__1};
Point(270) = {-664.75, -22, 0.9, cl__1};
Point(271) = {-664.769, -22, 0, cl__1};
Point(272) = {-664.769, -22, 0.9, cl__1};
Point(273) = {-664.769, -24.946, 0, cl__1};
Point(274) = {-664.769, -24.946, 0.9, cl__1};
Point(275) = {-667.269, -24.946, 0, cl__1};
Point(276) = {-667.269, -24.946, 0.9, cl__1};
Point(277) = {-667.269, -21.835, 0, cl__1};
Point(278) = {-667.269, -21.835, 0.9, cl__1};
Point(279) = {-667.25, -21.835, 0, cl__1};
Point(280) = {-667.25, -21.835, 0.9, cl__1};
Point(281) = {-667.25, -13, 0, cl__1};
Point(282) = {-667.25, -13, 0.9, cl__1};
Point(283) = {-667.25, -19, 0.9, cl__1};
Point(284) = {-667.25, -16, 0.9, cl__1};
Point(285) = {-667.241, -13, 0, cl__1};
Point(286) = {-667.241, -13, 0.9, cl__1};
Point(287) = {-667.241, -10.033, 0, cl__1};
Point(288) = {-667.241, -10.033, 0.9, cl__1};
Point(289) = {-664.753, -10.033, 0, cl__1};
Point(290) = {-664.753, -10.033, 0.9, cl__1};
Point(291) = {-664.753, -13, 0, cl__1};
Point(292) = {-664.753, -13, 0.9, cl__1};
Point(293) = {-664.75, -13, 0, cl__1};
Point(294) = {-664.75, -13, 0.9, cl__1};
Point(295) = {-664.75, -16, 0.9, cl__1};
Point(296) = {-664.75, -19, 0.9, cl__1};
Point(297) = {-679.75, -10.063, 0, cl__1};
Point(298) = {-679.75, -10.063, 0.9, cl__1};
Point(299) = {-679.75, -13, 0, cl__1};
Point(300) = {-679.75, -13, 0.9, cl__1};
Point(301) = {-679.75, -22, 0, cl__1};
Point(302) = {-679.75, -22, 0.9, cl__1};
Point(303) = {-679.75, -16, 0.9, cl__1};
Point(304) = {-679.75, -19, 0.9, cl__1};
Point(305) = {-679.75, -24.917, 0, cl__1};
Point(306) = {-679.75, -24.917, 0.9, cl__1};
Point(307) = {-685.7, -24.917, 0, cl__1};
Point(308) = {-685.7, -24.917, 0.9, cl__1};
Point(309) = {-709.696, -24.917, 0, cl__1};
Point(310) = {-709.696, -24.917, 0.9, cl__1};
Point(311) = {-709.696, -22, 0, cl__1};
Point(312) = {-709.696, -22, 0.9, cl__1};
Point(313) = {-709.696, -13, 0, cl__1};
Point(314) = {-709.696, -13, 0.9, cl__1};
Point(315) = {-709.696, -19, 0.9, cl__1};
Point(316) = {-709.696, -16, 0.9, cl__1};
Point(317) = {-709.696, -10.063, 0, cl__1};
Point(318) = {-709.696, -10.063, 0.9, cl__1};
Point(319) = {-685.7, -10.063, 0, cl__1};
Point(320) = {-685.7, -10.063, 0.9, cl__1};
Point(321) = {-685.7, -16, 0.9, cl__1};
Point(322) = {-685.7, -19, 0.9, cl__1};
Point(323) = {-673.75, -24.917, 0, cl__1};
Point(324) = {-673.75, -24.917, 0.9, cl__1};
Point(325) = {-676.25, -24.917, 0, cl__1};
Point(326) = {-676.25, -24.917, 0.9, cl__1};
Point(327) = {-676.25, -22, 0, cl__1};
Point(328) = {-676.25, -22, 0.9, cl__1};
Point(329) = {-676.25, -13, 0, cl__1};
Point(330) = {-676.25, -13, 0.9, cl__1};
Point(331) = {-676.25, -19, 0.9, cl__1};
Point(332) = {-676.25, -16, 0.9, cl__1};
Point(333) = {-676.25, -10.063, 0, cl__1};
Point(334) = {-676.25, -10.063, 0.9, cl__1};
Point(335) = {-673.75, -10.063, 0, cl__1};
Point(336) = {-673.75, -10.063, 0.9, cl__1};
Point(337) = {-673.75, -13, 0, cl__1};
Point(338) = {-673.75, -13, 0.9, cl__1};
Point(339) = {-673.75, -22, 0, cl__1};
Point(340) = {-673.75, -22, 0.9, cl__1};
Point(341) = {-673.75, -16, 0.9, cl__1};
Point(342) = {-673.75, -19, 0.9, cl__1};
Point(343) = {-670.75, -13, 0, cl__1};
Point(344) = {-670.75, -13, 0.9, cl__1};
Point(345) = {-670.75, -22, 0, cl__1};
Point(346) = {-670.75, -22, 0.9, cl__1};
Point(347) = {-670.75, -16, 0.9, cl__1};
Point(348) = {-670.75, -19, 0.9, cl__1};
Point(349) = {-670.75, -24.917, 0, cl__1};
Point(350) = {-670.75, -24.917, 0.9, cl__1};
Point(351) = {-673.25, -24.917, 0, cl__1};
Point(352) = {-673.25, -24.917, 0.9, cl__1};
Point(353) = {-673.25, -22, 0, cl__1};
Point(354) = {-673.25, -22, 0.9, cl__1};
Point(355) = {-673.25, -13, 0, cl__1};
Point(356) = {-673.25, -13, 0.9, cl__1};
Point(357) = {-673.25, -19, 0.9, cl__1};
Point(358) = {-673.25, -16, 0.9, cl__1};
Point(359) = {-673.25, -10.063, 0, cl__1};
Point(360) = {-673.25, -10.063, 0.9, cl__1};
Point(361) = {-670.75, -10.063, 0, cl__1};
Point(362) = {-670.75, -10.063, 0.9, cl__1};
Point(363) = {-670.25, -10.063, 0, cl__1};
Point(364) = {-670.25, -10.063, 0.9, cl__1};
Point(365) = {-667.75, -10.063, 0, cl__1};
Point(366) = {-667.75, -10.063, 0.9, cl__1};
Point(367) = {-667.75, -13, 0, cl__1};
Point(368) = {-667.75, -13, 0.9, cl__1};
Point(369) = {-667.75, -22, 0, cl__1};
Point(370) = {-667.75, -22, 0.9, cl__1};
Point(371) = {-667.75, -16, 0.9, cl__1};
Point(372) = {-667.75, -19, 0.9, cl__1};
Point(373) = {-667.75, -24.917, 0, cl__1};
Point(374) = {-667.75, -24.917, 0.9, cl__1};
Point(375) = {-670.25, -24.917, 0, cl__1};
Point(376) = {-670.25, -24.917, 0.9, cl__1};
Point(377) = {-670.25, -22, 0, cl__1};
Point(378) = {-670.25, -22, 0.9, cl__1};
Point(379) = {-670.25, -13, 0, cl__1};
Point(380) = {-670.25, -13, 0.9, cl__1};
Point(381) = {-670.25, -19, 0.9, cl__1};
Point(382) = {-670.25, -16, 0.9, cl__1};
Point(383) = {-661.75, -22, 0, cl__1};
Point(384) = {-661.75, -22, 0.9, cl__1};
Point(385) = {-661.75, -24.917, 0, cl__1};
Point(386) = {-661.75, -24.917, 0.9, cl__1};
Point(387) = {-664.25, -24.917, 0, cl__1};
Point(388) = {-664.25, -24.917, 0.9, cl__1};
Point(389) = {-664.25, -22, 0, cl__1};
Point(390) = {-664.25, -22, 0.9, cl__1};
Point(391) = {-664.25, -13, 0, cl__1};
Point(392) = {-664.25, -13, 0.9, cl__1};
Point(393) = {-664.25, -19, 0.9, cl__1};
Point(394) = {-664.25, -16, 0.9, cl__1};
Point(395) = {-664.25, -10.063, 0, cl__1};
Point(396) = {-664.25, -10.063, 0.9, cl__1};
Point(397) = {-661.75, -10.063, 0, cl__1};
Point(398) = {-661.75, -10.063, 0.9, cl__1};
Point(399) = {-661.75, -13, 0, cl__1};
Point(400) = {-661.75, -13, 0.9, cl__1};
Point(401) = {-661.75, -16, 0.9, cl__1};
Point(402) = {-661.75, -19, 0.9, cl__1};
Point(403) = {-709.696, -22, 1.86, cl__1};
Point(404) = {-709.696, -19, 1.86, cl__1};
Point(405) = {-685.7000000000002, -19, 1.86, cl__1};
Point(406) = {-670.5, -19, 0.9, cl__1};
Point(407) = {-670.5, -19, 1.86, cl__1};
Point(408) = {-661.573, -19, 0.9, cl__1};
Point(409) = {-661.573, -19, 1.86, cl__1};
Point(410) = {-661.573, -22, 0.9, cl__1};
Point(411) = {-661.573, -22, 1.86, cl__1};
Point(412) = {-661.573, -24.986, 0.9, cl__1};
Point(413) = {-661.573, -24.986, 1.86, cl__1};
Point(414) = {-670.5, -24.986, 0.9, cl__1};
Point(415) = {-670.5, -24.986, 1.86, cl__1};
Point(416) = {-679.5, -24.986, 0.9, cl__1};
Point(417) = {-679.5, -24.986, 1.86, cl__1};
Point(418) = {-685.7, -24.986, 0.9, cl__1};
Point(419) = {-685.7000000000002, -24.986, 1.86, cl__1};
Point(420) = {-709.696, -24.986, 0.9, cl__1};
Point(421) = {-709.696, -24.986, 1.86, cl__1};
Point(422) = {-685.7000000000002, -16, 1.86, cl__1};
Point(423) = {-709.696, -16, 1.86, cl__1};
Point(424) = {-709.696, -13, 1.86, cl__1};
Point(425) = {-709.696, -10, 0.9, cl__1};
Point(426) = {-709.696, -10, 1.86, cl__1};
Point(427) = {-685.7, -10, 0.9, cl__1};
Point(428) = {-685.7000000000002, -10, 1.86, cl__1};
Point(429) = {-679.5, -10, 0.9, cl__1};
Point(430) = {-679.5, -10, 1.86, cl__1};
Point(431) = {-670.5, -10, 0.9, cl__1};
Point(432) = {-670.5, -10, 1.86, cl__1};
Point(433) = {-670.5, -9.994, 0.9, cl__1};
Point(434) = {-670.5, -9.994, 1.86, cl__1};
Point(435) = {-661.573, -9.994, 0.9, cl__1};
Point(436) = {-661.573, -9.994, 1.86, cl__1};
Point(437) = {-661.573, -13, 0.9, cl__1};
Point(438) = {-661.573, -13, 1.86, cl__1};
Point(439) = {-661.573, -16, 0.9, cl__1};
Point(440) = {-661.573, -16, 1.86, cl__1};
Point(441) = {-670.5, -16, 0.9, cl__1};
Point(442) = {-670.5, -16, 1.86, cl__1};
Point(443) = {-660, -26, 0.9, cl__1};
Point(444) = {-660, -26, 2.13, cl__1};
Point(445) = {-710, -26, 0.9, cl__1};
Point(446) = {-710, -26, 2.13, cl__1};
Point(447) = {-660, -9, 0.9, cl__1};
Point(448) = {-660, -9, 2.13, cl__1};
Point(449) = {-710, -9, 0.9, cl__1};
Point(450) = {-710, -9, 2.13, cl__1};
Point(451) = {-660, -26, 12.13, cl__1};
Point(452) = {-710, -26, 12.13, cl__1};
Point(453) = {-710, -9, 12.13, cl__1};
Point(454) = {-660, -9, 12.13, cl__1};
Line(293) = {198, 199};
Line(295) = {199, 200};
Line(297) = {200, 201};
Line(299) = {201, 202};
Line(301) = {202, 203};
Line(303) = {203, 204};
Line(305) = {204, 205};
Line(307) = {205, 206};
Line(309) = {206, 207};
Line(311) = {207, 208};
Line(312) = {208, 198};
Line(327) = {221, 222};
Line(329) = {222, 223};
Line(331) = {223, 224};
Line(333) = {224, 225};
Line(335) = {225, 226};
Line(337) = {226, 227};
Line(339) = {227, 228};
Line(341) = {228, 229};
Line(343) = {229, 230};
Line(345) = {230, 231};
Line(347) = {231, 232};
Line(348) = {232, 221};
Line(349) = {233, 234};
Line(350) = {235, 236};
Line(351) = {233, 235};
Line(352) = {234, 236};
Line(353) = {237, 238};
Line(354) = {235, 237};
Line(355) = {236, 238};
Line(356) = {239, 240};
Line(357) = {237, 239};
Line(358) = {238, 240};
Line(359) = {241, 242};
Line(360) = {239, 241};
Line(361) = {240, 243};
Line(362) = {243, 244};
Line(363) = {244, 242};
Line(364) = {245, 246};
Line(365) = {241, 245};
Line(366) = {242, 246};
Line(367) = {247, 248};
Line(368) = {245, 247};
Line(369) = {246, 248};
Line(370) = {249, 250};
Line(371) = {247, 249};
Line(372) = {248, 250};
Line(373) = {251, 252};
Line(374) = {249, 251};
Line(375) = {250, 252};
Line(376) = {253, 254};
Line(377) = {251, 253};
Line(378) = {252, 254};
Line(379) = {255, 256};
Line(380) = {253, 255};
Line(381) = {254, 256};
Line(382) = {257, 258};
Line(383) = {255, 257};
Line(384) = {256, 258};
Line(385) = {259, 260};
Line(386) = {257, 259};
Line(387) = {258, 261};
Line(388) = {261, 262};
Line(389) = {262, 260};
Line(390) = {263, 264};
Line(391) = {259, 263};
Line(392) = {260, 264};
Line(393) = {265, 266};
Line(394) = {263, 265};
Line(395) = {264, 266};
Line(396) = {267, 268};
Line(397) = {265, 267};
Line(398) = {266, 268};
Line(399) = {267, 233};
Line(400) = {268, 234};
Line(401) = {243, 262};
Line(402) = {261, 244};
Line(403) = {269, 270};
Line(404) = {271, 272};
Line(405) = {269, 271};
Line(406) = {270, 272};
Line(407) = {273, 274};
Line(408) = {271, 273};
Line(409) = {272, 274};
Line(410) = {275, 276};
Line(411) = {273, 275};
Line(412) = {274, 276};
Line(413) = {277, 278};
Line(414) = {275, 277};
Line(415) = {276, 278};
Line(416) = {279, 280};
Line(417) = {277, 279};
Line(418) = {278, 280};
Line(419) = {281, 282};
Line(420) = {279, 281};
Line(421) = {280, 283};
Line(422) = {283, 284};
Line(423) = {284, 282};
Line(424) = {285, 286};
Line(425) = {281, 285};
Line(426) = {282, 286};
Line(427) = {287, 288};
Line(428) = {285, 287};
Line(429) = {286, 288};
Line(430) = {289, 290};
Line(431) = {287, 289};
Line(432) = {288, 290};
Line(433) = {291, 292};
Line(434) = {289, 291};
Line(435) = {290, 292};
Line(436) = {293, 294};
Line(437) = {291, 293};
Line(438) = {292, 294};
Line(439) = {293, 269};
Line(440) = {294, 295};
Line(441) = {295, 296};
Line(442) = {296, 270};
Line(443) = {283, 296};
Line(444) = {295, 284};
Line(445) = {297, 298};
Line(446) = {299, 300};
Line(447) = {297, 299};
Line(448) = {298, 300};
Line(449) = {301, 302};
Line(450) = {299, 301};
Line(451) = {300, 303};
Line(452) = {303, 304};
Line(453) = {304, 302};
Line(454) = {305, 306};
Line(455) = {301, 305};
Line(456) = {302, 306};
Line(457) = {307, 308};
Line(458) = {305, 307};
Line(459) = {306, 308};
Line(460) = {309, 310};
Line(461) = {307, 309};
Line(462) = {308, 310};
Line(463) = {311, 312};
Line(464) = {309, 311};
Line(465) = {310, 312};
Line(466) = {313, 314};
Line(467) = {311, 313};
Line(468) = {312, 315};
Line(469) = {315, 316};
Line(470) = {316, 314};
Line(471) = {317, 318};
Line(472) = {313, 317};
Line(473) = {314, 318};
Line(474) = {319, 320};
Line(475) = {317, 319};
Line(476) = {318, 320};
Line(477) = {319, 297};
Line(478) = {320, 298};
Line(479) = {321, 316};
Line(480) = {303, 321};
Line(481) = {315, 322};
Line(482) = {322, 304};
Line(483) = {323, 324};
Line(484) = {325, 326};
Line(485) = {323, 325};
Line(486) = {324, 326};
Line(487) = {327, 328};
Line(488) = {325, 327};
Line(489) = {326, 328};
Line(490) = {329, 330};
Line(491) = {327, 329};
Line(492) = {328, 331};
Line(493) = {331, 332};
Line(494) = {332, 330};
Line(495) = {333, 334};
Line(496) = {329, 333};
Line(497) = {330, 334};
Line(498) = {335, 336};
Line(499) = {333, 335};
Line(500) = {334, 336};
Line(501) = {337, 338};
Line(502) = {335, 337};
Line(503) = {336, 338};
Line(504) = {339, 340};
Line(505) = {337, 339};
Line(506) = {338, 341};
Line(507) = {341, 342};
Line(508) = {342, 340};
Line(509) = {339, 323};
Line(510) = {340, 324};
Line(511) = {331, 342};
Line(512) = {341, 332};
Line(513) = {343, 344};
Line(514) = {345, 346};
Line(515) = {343, 345};
Line(516) = {344, 347};
Line(517) = {347, 348};
Line(518) = {348, 346};
Line(519) = {349, 350};
Line(520) = {345, 349};
Line(521) = {346, 350};
Line(522) = {351, 352};
Line(523) = {349, 351};
Line(524) = {350, 352};
Line(525) = {353, 354};
Line(526) = {351, 353};
Line(527) = {352, 354};
Line(528) = {355, 356};
Line(529) = {353, 355};
Line(530) = {354, 357};
Line(531) = {357, 358};
Line(532) = {358, 356};
Line(533) = {359, 360};
Line(534) = {355, 359};
Line(535) = {356, 360};
Line(536) = {361, 362};
Line(537) = {359, 361};
Line(538) = {360, 362};
Line(539) = {361, 343};
Line(540) = {362, 344};
Line(541) = {347, 358};
Line(542) = {357, 348};
Line(543) = {363, 364};
Line(544) = {365, 366};
Line(545) = {363, 365};
Line(546) = {364, 366};
Line(547) = {367, 368};
Line(548) = {365, 367};
Line(549) = {366, 368};
Line(550) = {369, 370};
Line(551) = {367, 369};
Line(552) = {368, 371};
Line(553) = {371, 372};
Line(554) = {372, 370};
Line(555) = {373, 374};
Line(556) = {369, 373};
Line(557) = {370, 374};
Line(558) = {375, 376};
Line(559) = {373, 375};
Line(560) = {374, 376};
Line(561) = {377, 378};
Line(562) = {375, 377};
Line(563) = {376, 378};
Line(564) = {379, 380};
Line(565) = {377, 379};
Line(566) = {378, 381};
Line(567) = {381, 382};
Line(568) = {382, 380};
Line(569) = {379, 363};
Line(570) = {380, 364};
Line(571) = {371, 382};
Line(572) = {381, 372};
Line(573) = {383, 384};
Line(574) = {385, 386};
Line(575) = {383, 385};
Line(576) = {384, 386};
Line(577) = {387, 388};
Line(578) = {385, 387};
Line(579) = {386, 388};
Line(580) = {389, 390};
Line(581) = {387, 389};
Line(582) = {388, 390};
Line(583) = {391, 392};
Line(584) = {389, 391};
Line(585) = {390, 393};
Line(586) = {393, 394};
Line(587) = {394, 392};
Line(588) = {395, 396};
Line(589) = {391, 395};
Line(590) = {392, 396};
Line(591) = {397, 398};
Line(592) = {395, 397};
Line(593) = {396, 398};
Line(594) = {399, 400};
Line(595) = {397, 399};
Line(596) = {398, 400};
Line(597) = {399, 383};
Line(598) = {400, 401};
Line(599) = {401, 402};
Line(600) = {402, 384};
Line(601) = {393, 402};
Line(602) = {401, 394};
Line(603) = {312, 403};
Line(604) = {315, 404};
Line(605) = {403, 404};
Line(606) = {322, 405};
Line(607) = {404, 405};
Line(608) = {406, 407};
Line(609) = {304, 261};
Line(610) = {244, 331};
Line(611) = {342, 357};
Line(612) = {348, 406};
Line(613) = {405, 407};
Line(614) = {408, 409};
Line(615) = {406, 381};
Line(616) = {372, 283};
Line(617) = {296, 393};
Line(618) = {402, 408};
Line(619) = {407, 409};
Line(620) = {410, 411};
Line(621) = {408, 410};
Line(622) = {409, 411};
Line(623) = {412, 413};
Line(624) = {410, 412};
Line(625) = {411, 413};
Line(626) = {414, 415};
Line(627) = {412, 414};
Line(628) = {413, 415};
Line(629) = {416, 417};
Line(630) = {414, 416};
Line(631) = {415, 417};
Line(632) = {418, 419};
Line(633) = {416, 418};
Line(634) = {417, 419};
Line(635) = {420, 421};
Line(636) = {418, 420};
Line(637) = {419, 421};
Line(638) = {420, 310};
Line(639) = {421, 403};
Line(640) = {321, 422};
Line(641) = {316, 423};
Line(642) = {422, 423};
Line(643) = {314, 424};
Line(644) = {423, 424};
Line(645) = {425, 426};
Line(646) = {318, 425};
Line(647) = {424, 426};
Line(648) = {427, 428};
Line(649) = {425, 427};
Line(650) = {426, 428};
Line(651) = {429, 430};
Line(652) = {427, 429};
Line(653) = {428, 430};
Line(654) = {431, 432};
Line(655) = {429, 431};
Line(656) = {430, 432};
Line(657) = {433, 434};
Line(658) = {431, 433};
Line(659) = {432, 434};
Line(660) = {435, 436};
Line(661) = {433, 435};
Line(662) = {434, 436};
Line(663) = {437, 438};
Line(664) = {435, 437};
Line(665) = {436, 438};
Line(666) = {439, 440};
Line(667) = {437, 439};
Line(668) = {438, 440};
Line(669) = {441, 442};
Line(670) = {439, 401};
Line(671) = {394, 295};
Line(672) = {284, 371};
Line(673) = {382, 441};
Line(674) = {440, 442};
Line(675) = {441, 347};
Line(676) = {358, 341};
Line(677) = {332, 243};
Line(678) = {262, 303};
Line(679) = {442, 422};
Line(680) = {403, 198};
Line(681) = {404, 199};
Line(682) = {405, 200};
Line(683) = {407, 201};
Line(684) = {409, 202};
Line(685) = {411, 203};
Line(686) = {413, 204};
Line(687) = {415, 205};
Line(688) = {417, 206};
Line(689) = {419, 207};
Line(690) = {421, 208};
Line(691) = {422, 221};
Line(692) = {423, 222};
Line(693) = {424, 223};
Line(694) = {426, 224};
Line(695) = {428, 225};
Line(696) = {430, 226};
Line(697) = {432, 227};
Line(698) = {434, 228};
Line(699) = {436, 229};
Line(700) = {438, 230};
Line(701) = {440, 231};
Line(702) = {442, 232};
Line(703) = {443, 444};
Line(704) = {445, 446};
Line(705) = {443, 445};
Line(706) = {444, 446};
Line(707) = {447, 448};
Line(708) = {447, 443};
Line(709) = {448, 444};
Line(710) = {449, 450};
Line(711) = {445, 449};
Line(712) = {446, 450};
Line(713) = {449, 447};
Line(714) = {450, 448};
Line(715) = {444, 451};
Line(716) = {446, 452};
Line(717) = {451, 452};
Line(718) = {450, 453};
Line(719) = {452, 453};
Line(720) = {448, 454};
Line(721) = {453, 454};
Line(722) = {454, 451};
Curve Loop(124) = {293, 295, 297, 299, 301, 303, 305, 307, 309, 311, 312};
Plane Surface(124) = {124};
Curve Loop(138) = {327, 329, 331, 333, 335, 337, 339, 341, 343, 345, 347, 348};
Plane Surface(138) = {138};
Curve Loop(139) = {349, 352, -350, -351};
Plane Surface(139) = {139};
Curve Loop(140) = {350, 355, -353, -354};
Plane Surface(140) = {140};
Curve Loop(141) = {353, 358, -356, -357};
Plane Surface(141) = {141};
Curve Loop(142) = {356, 361, 362, 363, -359, -360};
Plane Surface(142) = {142};
Curve Loop(143) = {359, 366, -364, -365};
Plane Surface(143) = {143};
Curve Loop(144) = {364, 369, -367, -368};
Plane Surface(144) = {144};
Curve Loop(145) = {367, 372, -370, -371};
Plane Surface(145) = {145};
Curve Loop(146) = {370, 375, -373, -374};
Plane Surface(146) = {146};
Curve Loop(147) = {373, 378, -376, -377};
Plane Surface(147) = {147};
Curve Loop(148) = {376, 381, -379, -380};
Plane Surface(148) = {148};
Curve Loop(149) = {379, 384, -382, -383};
Plane Surface(149) = {149};
Curve Loop(150) = {382, 387, 388, 389, -385, -386};
Plane Surface(150) = {150};
Curve Loop(151) = {385, 392, -390, -391};
Plane Surface(151) = {151};
Curve Loop(152) = {390, 395, -393, -394};
Plane Surface(152) = {152};
Curve Loop(153) = {393, 398, -396, -397};
Plane Surface(153) = {153};
Curve Loop(154) = {396, 400, -349, -399};
Plane Surface(154) = {154};
Curve Loop(155) = {351, 354, 357, 360, 365, 368, 371, 374, 377, 380, 383, 386, 391, 394, 397, 399};
Plane Surface(155) = {155};
Curve Loop(156) = {400, 352, 355, 358, 361, 401, 389, 392, 395, 398};
Plane Surface(156) = {156};
Curve Loop(157) = {-401, 362, -402, 388};
Plane Surface(157) = {157};
Curve Loop(158) = {402, 363, 366, 369, 372, 375, 378, 381, 384, 387};
Plane Surface(158) = {158};
Curve Loop(159) = {403, 406, -404, -405};
Plane Surface(159) = {159};
Curve Loop(160) = {404, 409, -407, -408};
Plane Surface(160) = {160};
Curve Loop(161) = {407, 412, -410, -411};
Plane Surface(161) = {161};
Curve Loop(162) = {410, 415, -413, -414};
Plane Surface(162) = {162};
Curve Loop(163) = {413, 418, -416, -417};
Plane Surface(163) = {163};
Curve Loop(164) = {416, 421, 422, 423, -419, -420};
Plane Surface(164) = {164};
Curve Loop(165) = {419, 426, -424, -425};
Plane Surface(165) = {165};
Curve Loop(166) = {424, 429, -427, -428};
Plane Surface(166) = {166};
Curve Loop(167) = {427, 432, -430, -431};
Plane Surface(167) = {167};
Curve Loop(168) = {430, 435, -433, -434};
Plane Surface(168) = {168};
Curve Loop(169) = {433, 438, -436, -437};
Plane Surface(169) = {169};
Curve Loop(170) = {436, 440, 441, 442, -403, -439};
Plane Surface(170) = {170};
Curve Loop(171) = {405, 408, 411, 414, 417, 420, 425, 428, 431, 434, 437, 439};
Plane Surface(171) = {171};
Curve Loop(172) = {442, 406, 409, 412, 415, 418, 421, 443};
Plane Surface(172) = {172};
Curve Loop(173) = {441, -443, 422, -444};
Plane Surface(173) = {173};
Curve Loop(174) = {440, 444, 423, 426, 429, 432, 435, 438};
Plane Surface(174) = {174};
Curve Loop(175) = {445, 448, -446, -447};
Plane Surface(175) = {175};
Curve Loop(176) = {446, 451, 452, 453, -449, -450};
Plane Surface(176) = {176};
Curve Loop(177) = {449, 456, -454, -455};
Plane Surface(177) = {177};
Curve Loop(178) = {454, 459, -457, -458};
Plane Surface(178) = {178};
Curve Loop(179) = {457, 462, -460, -461};
Plane Surface(179) = {179};
Curve Loop(180) = {460, 465, -463, -464};
Plane Surface(180) = {180};
Curve Loop(181) = {463, 468, 469, 470, -466, -467};
Plane Surface(181) = {181};
Curve Loop(182) = {466, 473, -471, -472};
Plane Surface(182) = {182};
Curve Loop(183) = {471, 476, -474, -475};
Plane Surface(183) = {183};
Curve Loop(184) = {474, 478, -445, -477};
Plane Surface(184) = {184};
Curve Loop(185) = {447, 450, 455, 458, 461, 464, 467, 472, 475, 477};
Plane Surface(185) = {185};
Curve Loop(186) = {478, 448, 451, 480, 479, 470, 473, 476};
Plane Surface(186) = {186};
Curve Loop(187) = {-480, 452, -482, -481, 469, -479};
Plane Surface(187) = {187};
Curve Loop(188) = {482, 453, 456, 459, 462, 465, 468, 481};
Plane Surface(188) = {188};
Curve Loop(189) = {483, 486, -484, -485};
Plane Surface(189) = {189};
Curve Loop(190) = {484, 489, -487, -488};
Plane Surface(190) = {190};
Curve Loop(191) = {487, 492, 493, 494, -490, -491};
Plane Surface(191) = {191};
Curve Loop(192) = {490, 497, -495, -496};
Plane Surface(192) = {192};
Curve Loop(193) = {495, 500, -498, -499};
Plane Surface(193) = {193};
Curve Loop(194) = {498, 503, -501, -502};
Plane Surface(194) = {194};
Curve Loop(195) = {501, 506, 507, 508, -504, -505};
Plane Surface(195) = {195};
Curve Loop(196) = {504, 510, -483, -509};
Plane Surface(196) = {196};
Curve Loop(197) = {485, 488, 491, 496, 499, 502, 505, 509};
Plane Surface(197) = {197};
Curve Loop(198) = {510, 486, 489, 492, 511, 508};
Plane Surface(198) = {198};
Curve Loop(199) = {507, -511, 493, -512};
Plane Surface(199) = {199};
Curve Loop(200) = {506, 512, 494, 497, 500, 503};
Plane Surface(200) = {200};
Curve Loop(201) = {513, 516, 517, 518, -514, -515};
Plane Surface(201) = {201};
Curve Loop(202) = {514, 521, -519, -520};
Plane Surface(202) = {202};
Curve Loop(203) = {519, 524, -522, -523};
Plane Surface(203) = {203};
Curve Loop(204) = {522, 527, -525, -526};
Plane Surface(204) = {204};
Curve Loop(205) = {525, 530, 531, 532, -528, -529};
Plane Surface(205) = {205};
Curve Loop(206) = {528, 535, -533, -534};
Plane Surface(206) = {206};
Curve Loop(207) = {533, 538, -536, -537};
Plane Surface(207) = {207};
Curve Loop(208) = {536, 540, -513, -539};
Plane Surface(208) = {208};
Curve Loop(209) = {515, 520, 523, 526, 529, 534, 537, 539};
Plane Surface(209) = {209};
Curve Loop(210) = {540, 516, 541, 532, 535, 538};
Plane Surface(210) = {210};
Curve Loop(211) = {-541, 517, -542, 531};
Plane Surface(211) = {211};
Curve Loop(212) = {542, 518, 521, 524, 527, 530};
Plane Surface(212) = {212};
Curve Loop(213) = {543, 546, -544, -545};
Plane Surface(213) = {213};
Curve Loop(214) = {544, 549, -547, -548};
Plane Surface(214) = {214};
Curve Loop(215) = {547, 552, 553, 554, -550, -551};
Plane Surface(215) = {215};
Curve Loop(216) = {550, 557, -555, -556};
Plane Surface(216) = {216};
Curve Loop(217) = {555, 560, -558, -559};
Plane Surface(217) = {217};
Curve Loop(218) = {558, 563, -561, -562};
Plane Surface(218) = {218};
Curve Loop(219) = {561, 566, 567, 568, -564, -565};
Plane Surface(219) = {219};
Curve Loop(220) = {564, 570, -543, -569};
Plane Surface(220) = {220};
Curve Loop(221) = {545, 548, 551, 556, 559, 562, 565, 569};
Plane Surface(221) = {221};
Curve Loop(222) = {570, 546, 549, 552, 571, 568};
Plane Surface(222) = {222};
Curve Loop(223) = {567, -571, 553, -572};
Plane Surface(223) = {223};
Curve Loop(224) = {566, 572, 554, 557, 560, 563};
Plane Surface(224) = {224};
Curve Loop(225) = {573, 576, -574, -575};
Plane Surface(225) = {225};
Curve Loop(226) = {574, 579, -577, -578};
Plane Surface(226) = {226};
Curve Loop(227) = {577, 582, -580, -581};
Plane Surface(227) = {227};
Curve Loop(228) = {580, 585, 586, 587, -583, -584};
Plane Surface(228) = {228};
Curve Loop(229) = {583, 590, -588, -589};
Plane Surface(229) = {229};
Curve Loop(230) = {588, 593, -591, -592};
Plane Surface(230) = {230};
Curve Loop(231) = {591, 596, -594, -595};
Plane Surface(231) = {231};
Curve Loop(232) = {594, 598, 599, 600, -573, -597};
Plane Surface(232) = {232};
Curve Loop(233) = {575, 578, 581, 584, 589, 592, 595, 597};
Plane Surface(233) = {233};
Curve Loop(234) = {600, 576, 579, 582, 585, 601};
Plane Surface(234) = {234};
Curve Loop(235) = {599, -601, 586, -602};
Plane Surface(235) = {235};
Curve Loop(236) = {598, 602, 587, 590, 593, 596};
Plane Surface(236) = {236};
Curve Loop(237) = {603, 605, -604, -468};
Plane Surface(237) = {237};
Curve Loop(238) = {604, 607, -606, -481};
Plane Surface(238) = {238};
Curve Loop(239) = {606, 613, -608, -612, -542, -611, -511, -610, -402, -609, -482};
Plane Surface(239) = {239};
Curve Loop(240) = {608, 619, -614, -618, -601, -617, -443, -616, -572, -615};
Plane Surface(240) = {240};
Curve Loop(241) = {614, 622, -620, -621};
Plane Surface(241) = {241};
Curve Loop(242) = {620, 625, -623, -624};
Plane Surface(242) = {242};
Curve Loop(243) = {623, 628, -626, -627};
Plane Surface(243) = {243};
Curve Loop(244) = {626, 631, -629, -630};
Plane Surface(244) = {244};
Curve Loop(245) = {629, 634, -632, -633};
Plane Surface(245) = {245};
Curve Loop(246) = {632, 637, -635, -636};
Plane Surface(246) = {246};
Curve Loop(247) = {635, 639, -603, -465, -638};
Plane Surface(247) = {247};
Curve Loop(248) = {638, -462, -459, -456, -453, 609, -387, -384, -381, -378, -375, -372, -369, -366, -363, 610, -492, -489, -486, -510, -508, 611, -530, -527, -524, -521, -518, 612, 615, -566, -563, -560, -557, -554, 616, -421, -418, -415, -412, -409, -406, -442, 617, -585, -582, -579, -576, -600, 618, 621, 624, 627, 630, 633, 636};
Plane Surface(248) = {248};
Curve Loop(249) = {605, 607, 613, 619, 622, 625, 628, 631, 634, 637, 639};
Plane Surface(249) = {249};
Curve Loop(250) = {640, 642, -641, -479};
Plane Surface(250) = {250};
Curve Loop(251) = {641, 644, -643, -470};
Plane Surface(251) = {251};
Curve Loop(252) = {643, 647, -645, -646, -473};
Plane Surface(252) = {252};
Curve Loop(253) = {645, 650, -648, -649};
Plane Surface(253) = {253};
Curve Loop(254) = {648, 653, -651, -652};
Plane Surface(254) = {254};
Curve Loop(255) = {651, 656, -654, -655};
Plane Surface(255) = {255};
Curve Loop(256) = {654, 659, -657, -658};
Plane Surface(256) = {256};
Curve Loop(257) = {657, 662, -660, -661};
Plane Surface(257) = {257};
Curve Loop(258) = {660, 665, -663, -664};
Plane Surface(258) = {258};
Curve Loop(259) = {663, 668, -666, -667};
Plane Surface(259) = {259};
Curve Loop(260) = {666, 674, -669, -673, -571, -672, -444, -671, -602, -670};
Plane Surface(260) = {260};
Curve Loop(261) = {669, 679, -640, -480, -678, -401, -677, -512, -676, -541, -675};
Plane Surface(261) = {261};
Curve Loop(262) = {678, -451, -448, -478, -476, 646, 649, 652, 655, 658, 661, 664, 667, 670, -598, -596, -593, -590, -587, 671, -440, -438, -435, -432, -429, -426, -423, 672, -552, -549, -546, -570, -568, 673, 675, -516, -540, -538, -535, -532, 676, -506, -503, -500, -497, -494, 677, -361, -358, -355, -352, -400, -398, -395, -392, -389};
Plane Surface(262) = {262};
Curve Loop(263) = {642, 644, 647, 650, 653, 656, 659, 662, 665, 668, 674, 679};
Plane Surface(263) = {263};
Curve Loop(264) = {680, 293, -681, -605};
Plane Surface(264) = {264};
Curve Loop(265) = {681, 295, -682, -607};
Plane Surface(265) = {265};
Curve Loop(266) = {682, 297, -683, -613};
Plane Surface(266) = {266};
Curve Loop(267) = {683, 299, -684, -619};
Plane Surface(267) = {267};
Curve Loop(268) = {684, 301, -685, -622};
Plane Surface(268) = {268};
Curve Loop(269) = {685, 303, -686, -625};
Plane Surface(269) = {269};
Curve Loop(270) = {686, 305, -687, -628};
Plane Surface(270) = {270};
Curve Loop(271) = {687, 307, -688, -631};
Plane Surface(271) = {271};
Curve Loop(272) = {688, 309, -689, -634};
Plane Surface(272) = {272};
Curve Loop(273) = {689, 311, -690, -637};
Plane Surface(273) = {273};
Curve Loop(274) = {690, 312, -680, -639};
Plane Surface(274) = {274};
Curve Loop(275) = {691, 327, -692, -642};
Plane Surface(275) = {275};
Curve Loop(276) = {692, 329, -693, -644};
Plane Surface(276) = {276};
Curve Loop(277) = {693, 331, -694, -647};
Plane Surface(277) = {277};
Curve Loop(278) = {694, 333, -695, -650};
Plane Surface(278) = {278};
Curve Loop(279) = {695, 335, -696, -653};
Plane Surface(279) = {279};
Curve Loop(280) = {696, 337, -697, -656};
Plane Surface(280) = {280};
Curve Loop(281) = {697, 339, -698, -659};
Plane Surface(281) = {281};
Curve Loop(282) = {698, 341, -699, -662};
Plane Surface(282) = {282};
Curve Loop(283) = {699, 343, -700, -665};
Plane Surface(283) = {283};
Curve Loop(284) = {700, 345, -701, -668};
Plane Surface(284) = {284};
Curve Loop(285) = {701, 347, -702, -674};
Plane Surface(285) = {285};
Curve Loop(286) = {702, 348, -691, -679};
Plane Surface(286) = {286};
Curve Loop(287) = {703, 706, -704, -705};
Plane Surface(287) = {287};
Curve Loop(288) = {707, 709, -703, -708};
Plane Surface(288) = {288};
Curve Loop(289) = {704, 712, -710, -711};
Plane Surface(289) = {289};
Curve Loop(290) = {705, 711, 713, 708, -468, -465, -638, -636, -633, -630, -627, -624, -621, -618, -599, -670, -667, -664, -661, -658, -655, -652, -649, -646, -473, -470, -469};
Plane Surface(290) = {290};
Curve Loop(291) = {-609, -452, -678, -388};
Plane Surface(291) = {291};
Curve Loop(292) = {-610, -362, -677, -493};
Plane Surface(292) = {292};
Curve Loop(293) = {-611, -507, -676, -531};
Plane Surface(293) = {293};
Curve Loop(294) = {-612, -517, -675, -673, -567, -615};
Plane Surface(294) = {294};
Curve Loop(295) = {-586, -617, -441, -671};
Plane Surface(295) = {295};
Curve Loop(296) = {-616, -553, -672, -422};
Plane Surface(296) = {296};
Curve Loop(297) = {706, 712, 714, 709, -293, -312, -311, -309, -307, -305, -303, -301, -299, -297, -295, -327, -348, -347, -345, -343, -341, -339, -337, -335, -333, -331, -329};
Plane Surface(297) = {297};
Curve Loop(298) = {710, 714, -707, -713};
Plane Surface(298) = {298};
Curve Loop(299) = {715, 717, -716, -706};
Plane Surface(299) = {299};
Curve Loop(300) = {716, 719, -718, -712};
Plane Surface(300) = {300};
Curve Loop(301) = {718, 721, -720, -714};
Plane Surface(301) = {301};
Curve Loop(302) = {720, 722, -715, -709};
Plane Surface(302) = {302};
Curve Loop(303) = {717, 719, 721, 722};
Plane Surface(303) = {303};
Surface Loop(1) = {139, 140, 141, 142, 143, 144, 145, 146, 147, 148, 149, 150, 151, 152, 153, 154, 155, 156, 157, 158};
Volume(1) = {1};
Surface Loop(2) = {159, 160, 161, 162, 163, 164, 165, 166, 167, 168, 169, 170, 171, 172, 173, 174};
Volume(2) = {2};
Surface Loop(3) = {175, 176, 177, 178, 179, 180, 181, 182, 183, 184, 185, 186, 187, 188};
Volume(3) = {3};
Surface Loop(4) = {189, 190, 191, 192, 193, 194, 195, 196, 197, 198, 199, 200};
Volume(4) = {4};
Surface Loop(5) = {201, 202, 203, 204, 205, 206, 207, 208, 209, 210, 211, 212};
Volume(5) = {5};
Surface Loop(6) = {213, 214, 215, 216, 217, 218, 219, 220, 221, 222, 223, 224};
Volume(6) = {6};
Surface Loop(7) = {225, 226, 227, 228, 229, 230, 231, 232, 233, 234, 235, 236};
Volume(7) = {7};
Surface Loop(8) = {237, 238, 239, 240, 241, 242, 243, 244, 245, 246, 247, 188, 248, 158, 198, 212, 234, 224, 172, 249};
Volume(8) = {8};
Surface Loop(9) = {250, 251, 252, 253, 254, 255, 256, 257, 258, 259, 260, 261, 186, 262, 156, 200, 210, 222, 174, 236, 263};
Volume(9) = {9};
Surface Loop(10) = {264, 265, 266, 267, 268, 269, 270, 271, 272, 273, 274, 249, 124};
Volume(10) = {10};
Surface Loop(11) = {275, 276, 277, 278, 279, 280, 281, 282, 283, 284, 285, 286, 263, 138};
Volume(11) = {11};
Surface Loop(12) = {287, 288, 289, 290, 187, 291, 157, 292, 199, 293, 211, 294, 235, 295, 223, 173, 296, 297, 298, 237, 238, 239, 240, 241, 242, 243, 244, 245, 246, 247, 250, 251, 252, 253, 254, 255, 256, 257, 258, 259, 260, 261, 264, 265, 266, 267, 268, 269, 270, 271, 272, 273, 274, 275, 276, 277, 278, 279, 280, 281, 282, 283, 284, 285, 286};
Volume(12) = {12};
Surface Loop(13) = {299, 300, 301, 302, 297, 124, 138, 303};
Volume(13) = {13};
Physical Surface("CCD3") = {225, 225, 226, 226, 227, 227, 228, 228, 229, 229, 230, 230, 231, 231, 232, 232, 233, 233, 234, 234, 235, 235, 236, 236};
Physical Surface("CCD2") = {159, 159, 160, 160, 161, 161, 162, 162, 163, 163, 164, 164, 165, 165, 166, 166, 167, 167, 168, 168, 169, 169, 170, 170, 171, 171, 172, 172, 173, 173, 174, 174};
Physical Surface("CCD1") = {213, 213, 214, 214, 215, 215, 216, 216, 217, 217, 218, 218, 219, 219, 220, 220, 221, 221, 222, 222, 223, 223, 224, 224};
Physical Surface("DR3") = {201, 201, 202, 202, 203, 203, 204, 204, 205, 205, 206, 206, 207, 207, 208, 208, 209, 209, 210, 210, 211, 211, 212, 212};
Physical Surface("DR2") = {189, 189, 190, 190, 191, 191, 192, 192, 193, 193, 194, 194, 195, 195, 196, 196, 197, 197, 198, 198, 199, 199, 200, 200};
Physical Surface("DR1") = {139, 139, 140, 140, 141, 141, 142, 142, 143, 143, 144, 144, 145, 145, 146, 146, 147, 147, 148, 148, 149, 149, 150, 150, 151, 151, 152, 152, 153, 153, 154, 154, 155, 155, 156, 156, 157, 157, 158, 158};
Physical Surface("Reservoir") = {175, 175, 176, 176, 177, 177, 178, 178, 179, 179, 180, 180, 181, 181, 182, 182, 183, 183, 184, 184, 185, 185, 186, 186, 187, 187, 188, 188};
Physical Surface("TopMetal") = {124, 124, 138, 138, 249, 249, 263, 263, 264, 264, 265, 265, 266, 266, 267, 267, 268, 268, 269, 269, 270, 270, 271, 271, 272, 272, 273, 273, 274, 274, 275, 275, 276, 276, 277, 277, 278, 278, 279, 279, 280, 280, 281, 281, 282, 282, 283, 283, 284, 284, 285, 285, 286, 286};
Physical Volume("VACUUM") = {13};
Physical Volume("HELIUM") = {12};
Physical Volume("METAL") = {1, 2, 3, 4, 5, 6, 7, 10, 11};
Physical Volume("DIELECTRIC") = {8, 9};
Field[1] = Box;
Field[1].Thickness = 4;
Field[1].VIn = 2;
Field[1].VOut = 5;
Field[1].XMax = -660;
Field[1].XMin = -710;
Field[1].YMax = -9;
Field[1].YMin = -26;
Field[1].ZMax = 6;
Field[1].ZMin = -0.7;
Field[2] = Box;
Field[2].Thickness = 2;
Field[2].VIn = 1;
Field[2].VOut = 5;
Field[2].XMax = -662;
Field[2].XMin = -710;
Field[2].YMax = -15;
Field[2].YMin = -20;
Field[2].ZMax = 4.5;
Field[2].ZMin = -0.1;
Field[3] = Min;
Field[3].FieldsList = {1, 2};
Background Field = 3;
