cl__1 = 1e+22;
Point(1) = {-662, 150, 0, cl__1};
Point(2) = {-662, 150, 0.9, cl__1};
Point(3) = {-662, 125, 0, cl__1};
Point(4) = {-662, 125, 0.9, cl__1};
Point(5) = {-662, 139.081, 0.9, cl__1};
Point(6) = {-662, 136.081, 0.9, cl__1};
Point(7) = {-663.8100000000001, 125, 0, cl__1};
Point(8) = {-663.8100000000001, 125, 0.9, cl__1};
Point(9) = {-663.8100000000001, 133.081, 0, cl__1};
Point(10) = {-663.8100000000001, 133.081, 0.9, cl__1};
Point(11) = {-663.8100000000001, 142.081, 0, cl__1};
Point(12) = {-663.8100000000001, 142.081, 0.9, cl__1};
Point(13) = {-663.8100000000001, 136.081, 0.9, cl__1};
Point(14) = {-663.8100000000001, 139.081, 0.9, cl__1};
Point(15) = {-663.8100000000001, 150, 0, cl__1};
Point(16) = {-663.8100000000001, 150, 0.9, cl__1};
Point(17) = {-664.313, 150, 0, cl__1};
Point(18) = {-664.313, 150, 0.9, cl__1};
Point(19) = {-664.313, 149.081, 0, cl__1};
Point(20) = {-664.313, 149.081, 0.9, cl__1};
Point(21) = {-664.3100000000001, 149.081, 0, cl__1};
Point(22) = {-664.3100000000001, 149.081, 0.9, cl__1};
Point(23) = {-664.3100000000001, 142.699, 0, cl__1};
Point(24) = {-664.3100000000001, 142.699, 0.9, cl__1};
Point(25) = {-664.279, 142.699, 0, cl__1};
Point(26) = {-664.279, 142.699, 0.9, cl__1};
Point(27) = {-664.279, 141.05, 0, cl__1};
Point(28) = {-664.279, 141.05, 0.9, cl__1};
Point(29) = {-664.3100000000001, 141.05, 0, cl__1};
Point(30) = {-664.3100000000001, 141.05, 0.9, cl__1};
Point(31) = {-664.3100000000001, 133.081, 0, cl__1};
Point(32) = {-664.3100000000001, 133.081, 0.9, cl__1};
Point(33) = {-664.3100000000001, 139.081, 0.9, cl__1};
Point(34) = {-664.3100000000001, 136.081, 0.9, cl__1};
Point(35) = {-664.312, 133.081, 0, cl__1};
Point(36) = {-664.312, 133.081, 0.9, cl__1};
Point(37) = {-664.312, 133.076, 0, cl__1};
Point(38) = {-664.312, 133.076, 0.9, cl__1};
Point(39) = {-664.279, 133.076, 0, cl__1};
Point(40) = {-664.279, 133.076, 0.9, cl__1};
Point(41) = {-664.279, 132.033, 0, cl__1};
Point(42) = {-664.279, 132.033, 0.9, cl__1};
Point(43) = {-664.3100000000001, 132.033, 0, cl__1};
Point(44) = {-664.3100000000001, 132.033, 0.9, cl__1};
Point(45) = {-664.3100000000001, 126.872, 0, cl__1};
Point(46) = {-664.3100000000001, 126.872, 0.9, cl__1};
Point(47) = {-664.2850000000001, 126.872, 0, cl__1};
Point(48) = {-664.2850000000001, 126.872, 0.9, cl__1};
Point(49) = {-664.2850000000001, 125, 0, cl__1};
Point(50) = {-664.2850000000001, 125, 0.9, cl__1};
Point(51) = {-666.826, 125, 0, cl__1};
Point(52) = {-666.826, 125, 0.9, cl__1};
Point(53) = {-666.826, 126.872, 0, cl__1};
Point(54) = {-666.826, 126.872, 0.9, cl__1};
Point(55) = {-666.8100000000001, 126.872, 0, cl__1};
Point(56) = {-666.8100000000001, 126.872, 0.9, cl__1};
Point(57) = {-666.8100000000001, 132.581, 0, cl__1};
Point(58) = {-666.8100000000001, 132.581, 0.9, cl__1};
Point(59) = {-666.7910000000001, 132.581, 0, cl__1};
Point(60) = {-666.7910000000001, 132.581, 0.9, cl__1};
Point(61) = {-666.7910000000001, 133.081, 0, cl__1};
Point(62) = {-666.7910000000001, 133.081, 0.9, cl__1};
Point(63) = {-666.8100000000001, 133.081, 0, cl__1};
Point(64) = {-666.8100000000001, 133.081, 0.9, cl__1};
Point(65) = {-666.8100000000001, 141.05, 0, cl__1};
Point(66) = {-666.8100000000001, 141.05, 0.9, cl__1};
Point(67) = {-666.8100000000001, 136.081, 0.9, cl__1};
Point(68) = {-666.8100000000001, 139.081, 0.9, cl__1};
Point(69) = {-666.836, 141.05, 0, cl__1};
Point(70) = {-666.836, 141.05, 0.9, cl__1};
Point(71) = {-666.836, 142.699, 0, cl__1};
Point(72) = {-666.836, 142.699, 0.9, cl__1};
Point(73) = {-666.8100000000001, 142.699, 0, cl__1};
Point(74) = {-666.8100000000001, 142.699, 0.9, cl__1};
Point(75) = {-666.8100000000001, 148.318, 0, cl__1};
Point(76) = {-666.8100000000001, 148.318, 0.9, cl__1};
Point(77) = {-666.836, 148.318, 0, cl__1};
Point(78) = {-666.836, 148.318, 0.9, cl__1};
Point(79) = {-666.836, 150, 0, cl__1};
Point(80) = {-666.836, 150, 0.9, cl__1};
Point(81) = {-667.3100000000001, 150, 0, cl__1};
Point(82) = {-667.3100000000001, 150, 0.9, cl__1};
Point(83) = {-667.3100000000001, 142.081, 0, cl__1};
Point(84) = {-667.3100000000001, 142.081, 0.9, cl__1};
Point(85) = {-667.3100000000001, 133.081, 0, cl__1};
Point(86) = {-667.3100000000001, 133.081, 0.9, cl__1};
Point(87) = {-667.3100000000001, 139.081, 0.9, cl__1};
Point(88) = {-667.3100000000001, 136.081, 0.9, cl__1};
Point(89) = {-667.3100000000001, 125, 0, cl__1};
Point(90) = {-667.3100000000001, 125, 0.9, cl__1};
Point(91) = {-669.8190000000001, 125, 0, cl__1};
Point(92) = {-669.8190000000001, 125, 0.9, cl__1};
Point(93) = {-669.8190000000001, 126.57, 0, cl__1};
Point(94) = {-669.8190000000001, 126.57, 0.9, cl__1};
Point(95) = {-669.647, 126.57, 0, cl__1};
Point(96) = {-669.647, 126.57, 0.9, cl__1};
Point(97) = {-669.647, 126.581, 0, cl__1};
Point(98) = {-669.647, 126.581, 0.9, cl__1};
Point(99) = {-669.8100000000001, 126.581, 0, cl__1};
Point(100) = {-669.8100000000001, 126.581, 0.9, cl__1};
Point(101) = {-669.8100000000001, 133.081, 0, cl__1};
Point(102) = {-669.8100000000001, 133.081, 0.9, cl__1};
Point(103) = {-669.8100000000001, 142.081, 0, cl__1};
Point(104) = {-669.8100000000001, 142.081, 0.9, cl__1};
Point(105) = {-669.8100000000001, 136.081, 0.9, cl__1};
Point(106) = {-669.8100000000001, 139.081, 0.9, cl__1};
Point(107) = {-669.8100000000001, 148.15, 0, cl__1};
Point(108) = {-669.8100000000001, 148.15, 0.9, cl__1};
Point(109) = {-669.831, 148.15, 0, cl__1};
Point(110) = {-669.831, 148.15, 0.9, cl__1};
Point(111) = {-669.831, 150, 0, cl__1};
Point(112) = {-669.831, 150, 0.9, cl__1};
Point(113) = {-670.3100000000001, 150, 0, cl__1};
Point(114) = {-670.3100000000001, 150, 0.9, cl__1};
Point(115) = {-670.3100000000001, 142.081, 0, cl__1};
Point(116) = {-670.3100000000001, 142.081, 0.9, cl__1};
Point(117) = {-670.3100000000001, 148.081, 0.9, cl__1};
Point(118) = {-670.3100000000001, 145.081, 0.9, cl__1};
Point(119) = {-670.3100000000001, 133.081, 0, cl__1};
Point(120) = {-670.3100000000001, 133.081, 0.9, cl__1};
Point(121) = {-670.3100000000001, 139.081, 0.9, cl__1};
Point(122) = {-670.3100000000001, 136.081, 0.9, cl__1};
Point(123) = {-670.3100000000001, 125, 0, cl__1};
Point(124) = {-670.3100000000001, 125, 0.9, cl__1};
Point(125) = {-670.3100000000001, 130.081, 0.9, cl__1};
Point(126) = {-670.3100000000001, 127.081, 0.9, cl__1};
Point(127) = {-672.8100000000001, 125, 0, cl__1};
Point(128) = {-672.8100000000001, 125, 0.9, cl__1};
Point(129) = {-672.8100000000001, 133.081, 0, cl__1};
Point(130) = {-672.8100000000001, 133.081, 0.9, cl__1};
Point(131) = {-672.8100000000001, 127.081, 0.9, cl__1};
Point(132) = {-672.8100000000001, 130.081, 0.9, cl__1};
Point(133) = {-672.8100000000001, 142.081, 0, cl__1};
Point(134) = {-672.8100000000001, 142.081, 0.9, cl__1};
Point(135) = {-672.8100000000001, 136.081, 0.9, cl__1};
Point(136) = {-672.8100000000001, 139.081, 0.9, cl__1};
Point(137) = {-672.8100000000001, 150, 0, cl__1};
Point(138) = {-672.8100000000001, 150, 0.9, cl__1};
Point(139) = {-672.8100000000001, 145.081, 0.9, cl__1};
Point(140) = {-672.8100000000001, 148.081, 0.9, cl__1};
Point(141) = {-673.3100000000001, 150, 0, cl__1};
Point(142) = {-673.3100000000001, 150, 0.9, cl__1};
Point(143) = {-673.3100000000001, 142.081, 0, cl__1};
Point(144) = {-673.3100000000001, 142.081, 0.9, cl__1};
Point(145) = {-673.3100000000001, 148.081, 0.9, cl__1};
Point(146) = {-673.3100000000001, 145.081, 0.9, cl__1};
Point(147) = {-673.3100000000001, 133.081, 0, cl__1};
Point(148) = {-673.3100000000001, 133.081, 0.9, cl__1};
Point(149) = {-673.3100000000001, 139.081, 0.9, cl__1};
Point(150) = {-673.3100000000001, 136.081, 0.9, cl__1};
Point(151) = {-673.3100000000001, 125, 0, cl__1};
Point(152) = {-673.3100000000001, 125, 0.9, cl__1};
Point(153) = {-673.3100000000001, 130.081, 0.9, cl__1};
Point(154) = {-673.3100000000001, 127.081, 0.9, cl__1};
Point(155) = {-675.8100000000001, 125, 0, cl__1};
Point(156) = {-675.8100000000001, 125, 0.9, cl__1};
Point(157) = {-675.8100000000001, 133.081, 0, cl__1};
Point(158) = {-675.8100000000001, 133.081, 0.9, cl__1};
Point(159) = {-675.8100000000001, 127.081, 0.9, cl__1};
Point(160) = {-675.8100000000001, 130.081, 0.9, cl__1};
Point(161) = {-675.8100000000001, 142.081, 0, cl__1};
Point(162) = {-675.8100000000001, 142.081, 0.9, cl__1};
Point(163) = {-675.8100000000001, 136.081, 0.9, cl__1};
Point(164) = {-675.8100000000001, 139.081, 0.9, cl__1};
Point(165) = {-675.8100000000001, 150, 0, cl__1};
Point(166) = {-675.8100000000001, 150, 0.9, cl__1};
Point(167) = {-675.8100000000001, 145.081, 0.9, cl__1};
Point(168) = {-675.8100000000001, 148.081, 0.9, cl__1};
Point(169) = {-676.3100000000001, 150, 0, cl__1};
Point(170) = {-676.3100000000001, 150, 0.9, cl__1};
Point(171) = {-676.3100000000001, 142.581, 0, cl__1};
Point(172) = {-676.3100000000001, 142.581, 0.9, cl__1};
Point(173) = {-676.3100000000001, 148.081, 0.9, cl__1};
Point(174) = {-676.3100000000001, 145.081, 0.9, cl__1};
Point(175) = {-676.3580000000001, 142.581, 0, cl__1};
Point(176) = {-676.3580000000001, 142.581, 0.9, cl__1};
Point(177) = {-676.3580000000001, 141.581, 0, cl__1};
Point(178) = {-676.3580000000001, 141.581, 0.9, cl__1};
Point(179) = {-676.3100000000001, 141.581, 0, cl__1};
Point(180) = {-676.3100000000001, 141.581, 0.9, cl__1};
Point(181) = {-676.3100000000001, 133.581, 0, cl__1};
Point(182) = {-676.3100000000001, 133.581, 0.9, cl__1};
Point(183) = {-676.3100000000001, 139.081, 0.9, cl__1};
Point(184) = {-676.3100000000001, 136.081, 0.9, cl__1};
Point(185) = {-676.325, 133.581, 0, cl__1};
Point(186) = {-676.325, 133.581, 0.9, cl__1};
Point(187) = {-676.325, 132.581, 0, cl__1};
Point(188) = {-676.325, 132.581, 0.9, cl__1};
Point(189) = {-676.3100000000001, 132.581, 0, cl__1};
Point(190) = {-676.3100000000001, 132.581, 0.9, cl__1};
Point(191) = {-676.3100000000001, 125, 0, cl__1};
Point(192) = {-676.3100000000001, 125, 0.9, cl__1};
Point(193) = {-676.3100000000001, 130.081, 0.9, cl__1};
Point(194) = {-676.3100000000001, 127.081, 0.9, cl__1};
Point(195) = {-678.8100000000001, 125, 0, cl__1};
Point(196) = {-678.8100000000001, 125, 0.9, cl__1};
Point(197) = {-678.8100000000001, 126.381, 0, cl__1};
Point(198) = {-678.8100000000001, 126.381, 0.9, cl__1};
Point(199) = {-678.8100000000001, 127.281, 0, cl__1};
Point(200) = {-678.8100000000001, 127.281, 0.9, cl__1};
Point(201) = {-678.8100000000001, 127.081, 0.9, cl__1};
Point(202) = {-678.8100000000001, 127.581, 0, cl__1};
Point(203) = {-678.8100000000001, 127.581, 0.9, cl__1};
Point(204) = {-678.8100000000001, 128.481, 0, cl__1};
Point(205) = {-678.8100000000001, 128.481, 0.9, cl__1};
Point(206) = {-678.8100000000001, 132.581, 0, cl__1};
Point(207) = {-678.8100000000001, 132.581, 0.9, cl__1};
Point(208) = {-678.8100000000001, 130.081, 0.9, cl__1};
Point(209) = {-678.7810000000001, 132.581, 0, cl__1};
Point(210) = {-678.7810000000001, 132.581, 0.9, cl__1};
Point(211) = {-678.7810000000001, 133.581, 0, cl__1};
Point(212) = {-678.7810000000001, 133.581, 0.9, cl__1};
Point(213) = {-678.8100000000001, 133.581, 0, cl__1};
Point(214) = {-678.8100000000001, 133.581, 0.9, cl__1};
Point(215) = {-678.8100000000001, 134.781, 0, cl__1};
Point(216) = {-678.8100000000001, 134.781, 0.9, cl__1};
Point(217) = {-678.8100000000001, 135.681, 0, cl__1};
Point(218) = {-678.8100000000001, 135.681, 0.9, cl__1};
Point(219) = {-678.8100000000001, 141.581, 0, cl__1};
Point(220) = {-678.8100000000001, 141.581, 0.9, cl__1};
Point(221) = {-678.8100000000001, 136.081, 0.9, cl__1};
Point(222) = {-678.8100000000001, 139.081, 0.9, cl__1};
Point(223) = {-678.7810000000001, 141.581, 0, cl__1};
Point(224) = {-678.7810000000001, 141.581, 0.9, cl__1};
Point(225) = {-678.7810000000001, 142.581, 0, cl__1};
Point(226) = {-678.7810000000001, 142.581, 0.9, cl__1};
Point(227) = {-678.8100000000001, 142.581, 0, cl__1};
Point(228) = {-678.8100000000001, 142.581, 0.9, cl__1};
Point(229) = {-678.8100000000001, 150, 0, cl__1};
Point(230) = {-678.8100000000001, 150, 0.9, cl__1};
Point(231) = {-678.8100000000001, 145.081, 0.9, cl__1};
Point(232) = {-678.8100000000001, 148.081, 0.9, cl__1};
Point(233) = {-695, 125, 0, cl__1};
Point(234) = {-695, 125, 0.9, cl__1};
Point(235) = {-695, 150, 0, cl__1};
Point(236) = {-695, 150, 0.9, cl__1};
Point(237) = {-695, 127.081, 0.9, cl__1};
Point(238) = {-695, 130.081, 0.9, cl__1};
Point(239) = {-695, 136.081, 0.9, cl__1};
Point(240) = {-695, 139.081, 0.9, cl__1};
Point(241) = {-695, 145.081, 0.9, cl__1};
Point(242) = {-695, 148.081, 0.9, cl__1};
Point(243) = {-679.3100000000001, 150, 0, cl__1};
Point(244) = {-679.3100000000001, 150, 0.9, cl__1};
Point(245) = {-679.3100000000001, 142.081, 0, cl__1};
Point(246) = {-679.3100000000001, 142.081, 0.9, cl__1};
Point(247) = {-679.3100000000001, 148.081, 0.9, cl__1};
Point(248) = {-679.3100000000001, 145.081, 0.9, cl__1};
Point(249) = {-679.3100000000001, 133.081, 0, cl__1};
Point(250) = {-679.3100000000001, 133.081, 0.9, cl__1};
Point(251) = {-679.3100000000001, 139.081, 0.9, cl__1};
Point(252) = {-679.3100000000001, 136.081, 0.9, cl__1};
Point(253) = {-679.3100000000001, 125, 0, cl__1};
Point(254) = {-679.3100000000001, 125, 0.9, cl__1};
Point(255) = {-679.3100000000001, 130.081, 0.9, cl__1};
Point(256) = {-679.3100000000001, 127.081, 0.9, cl__1};
Point(257) = {-685.26, 127.081, 0.9, cl__1};
Point(258) = {-685.26, 130.081, 0.9, cl__1};
Point(259) = {-685.26, 136.081, 0.9, cl__1};
Point(260) = {-685.26, 139.081, 0.9, cl__1};
Point(261) = {-685.26, 145.081, 0.9, cl__1};
Point(262) = {-685.26, 148.081, 0.9, cl__1};
Point(263) = {-662, 125, 1.86, cl__1};
Point(264) = {-695, 125, 1.86, cl__1};
Point(265) = {-695, 127.081, 1.86, cl__1};
Point(266) = {-685.2599999999999, 127.081, 1.86, cl__1};
Point(267) = {-679.0600000000001, 127.081, 0.9, cl__1};
Point(268) = {-679.0600000000001, 127.081, 1.86, cl__1};
Point(269) = {-670.0600000000001, 127.081, 0.9, cl__1};
Point(270) = {-670.0600000000001, 127.081, 1.86, cl__1};
Point(271) = {-670.0600000000001, 130.081, 0.9, cl__1};
Point(272) = {-670.0600000000001, 130.081, 1.86, cl__1};
Point(273) = {-679.0600000000001, 130.081, 0.9, cl__1};
Point(274) = {-679.0600000000001, 130.081, 1.86, cl__1};
Point(275) = {-685.2599999999999, 130.081, 1.86, cl__1};
Point(276) = {-695, 130.081, 1.86, cl__1};
Point(277) = {-695, 136.081, 1.86, cl__1};
Point(278) = {-685.2599999999999, 136.081, 1.86, cl__1};
Point(279) = {-670.0600000000001, 136.081, 0.9, cl__1};
Point(280) = {-670.0600000000001, 136.081, 1.86, cl__1};
Point(281) = {-662, 136.081, 1.86, cl__1};
Point(282) = {-695, 150, 1.86, cl__1};
Point(283) = {-662, 150, 1.86, cl__1};
Point(284) = {-662, 139.081, 1.86, cl__1};
Point(285) = {-670.0600000000001, 139.081, 0.9, cl__1};
Point(286) = {-670.0600000000001, 139.081, 1.86, cl__1};
Point(287) = {-685.2599999999999, 139.081, 1.86, cl__1};
Point(288) = {-695, 139.081, 1.86, cl__1};
Point(289) = {-695, 145.081, 1.86, cl__1};
Point(290) = {-685.2599999999999, 145.081, 1.86, cl__1};
Point(291) = {-679.0600000000001, 145.081, 0.9, cl__1};
Point(292) = {-679.0600000000001, 145.081, 1.86, cl__1};
Point(293) = {-670.0600000000001, 145.081, 0.9, cl__1};
Point(294) = {-670.0600000000001, 145.081, 1.86, cl__1};
Point(295) = {-670.0600000000001, 148.081, 0.9, cl__1};
Point(296) = {-670.0600000000001, 148.081, 1.86, cl__1};
Point(297) = {-679.0600000000001, 148.081, 0.9, cl__1};
Point(298) = {-679.0600000000001, 148.081, 1.86, cl__1};
Point(299) = {-685.2599999999999, 148.081, 1.86, cl__1};
Point(300) = {-695, 148.081, 1.86, cl__1};
Point(301) = {-662, 125, 2.13, cl__1};
Point(302) = {-695, 125, 2.13, cl__1};
Point(303) = {-695, 127.081, 2.13, cl__1};
Point(304) = {-685.26, 127.081, 2.13, cl__1};
Point(305) = {-679.0600000000001, 127.081, 2.13, cl__1};
Point(306) = {-670.0600000000001, 127.081, 2.13, cl__1};
Point(307) = {-670.0600000000001, 130.081, 2.13, cl__1};
Point(308) = {-679.0600000000001, 130.081, 2.13, cl__1};
Point(309) = {-685.26, 130.081, 2.13, cl__1};
Point(310) = {-695, 130.081, 2.13, cl__1};
Point(311) = {-695, 136.081, 2.13, cl__1};
Point(312) = {-685.26, 136.081, 2.13, cl__1};
Point(313) = {-670.0600000000001, 136.081, 2.13, cl__1};
Point(314) = {-662, 136.081, 2.13, cl__1};
Point(315) = {-695, 150, 2.13, cl__1};
Point(316) = {-662, 150, 2.13, cl__1};
Point(317) = {-662, 139.081, 2.13, cl__1};
Point(318) = {-670.0600000000001, 139.081, 2.13, cl__1};
Point(319) = {-685.26, 139.081, 2.13, cl__1};
Point(320) = {-695, 139.081, 2.13, cl__1};
Point(321) = {-695, 145.081, 2.13, cl__1};
Point(322) = {-685.26, 145.081, 2.13, cl__1};
Point(323) = {-679.0600000000001, 145.081, 2.13, cl__1};
Point(324) = {-670.0600000000001, 145.081, 2.13, cl__1};
Point(325) = {-670.0600000000001, 148.081, 2.13, cl__1};
Point(326) = {-679.0600000000001, 148.081, 2.13, cl__1};
Point(327) = {-685.26, 148.081, 2.13, cl__1};
Point(328) = {-695, 148.081, 2.13, cl__1};
Point(329) = {-695, 125, 12.13, cl__1};
Point(330) = {-695, 150, 12.13, cl__1};
Point(331) = {-662, 150, 12.13, cl__1};
Point(332) = {-662, 125, 12.13, cl__1};
Line(1) = {1, 2};
Line(2) = {3, 4};
Line(3) = {1, 3};
Line(4) = {2, 5};
Line(5) = {5, 6};
Line(6) = {6, 4};
Line(7) = {7, 8};
Line(8) = {3, 7};
Line(9) = {4, 8};
Line(10) = {9, 10};
Line(11) = {7, 9};
Line(12) = {8, 10};
Line(13) = {11, 12};
Line(14) = {9, 11};
Line(15) = {10, 13};
Line(16) = {13, 14};
Line(17) = {14, 12};
Line(18) = {15, 16};
Line(19) = {11, 15};
Line(20) = {12, 16};
Line(21) = {15, 1};
Line(22) = {16, 2};
Line(23) = {5, 14};
Line(24) = {13, 6};
Line(25) = {17, 18};
Line(26) = {19, 20};
Line(27) = {17, 19};
Line(28) = {18, 20};
Line(29) = {21, 22};
Line(30) = {19, 21};
Line(31) = {20, 22};
Line(32) = {23, 24};
Line(33) = {21, 23};
Line(34) = {22, 24};
Line(35) = {25, 26};
Line(36) = {23, 25};
Line(37) = {24, 26};
Line(38) = {27, 28};
Line(39) = {25, 27};
Line(40) = {26, 28};
Line(41) = {29, 30};
Line(42) = {27, 29};
Line(43) = {28, 30};
Line(44) = {31, 32};
Line(45) = {29, 31};
Line(46) = {30, 33};
Line(47) = {33, 34};
Line(48) = {34, 32};
Line(49) = {35, 36};
Line(50) = {31, 35};
Line(51) = {32, 36};
Line(52) = {37, 38};
Line(53) = {35, 37};
Line(54) = {36, 38};
Line(55) = {39, 40};
Line(56) = {37, 39};
Line(57) = {38, 40};
Line(58) = {41, 42};
Line(59) = {39, 41};
Line(60) = {40, 42};
Line(61) = {43, 44};
Line(62) = {41, 43};
Line(63) = {42, 44};
Line(64) = {45, 46};
Line(65) = {43, 45};
Line(66) = {44, 46};
Line(67) = {47, 48};
Line(68) = {45, 47};
Line(69) = {46, 48};
Line(70) = {49, 50};
Line(71) = {47, 49};
Line(72) = {48, 50};
Line(73) = {51, 52};
Line(74) = {49, 51};
Line(75) = {50, 52};
Line(76) = {53, 54};
Line(77) = {51, 53};
Line(78) = {52, 54};
Line(79) = {55, 56};
Line(80) = {53, 55};
Line(81) = {54, 56};
Line(82) = {57, 58};
Line(83) = {55, 57};
Line(84) = {56, 58};
Line(85) = {59, 60};
Line(86) = {57, 59};
Line(87) = {58, 60};
Line(88) = {61, 62};
Line(89) = {59, 61};
Line(90) = {60, 62};
Line(91) = {63, 64};
Line(92) = {61, 63};
Line(93) = {62, 64};
Line(94) = {65, 66};
Line(95) = {63, 65};
Line(96) = {64, 67};
Line(97) = {67, 68};
Line(98) = {68, 66};
Line(99) = {69, 70};
Line(100) = {65, 69};
Line(101) = {66, 70};
Line(102) = {71, 72};
Line(103) = {69, 71};
Line(104) = {70, 72};
Line(105) = {73, 74};
Line(106) = {71, 73};
Line(107) = {72, 74};
Line(108) = {75, 76};
Line(109) = {73, 75};
Line(110) = {74, 76};
Line(111) = {77, 78};
Line(112) = {75, 77};
Line(113) = {76, 78};
Line(114) = {79, 80};
Line(115) = {77, 79};
Line(116) = {78, 80};
Line(117) = {79, 17};
Line(118) = {80, 18};
Line(119) = {33, 68};
Line(120) = {67, 34};
Line(121) = {81, 82};
Line(122) = {83, 84};
Line(123) = {81, 83};
Line(124) = {82, 84};
Line(125) = {85, 86};
Line(126) = {83, 85};
Line(127) = {84, 87};
Line(128) = {87, 88};
Line(129) = {88, 86};
Line(130) = {89, 90};
Line(131) = {85, 89};
Line(132) = {86, 90};
Line(133) = {91, 92};
Line(134) = {89, 91};
Line(135) = {90, 92};
Line(136) = {93, 94};
Line(137) = {91, 93};
Line(138) = {92, 94};
Line(139) = {95, 96};
Line(140) = {93, 95};
Line(141) = {94, 96};
Line(142) = {97, 98};
Line(143) = {95, 97};
Line(144) = {96, 98};
Line(145) = {99, 100};
Line(146) = {97, 99};
Line(147) = {98, 100};
Line(148) = {101, 102};
Line(149) = {99, 101};
Line(150) = {100, 102};
Line(151) = {103, 104};
Line(152) = {101, 103};
Line(153) = {102, 105};
Line(154) = {105, 106};
Line(155) = {106, 104};
Line(156) = {107, 108};
Line(157) = {103, 107};
Line(158) = {104, 108};
Line(159) = {109, 110};
Line(160) = {107, 109};
Line(161) = {108, 110};
Line(162) = {111, 112};
Line(163) = {109, 111};
Line(164) = {110, 112};
Line(165) = {111, 81};
Line(166) = {112, 82};
Line(167) = {87, 106};
Line(168) = {105, 88};
Line(169) = {113, 114};
Line(170) = {115, 116};
Line(171) = {113, 115};
Line(172) = {114, 117};
Line(173) = {117, 118};
Line(174) = {118, 116};
Line(175) = {119, 120};
Line(176) = {115, 119};
Line(177) = {116, 121};
Line(178) = {121, 122};
Line(179) = {122, 120};
Line(180) = {123, 124};
Line(181) = {119, 123};
Line(182) = {120, 125};
Line(183) = {125, 126};
Line(184) = {126, 124};
Line(185) = {127, 128};
Line(186) = {123, 127};
Line(187) = {124, 128};
Line(188) = {129, 130};
Line(189) = {127, 129};
Line(190) = {128, 131};
Line(191) = {131, 132};
Line(192) = {132, 130};
Line(193) = {133, 134};
Line(194) = {129, 133};
Line(195) = {130, 135};
Line(196) = {135, 136};
Line(197) = {136, 134};
Line(198) = {137, 138};
Line(199) = {133, 137};
Line(200) = {134, 139};
Line(201) = {139, 140};
Line(202) = {140, 138};
Line(203) = {137, 113};
Line(204) = {138, 114};
Line(205) = {117, 140};
Line(206) = {139, 118};
Line(207) = {121, 136};
Line(208) = {135, 122};
Line(209) = {125, 132};
Line(210) = {131, 126};
Line(211) = {141, 142};
Line(212) = {143, 144};
Line(213) = {141, 143};
Line(214) = {142, 145};
Line(215) = {145, 146};
Line(216) = {146, 144};
Line(217) = {147, 148};
Line(218) = {143, 147};
Line(219) = {144, 149};
Line(220) = {149, 150};
Line(221) = {150, 148};
Line(222) = {151, 152};
Line(223) = {147, 151};
Line(224) = {148, 153};
Line(225) = {153, 154};
Line(226) = {154, 152};
Line(227) = {155, 156};
Line(228) = {151, 155};
Line(229) = {152, 156};
Line(230) = {157, 158};
Line(231) = {155, 157};
Line(232) = {156, 159};
Line(233) = {159, 160};
Line(234) = {160, 158};
Line(235) = {161, 162};
Line(236) = {157, 161};
Line(237) = {158, 163};
Line(238) = {163, 164};
Line(239) = {164, 162};
Line(240) = {165, 166};
Line(241) = {161, 165};
Line(242) = {162, 167};
Line(243) = {167, 168};
Line(244) = {168, 166};
Line(245) = {165, 141};
Line(246) = {166, 142};
Line(247) = {145, 168};
Line(248) = {167, 146};
Line(249) = {149, 164};
Line(250) = {163, 150};
Line(251) = {153, 160};
Line(252) = {159, 154};
Line(253) = {169, 170};
Line(254) = {171, 172};
Line(255) = {169, 171};
Line(256) = {170, 173};
Line(257) = {173, 174};
Line(258) = {174, 172};
Line(259) = {175, 176};
Line(260) = {171, 175};
Line(261) = {172, 176};
Line(262) = {177, 178};
Line(263) = {175, 177};
Line(264) = {176, 178};
Line(265) = {179, 180};
Line(266) = {177, 179};
Line(267) = {178, 180};
Line(268) = {181, 182};
Line(269) = {179, 181};
Line(270) = {180, 183};
Line(271) = {183, 184};
Line(272) = {184, 182};
Line(273) = {185, 186};
Line(274) = {181, 185};
Line(275) = {182, 186};
Line(276) = {187, 188};
Line(277) = {185, 187};
Line(278) = {186, 188};
Line(279) = {189, 190};
Line(280) = {187, 189};
Line(281) = {188, 190};
Line(282) = {191, 192};
Line(283) = {189, 191};
Line(284) = {190, 193};
Line(285) = {193, 194};
Line(286) = {194, 192};
Line(287) = {195, 196};
Line(288) = {191, 195};
Line(289) = {192, 196};
Line(290) = {197, 198};
Line(291) = {195, 197};
Line(292) = {196, 198};
Line(293) = {199, 200};
Line(294) = {197, 199};
Line(295) = {198, 201};
Line(296) = {201, 200};
Line(297) = {202, 203};
Line(298) = {199, 202};
Line(299) = {200, 203};
Line(300) = {204, 205};
Line(301) = {202, 204};
Line(302) = {203, 205};
Line(303) = {206, 207};
Line(304) = {204, 206};
Line(305) = {205, 208};
Line(306) = {208, 207};
Line(307) = {209, 210};
Line(308) = {206, 209};
Line(309) = {207, 210};
Line(310) = {211, 212};
Line(311) = {209, 211};
Line(312) = {210, 212};
Line(313) = {213, 214};
Line(314) = {211, 213};
Line(315) = {212, 214};
Line(316) = {215, 216};
Line(317) = {213, 215};
Line(318) = {214, 216};
Line(319) = {217, 218};
Line(320) = {215, 217};
Line(321) = {216, 218};
Line(322) = {219, 220};
Line(323) = {217, 219};
Line(324) = {218, 221};
Line(325) = {221, 222};
Line(326) = {222, 220};
Line(327) = {223, 224};
Line(328) = {219, 223};
Line(329) = {220, 224};
Line(330) = {225, 226};
Line(331) = {223, 225};
Line(332) = {224, 226};
Line(333) = {227, 228};
Line(334) = {225, 227};
Line(335) = {226, 228};
Line(336) = {229, 230};
Line(337) = {227, 229};
Line(338) = {228, 231};
Line(339) = {231, 232};
Line(340) = {232, 230};
Line(341) = {229, 169};
Line(342) = {230, 170};
Line(343) = {173, 232};
Line(344) = {231, 174};
Line(345) = {183, 222};
Line(346) = {221, 184};
Line(347) = {193, 208};
Line(348) = {201, 194};
Line(349) = {233, 234};
Line(350) = {235, 236};
Line(351) = {233, 235};
Line(352) = {234, 237};
Line(353) = {237, 238};
Line(354) = {238, 239};
Line(355) = {239, 240};
Line(356) = {240, 241};
Line(357) = {241, 242};
Line(358) = {242, 236};
Line(359) = {243, 244};
Line(360) = {235, 243};
Line(361) = {236, 244};
Line(362) = {245, 246};
Line(363) = {243, 245};
Line(364) = {244, 247};
Line(365) = {247, 248};
Line(366) = {248, 246};
Line(367) = {249, 250};
Line(368) = {245, 249};
Line(369) = {246, 251};
Line(370) = {251, 252};
Line(371) = {252, 250};
Line(372) = {253, 254};
Line(373) = {249, 253};
Line(374) = {250, 255};
Line(375) = {255, 256};
Line(376) = {256, 254};
Line(377) = {253, 233};
Line(378) = {254, 234};
Line(379) = {257, 256};
Line(380) = {237, 257};
Line(381) = {255, 258};
Line(382) = {258, 238};
Line(383) = {259, 252};
Line(384) = {239, 259};
Line(385) = {251, 260};
Line(386) = {260, 240};
Line(387) = {261, 248};
Line(388) = {241, 261};
Line(389) = {247, 262};
Line(390) = {262, 242};
Line(391) = {4, 263};
Line(392) = {234, 264};
Line(393) = {8, 50};
Line(394) = {52, 90};
Line(395) = {92, 124};
Line(396) = {128, 152};
Line(397) = {156, 192};
Line(398) = {196, 254};
Line(399) = {263, 264};
Line(400) = {237, 265};
Line(401) = {264, 265};
Line(402) = {257, 266};
Line(403) = {265, 266};
Line(404) = {267, 268};
Line(405) = {256, 267};
Line(406) = {266, 268};
Line(407) = {269, 270};
Line(408) = {267, 201};
Line(409) = {194, 159};
Line(410) = {154, 131};
Line(411) = {126, 269};
Line(412) = {268, 270};
Line(413) = {271, 272};
Line(414) = {269, 271};
Line(415) = {270, 272};
Line(416) = {273, 274};
Line(417) = {271, 125};
Line(418) = {132, 153};
Line(419) = {160, 193};
Line(420) = {208, 273};
Line(421) = {272, 274};
Line(422) = {258, 275};
Line(423) = {273, 255};
Line(424) = {274, 275};
Line(425) = {238, 276};
Line(426) = {275, 276};
Line(427) = {239, 277};
Line(428) = {276, 277};
Line(429) = {259, 278};
Line(430) = {277, 278};
Line(431) = {279, 280};
Line(432) = {252, 221};
Line(433) = {184, 163};
Line(434) = {150, 135};
Line(435) = {122, 279};
Line(436) = {278, 280};
Line(437) = {6, 281};
Line(438) = {279, 105};
Line(439) = {88, 67};
Line(440) = {34, 13};
Line(441) = {280, 281};
Line(442) = {281, 263};
Line(443) = {236, 282};
Line(444) = {2, 283};
Line(445) = {244, 230};
Line(446) = {170, 166};
Line(447) = {142, 138};
Line(448) = {114, 112};
Line(449) = {82, 80};
Line(450) = {18, 16};
Line(451) = {282, 283};
Line(452) = {5, 284};
Line(453) = {283, 284};
Line(454) = {285, 286};
Line(455) = {14, 33};
Line(456) = {68, 87};
Line(457) = {106, 285};
Line(458) = {284, 286};
Line(459) = {260, 287};
Line(460) = {285, 121};
Line(461) = {136, 149};
Line(462) = {164, 183};
Line(463) = {222, 251};
Line(464) = {286, 287};
Line(465) = {240, 288};
Line(466) = {287, 288};
Line(467) = {241, 289};
Line(468) = {288, 289};
Line(469) = {261, 290};
Line(470) = {289, 290};
Line(471) = {291, 292};
Line(472) = {248, 291};
Line(473) = {290, 292};
Line(474) = {293, 294};
Line(475) = {291, 231};
Line(476) = {174, 167};
Line(477) = {146, 139};
Line(478) = {118, 293};
Line(479) = {292, 294};
Line(480) = {295, 296};
Line(481) = {293, 295};
Line(482) = {294, 296};
Line(483) = {297, 298};
Line(484) = {295, 117};
Line(485) = {140, 145};
Line(486) = {168, 173};
Line(487) = {232, 297};
Line(488) = {296, 298};
Line(489) = {262, 299};
Line(490) = {297, 247};
Line(491) = {298, 299};
Line(492) = {242, 300};
Line(493) = {299, 300};
Line(494) = {300, 282};
Line(495) = {263, 301};
Line(496) = {264, 302};
Line(497) = {301, 302};
Line(498) = {265, 303};
Line(499) = {302, 303};
Line(500) = {266, 304};
Line(501) = {303, 304};
Line(502) = {268, 305};
Line(503) = {304, 305};
Line(504) = {270, 306};
Line(505) = {305, 306};
Line(506) = {272, 307};
Line(507) = {306, 307};
Line(508) = {274, 308};
Line(509) = {307, 308};
Line(510) = {275, 309};
Line(511) = {308, 309};
Line(512) = {276, 310};
Line(513) = {309, 310};
Line(514) = {277, 311};
Line(515) = {310, 311};
Line(516) = {278, 312};
Line(517) = {311, 312};
Line(518) = {280, 313};
Line(519) = {312, 313};
Line(520) = {281, 314};
Line(521) = {313, 314};
Line(522) = {314, 301};
Line(523) = {282, 315};
Line(524) = {283, 316};
Line(525) = {315, 316};
Line(526) = {284, 317};
Line(527) = {316, 317};
Line(528) = {286, 318};
Line(529) = {317, 318};
Line(530) = {287, 319};
Line(531) = {318, 319};
Line(532) = {288, 320};
Line(533) = {319, 320};
Line(534) = {289, 321};
Line(535) = {320, 321};
Line(536) = {290, 322};
Line(537) = {321, 322};
Line(538) = {292, 323};
Line(539) = {322, 323};
Line(540) = {294, 324};
Line(541) = {323, 324};
Line(542) = {296, 325};
Line(543) = {324, 325};
Line(544) = {298, 326};
Line(545) = {325, 326};
Line(546) = {299, 327};
Line(547) = {326, 327};
Line(548) = {300, 328};
Line(549) = {327, 328};
Line(550) = {328, 315};
Line(551) = {303, 310};
Line(552) = {317, 314};
Line(553) = {311, 320};
Line(554) = {321, 328};
Line(555) = {302, 329};
Line(556) = {315, 330};
Line(557) = {329, 330};
Line(558) = {316, 331};
Line(559) = {330, 331};
Line(560) = {301, 332};
Line(561) = {331, 332};
Line(562) = {332, 329};
Curve Loop(1) = {1, 4, 5, 6, -2, -3};
Plane Surface(1) = {1};
Curve Loop(2) = {2, 9, -7, -8};
Plane Surface(2) = {2};
Curve Loop(3) = {7, 12, -10, -11};
Plane Surface(3) = {3};
Curve Loop(4) = {10, 15, 16, 17, -13, -14};
Plane Surface(4) = {4};
Curve Loop(5) = {13, 20, -18, -19};
Plane Surface(5) = {5};
Curve Loop(6) = {18, 22, -1, -21};
Plane Surface(6) = {6};
Curve Loop(7) = {3, 8, 11, 14, 19, 21};
Plane Surface(7) = {7};
Curve Loop(8) = {22, 4, 23, 17, 20};
Plane Surface(8) = {8};
Curve Loop(9) = {-23, 5, -24, 16};
Plane Surface(9) = {9};
Curve Loop(10) = {24, 6, 9, 12, 15};
Plane Surface(10) = {10};
Curve Loop(11) = {25, 28, -26, -27};
Plane Surface(11) = {11};
Curve Loop(12) = {26, 31, -29, -30};
Plane Surface(12) = {12};
Curve Loop(13) = {29, 34, -32, -33};
Plane Surface(13) = {13};
Curve Loop(14) = {32, 37, -35, -36};
Plane Surface(14) = {14};
Curve Loop(15) = {35, 40, -38, -39};
Plane Surface(15) = {15};
Curve Loop(16) = {38, 43, -41, -42};
Plane Surface(16) = {16};
Curve Loop(17) = {41, 46, 47, 48, -44, -45};
Plane Surface(17) = {17};
Curve Loop(18) = {44, 51, -49, -50};
Plane Surface(18) = {18};
Curve Loop(19) = {49, 54, -52, -53};
Plane Surface(19) = {19};
Curve Loop(20) = {52, 57, -55, -56};
Plane Surface(20) = {20};
Curve Loop(21) = {55, 60, -58, -59};
Plane Surface(21) = {21};
Curve Loop(22) = {58, 63, -61, -62};
Plane Surface(22) = {22};
Curve Loop(23) = {61, 66, -64, -65};
Plane Surface(23) = {23};
Curve Loop(24) = {64, 69, -67, -68};
Plane Surface(24) = {24};
Curve Loop(25) = {67, 72, -70, -71};
Plane Surface(25) = {25};
Curve Loop(26) = {70, 75, -73, -74};
Plane Surface(26) = {26};
Curve Loop(27) = {73, 78, -76, -77};
Plane Surface(27) = {27};
Curve Loop(28) = {76, 81, -79, -80};
Plane Surface(28) = {28};
Curve Loop(29) = {79, 84, -82, -83};
Plane Surface(29) = {29};
Curve Loop(30) = {82, 87, -85, -86};
Plane Surface(30) = {30};
Curve Loop(31) = {85, 90, -88, -89};
Plane Surface(31) = {31};
Curve Loop(32) = {88, 93, -91, -92};
Plane Surface(32) = {32};
Curve Loop(33) = {91, 96, 97, 98, -94, -95};
Plane Surface(33) = {33};
Curve Loop(34) = {94, 101, -99, -100};
Plane Surface(34) = {34};
Curve Loop(35) = {99, 104, -102, -103};
Plane Surface(35) = {35};
Curve Loop(36) = {102, 107, -105, -106};
Plane Surface(36) = {36};
Curve Loop(37) = {105, 110, -108, -109};
Plane Surface(37) = {37};
Curve Loop(38) = {108, 113, -111, -112};
Plane Surface(38) = {38};
Curve Loop(39) = {111, 116, -114, -115};
Plane Surface(39) = {39};
Curve Loop(40) = {114, 118, -25, -117};
Plane Surface(40) = {40};
Curve Loop(41) = {27, 30, 33, 36, 39, 42, 45, 50, 53, 56, 59, 62, 65, 68, 71, 74, 77, 80, 83, 86, 89, 92, 95, 100, 103, 106, 109, 112, 115, 117};
Plane Surface(41) = {41};
Curve Loop(42) = {118, 28, 31, 34, 37, 40, 43, 46, 119, 98, 101, 104, 107, 110, 113, 116};
Plane Surface(42) = {42};
Curve Loop(43) = {-119, 47, -120, 97};
Plane Surface(43) = {43};
Curve Loop(44) = {120, 48, 51, 54, 57, 60, 63, 66, 69, 72, 75, 78, 81, 84, 87, 90, 93, 96};
Plane Surface(44) = {44};
Curve Loop(45) = {121, 124, -122, -123};
Plane Surface(45) = {45};
Curve Loop(46) = {122, 127, 128, 129, -125, -126};
Plane Surface(46) = {46};
Curve Loop(47) = {125, 132, -130, -131};
Plane Surface(47) = {47};
Curve Loop(48) = {130, 135, -133, -134};
Plane Surface(48) = {48};
Curve Loop(49) = {133, 138, -136, -137};
Plane Surface(49) = {49};
Curve Loop(50) = {136, 141, -139, -140};
Plane Surface(50) = {50};
Curve Loop(51) = {139, 144, -142, -143};
Plane Surface(51) = {51};
Curve Loop(52) = {142, 147, -145, -146};
Plane Surface(52) = {52};
Curve Loop(53) = {145, 150, -148, -149};
Plane Surface(53) = {53};
Curve Loop(54) = {148, 153, 154, 155, -151, -152};
Plane Surface(54) = {54};
Curve Loop(55) = {151, 158, -156, -157};
Plane Surface(55) = {55};
Curve Loop(56) = {156, 161, -159, -160};
Plane Surface(56) = {56};
Curve Loop(57) = {159, 164, -162, -163};
Plane Surface(57) = {57};
Curve Loop(58) = {162, 166, -121, -165};
Plane Surface(58) = {58};
Curve Loop(59) = {123, 126, 131, 134, 137, 140, 143, 146, 149, 152, 157, 160, 163, 165};
Plane Surface(59) = {59};
Curve Loop(60) = {166, 124, 127, 167, 155, 158, 161, 164};
Plane Surface(60) = {60};
Curve Loop(61) = {-167, 128, -168, 154};
Plane Surface(61) = {61};
Curve Loop(62) = {168, 129, 132, 135, 138, 141, 144, 147, 150, 153};
Plane Surface(62) = {62};
Curve Loop(63) = {169, 172, 173, 174, -170, -171};
Plane Surface(63) = {63};
Curve Loop(64) = {170, 177, 178, 179, -175, -176};
Plane Surface(64) = {64};
Curve Loop(65) = {175, 182, 183, 184, -180, -181};
Plane Surface(65) = {65};
Curve Loop(66) = {180, 187, -185, -186};
Plane Surface(66) = {66};
Curve Loop(67) = {185, 190, 191, 192, -188, -189};
Plane Surface(67) = {67};
Curve Loop(68) = {188, 195, 196, 197, -193, -194};
Plane Surface(68) = {68};
Curve Loop(69) = {193, 200, 201, 202, -198, -199};
Plane Surface(69) = {69};
Curve Loop(70) = {198, 204, -169, -203};
Plane Surface(70) = {70};
Curve Loop(71) = {171, 176, 181, 186, 189, 194, 199, 203};
Plane Surface(71) = {71};
Curve Loop(72) = {204, 172, 205, 202};
Plane Surface(72) = {72};
Curve Loop(73) = {-205, 173, -206, 201};
Plane Surface(73) = {73};
Curve Loop(74) = {206, 174, 177, 207, 197, 200};
Plane Surface(74) = {74};
Curve Loop(75) = {-207, 178, -208, 196};
Plane Surface(75) = {75};
Curve Loop(76) = {208, 179, 182, 209, 192, 195};
Plane Surface(76) = {76};
Curve Loop(77) = {-209, 183, -210, 191};
Plane Surface(77) = {77};
Curve Loop(78) = {210, 184, 187, 190};
Plane Surface(78) = {78};
Curve Loop(79) = {211, 214, 215, 216, -212, -213};
Plane Surface(79) = {79};
Curve Loop(80) = {212, 219, 220, 221, -217, -218};
Plane Surface(80) = {80};
Curve Loop(81) = {217, 224, 225, 226, -222, -223};
Plane Surface(81) = {81};
Curve Loop(82) = {222, 229, -227, -228};
Plane Surface(82) = {82};
Curve Loop(83) = {227, 232, 233, 234, -230, -231};
Plane Surface(83) = {83};
Curve Loop(84) = {230, 237, 238, 239, -235, -236};
Plane Surface(84) = {84};
Curve Loop(85) = {235, 242, 243, 244, -240, -241};
Plane Surface(85) = {85};
Curve Loop(86) = {240, 246, -211, -245};
Plane Surface(86) = {86};
Curve Loop(87) = {213, 218, 223, 228, 231, 236, 241, 245};
Plane Surface(87) = {87};
Curve Loop(88) = {246, 214, 247, 244};
Plane Surface(88) = {88};
Curve Loop(89) = {-247, 215, -248, 243};
Plane Surface(89) = {89};
Curve Loop(90) = {248, 216, 219, 249, 239, 242};
Plane Surface(90) = {90};
Curve Loop(91) = {-249, 220, -250, 238};
Plane Surface(91) = {91};
Curve Loop(92) = {250, 221, 224, 251, 234, 237};
Plane Surface(92) = {92};
Curve Loop(93) = {-251, 225, -252, 233};
Plane Surface(93) = {93};
Curve Loop(94) = {252, 226, 229, 232};
Plane Surface(94) = {94};
Curve Loop(95) = {253, 256, 257, 258, -254, -255};
Plane Surface(95) = {95};
Curve Loop(96) = {254, 261, -259, -260};
Plane Surface(96) = {96};
Curve Loop(97) = {259, 264, -262, -263};
Plane Surface(97) = {97};
Curve Loop(98) = {262, 267, -265, -266};
Plane Surface(98) = {98};
Curve Loop(99) = {265, 270, 271, 272, -268, -269};
Plane Surface(99) = {99};
Curve Loop(100) = {268, 275, -273, -274};
Plane Surface(100) = {100};
Curve Loop(101) = {273, 278, -276, -277};
Plane Surface(101) = {101};
Curve Loop(102) = {276, 281, -279, -280};
Plane Surface(102) = {102};
Curve Loop(103) = {279, 284, 285, 286, -282, -283};
Plane Surface(103) = {103};
Curve Loop(104) = {282, 289, -287, -288};
Plane Surface(104) = {104};
Curve Loop(105) = {287, 292, -290, -291};
Plane Surface(105) = {105};
Curve Loop(106) = {290, 295, 296, -293, -294};
Plane Surface(106) = {106};
Curve Loop(107) = {293, 299, -297, -298};
Plane Surface(107) = {107};
Curve Loop(108) = {297, 302, -300, -301};
Plane Surface(108) = {108};
Curve Loop(109) = {300, 305, 306, -303, -304};
Plane Surface(109) = {109};
Curve Loop(110) = {303, 309, -307, -308};
Plane Surface(110) = {110};
Curve Loop(111) = {307, 312, -310, -311};
Plane Surface(111) = {111};
Curve Loop(112) = {310, 315, -313, -314};
Plane Surface(112) = {112};
Curve Loop(113) = {313, 318, -316, -317};
Plane Surface(113) = {113};
Curve Loop(114) = {316, 321, -319, -320};
Plane Surface(114) = {114};
Curve Loop(115) = {319, 324, 325, 326, -322, -323};
Plane Surface(115) = {115};
Curve Loop(116) = {322, 329, -327, -328};
Plane Surface(116) = {116};
Curve Loop(117) = {327, 332, -330, -331};
Plane Surface(117) = {117};
Curve Loop(118) = {330, 335, -333, -334};
Plane Surface(118) = {118};
Curve Loop(119) = {333, 338, 339, 340, -336, -337};
Plane Surface(119) = {119};
Curve Loop(120) = {336, 342, -253, -341};
Plane Surface(120) = {120};
Curve Loop(121) = {255, 260, 263, 266, 269, 274, 277, 280, 283, 288, 291, 294, 298, 301, 304, 308, 311, 314, 317, 320, 323, 328, 331, 334, 337, 341};
Plane Surface(121) = {121};
Curve Loop(122) = {342, 256, 343, 340};
Plane Surface(122) = {122};
Curve Loop(123) = {-343, 257, -344, 339};
Plane Surface(123) = {123};
Curve Loop(124) = {344, 258, 261, 264, 267, 270, 345, 326, 329, 332, 335, 338};
Plane Surface(124) = {124};
Curve Loop(125) = {-345, 271, -346, 325};
Plane Surface(125) = {125};
Curve Loop(126) = {346, 272, 275, 278, 281, 284, 347, 306, 309, 312, 315, 318, 321, 324};
Plane Surface(126) = {126};
Curve Loop(127) = {-347, 285, -348, 296, 299, 302, 305};
Plane Surface(127) = {127};
Curve Loop(128) = {348, 286, 289, 292, 295};
Plane Surface(128) = {128};
Curve Loop(129) = {349, 352, 353, 354, 355, 356, 357, 358, -350, -351};
Plane Surface(129) = {129};
Curve Loop(130) = {350, 361, -359, -360};
Plane Surface(130) = {130};
Curve Loop(131) = {359, 364, 365, 366, -362, -363};
Plane Surface(131) = {131};
Curve Loop(132) = {362, 369, 370, 371, -367, -368};
Plane Surface(132) = {132};
Curve Loop(133) = {367, 374, 375, 376, -372, -373};
Plane Surface(133) = {133};
Curve Loop(134) = {372, 378, -349, -377};
Plane Surface(134) = {134};
Curve Loop(135) = {351, 360, 363, 368, 373, 377};
Plane Surface(135) = {135};
Curve Loop(136) = {378, 352, 380, 379, 376};
Plane Surface(136) = {136};
Curve Loop(137) = {-380, 353, -382, -381, 375, -379};
Plane Surface(137) = {137};
Curve Loop(138) = {382, 354, 384, 383, 371, 374, 381};
Plane Surface(138) = {138};
Curve Loop(139) = {-384, 355, -386, -385, 370, -383};
Plane Surface(139) = {139};
Curve Loop(140) = {386, 356, 388, 387, 366, 369, 385};
Plane Surface(140) = {140};
Curve Loop(141) = {-388, 357, -390, -389, 365, -387};
Plane Surface(141) = {141};
Curve Loop(142) = {390, 358, 361, 364, 389};
Plane Surface(142) = {142};
Curve Loop(143) = {391, 399, -392, -378, -398, -289, -397, -229, -396, -187, -395, -135, -394, -75, -393, -9};
Plane Surface(143) = {143};
Curve Loop(144) = {392, 401, -400, -352};
Plane Surface(144) = {144};
Curve Loop(145) = {400, 403, -402, -380};
Plane Surface(145) = {145};
Curve Loop(146) = {402, 406, -404, -405, -379};
Plane Surface(146) = {146};
Curve Loop(147) = {404, 412, -407, -411, -210, -410, -252, -409, -348, -408};
Plane Surface(147) = {147};
Curve Loop(148) = {407, 415, -413, -414};
Plane Surface(148) = {148};
Curve Loop(149) = {413, 421, -416, -420, -347, -419, -251, -418, -209, -417};
Plane Surface(149) = {149};
Curve Loop(150) = {416, 424, -422, -381, -423};
Plane Surface(150) = {150};
Curve Loop(151) = {422, 426, -425, -382};
Plane Surface(151) = {151};
Curve Loop(152) = {425, 428, -427, -354};
Plane Surface(152) = {152};
Curve Loop(153) = {427, 430, -429, -384};
Plane Surface(153) = {153};
Curve Loop(154) = {429, 436, -431, -435, -208, -434, -250, -433, -346, -432, -383};
Plane Surface(154) = {154};
Curve Loop(155) = {431, 441, -437, -24, -440, -120, -439, -168, -438};
Plane Surface(155) = {155};
Curve Loop(156) = {437, 442, -391, -6};
Plane Surface(156) = {156};
Curve Loop(157) = {-12, 393, -72, -69, -66, -63, -60, -57, -54, -51, -48, 440, -15};
Plane Surface(157) = {157};
Curve Loop(158) = {-78, 394, -132, -129, 439, -96, -93, -90, -87, -84, -81};
Plane Surface(158) = {158};
Curve Loop(159) = {-138, 395, -184, 411, 414, 417, -182, -179, 435, 438, -153, -150, -147, -144, -141};
Plane Surface(159) = {159};
Curve Loop(160) = {-190, 396, -226, 410};
Plane Surface(160) = {160};
Curve Loop(161) = {-232, 397, -286, 409};
Plane Surface(161) = {161};
Curve Loop(162) = {434, -195, -192, 418, -224, -221};
Plane Surface(162) = {162};
Curve Loop(163) = {-292, 398, -376, 405, 408, -295};
Plane Surface(163) = {163};
Curve Loop(164) = {433, -237, -234, 419, -284, -281, -278, -275, -272};
Plane Surface(164) = {164};
Curve Loop(165) = {432, -324, -321, -318, -315, -312, -309, -306, 420, 423, -374, -371};
Plane Surface(165) = {165};
Curve Loop(166) = {399, 401, 403, 406, 412, 415, 421, 424, 426, 428, 430, 436, 441, 442};
Plane Surface(166) = {166};
Curve Loop(167) = {443, 451, -444, -22, -450, -118, -449, -166, -448, -204, -447, -246, -446, -342, -445, -361};
Plane Surface(167) = {167};
Curve Loop(168) = {444, 453, -452, -4};
Plane Surface(168) = {168};
Curve Loop(169) = {452, 458, -454, -457, -167, -456, -119, -455, -23};
Plane Surface(169) = {169};
Curve Loop(170) = {454, 464, -459, -385, -463, -345, -462, -249, -461, -207, -460};
Plane Surface(170) = {170};
Curve Loop(171) = {459, 466, -465, -386};
Plane Surface(171) = {171};
Curve Loop(172) = {465, 468, -467, -356};
Plane Surface(172) = {172};
Curve Loop(173) = {467, 470, -469, -388};
Plane Surface(173) = {173};
Curve Loop(174) = {469, 473, -471, -472, -387};
Plane Surface(174) = {174};
Curve Loop(175) = {471, 479, -474, -478, -206, -477, -248, -476, -344, -475};
Plane Surface(175) = {175};
Curve Loop(176) = {474, 482, -480, -481};
Plane Surface(176) = {176};
Curve Loop(177) = {480, 488, -483, -487, -343, -486, -247, -485, -205, -484};
Plane Surface(177) = {177};
Curve Loop(178) = {483, 491, -489, -389, -490};
Plane Surface(178) = {178};
Curve Loop(179) = {489, 493, -492, -390};
Plane Surface(179) = {179};
Curve Loop(180) = {492, 494, -443, -358};
Plane Surface(180) = {180};
Curve Loop(181) = {-364, 445, -340, 487, 490};
Plane Surface(181) = {181};
Curve Loop(182) = {-256, 446, -244, 486};
Plane Surface(182) = {182};
Curve Loop(183) = {-214, 447, -202, 485};
Plane Surface(183) = {183};
Curve Loop(184) = {-172, 448, -164, -161, -158, -155, 457, 460, -177, -174, 478, 481, 484};
Plane Surface(184) = {184};
Curve Loop(185) = {-124, 449, -116, -113, -110, -107, -104, -101, -98, 456, -127};
Plane Surface(185) = {185};
Curve Loop(186) = {-28, 450, -20, -17, 455, -46, -43, -40, -37, -34, -31};
Plane Surface(186) = {186};
Curve Loop(187) = {477, -200, -197, 461, -219, -216};
Plane Surface(187) = {187};
Curve Loop(188) = {476, -242, -239, 462, -270, -267, -264, -261, -258};
Plane Surface(188) = {188};
Curve Loop(189) = {475, -338, -335, -332, -329, -326, 463, -369, -366, 472};
Plane Surface(189) = {189};
Curve Loop(190) = {451, 453, 458, 464, 466, 468, 470, 473, 479, 482, 488, 491, 493, 494};
Plane Surface(190) = {190};
Curve Loop(191) = {495, 497, -496, -399};
Plane Surface(191) = {191};
Curve Loop(192) = {496, 499, -498, -401};
Plane Surface(192) = {192};
Curve Loop(193) = {498, 501, -500, -403};
Plane Surface(193) = {193};
Curve Loop(194) = {500, 503, -502, -406};
Plane Surface(194) = {194};
Curve Loop(195) = {502, 505, -504, -412};
Plane Surface(195) = {195};
Curve Loop(196) = {504, 507, -506, -415};
Plane Surface(196) = {196};
Curve Loop(197) = {506, 509, -508, -421};
Plane Surface(197) = {197};
Curve Loop(198) = {508, 511, -510, -424};
Plane Surface(198) = {198};
Curve Loop(199) = {510, 513, -512, -426};
Plane Surface(199) = {199};
Curve Loop(200) = {512, 515, -514, -428};
Plane Surface(200) = {200};
Curve Loop(201) = {514, 517, -516, -430};
Plane Surface(201) = {201};
Curve Loop(202) = {516, 519, -518, -436};
Plane Surface(202) = {202};
Curve Loop(203) = {518, 521, -520, -441};
Plane Surface(203) = {203};
Curve Loop(204) = {520, 522, -495, -442};
Plane Surface(204) = {204};
Curve Loop(205) = {497, 499, 501, 503, 505, 507, 509, 511, 513, 515, 517, 519, 521, 522};
Plane Surface(205) = {205};
Curve Loop(206) = {523, 525, -524, -451};
Plane Surface(206) = {206};
Curve Loop(207) = {524, 527, -526, -453};
Plane Surface(207) = {207};
Curve Loop(208) = {526, 529, -528, -458};
Plane Surface(208) = {208};
Curve Loop(209) = {528, 531, -530, -464};
Plane Surface(209) = {209};
Curve Loop(210) = {530, 533, -532, -466};
Plane Surface(210) = {210};
Curve Loop(211) = {532, 535, -534, -468};
Plane Surface(211) = {211};
Curve Loop(212) = {534, 537, -536, -470};
Plane Surface(212) = {212};
Curve Loop(213) = {536, 539, -538, -473};
Plane Surface(213) = {213};
Curve Loop(214) = {538, 541, -540, -479};
Plane Surface(214) = {214};
Curve Loop(215) = {540, 543, -542, -482};
Plane Surface(215) = {215};
Curve Loop(216) = {542, 545, -544, -488};
Plane Surface(216) = {216};
Curve Loop(217) = {544, 547, -546, -491};
Plane Surface(217) = {217};
Curve Loop(218) = {546, 549, -548, -493};
Plane Surface(218) = {218};
Curve Loop(219) = {548, 550, -523, -494};
Plane Surface(219) = {219};
Curve Loop(220) = {525, 527, 529, 531, 533, 535, 537, 539, 541, 543, 545, 547, 549, 550};
Plane Surface(220) = {220};
Curve Loop(221) = {-353, 400, 498, 551, -512, -425};
Plane Surface(221) = {221};
Curve Loop(222) = {-405, -375, -423, -420, -305, -302, -299, -296, -408};
Plane Surface(222) = {222};
Curve Loop(223) = {-409, -285, -419, -233};
Plane Surface(223) = {223};
Curve Loop(224) = {-410, -225, -418, -191};
Plane Surface(224) = {224};
Curve Loop(225) = {-411, -183, -417, -414};
Plane Surface(225) = {225};
Curve Loop(226) = {-501, 551, -513, -511, -509, -507, -505, -503};
Plane Surface(226) = {226};
Curve Loop(227) = {-455, -16, -440, -47};
Plane Surface(227) = {227};
Curve Loop(228) = {-456, -97, -439, -128};
Plane Surface(228) = {228};
Curve Loop(229) = {-457, -154, -438, -435, -178, -460};
Plane Surface(229) = {229};
Curve Loop(230) = {-461, -196, -434, -220};
Plane Surface(230) = {230};
Curve Loop(231) = {-462, -238, -433, -271};
Plane Surface(231) = {231};
Curve Loop(232) = {-463, -325, -432, -370};
Plane Surface(232) = {232};
Curve Loop(233) = {-5, 452, 526, 552, -520, -437};
Plane Surface(233) = {233};
Curve Loop(234) = {-355, 427, 514, 553, -532, -465};
Plane Surface(234) = {234};
Curve Loop(235) = {552, -521, -519, -517, 553, -533, -531, -529};
Plane Surface(235) = {235};
Curve Loop(236) = {-472, -365, -490, -487, -339, -475};
Plane Surface(236) = {236};
Curve Loop(237) = {-476, -257, -486, -243};
Plane Surface(237) = {237};
Curve Loop(238) = {-477, -215, -485, -201};
Plane Surface(238) = {238};
Curve Loop(239) = {-478, -173, -484, -481};
Plane Surface(239) = {239};
Curve Loop(240) = {-357, 467, 534, 554, -548, -492};
Plane Surface(240) = {240};
Curve Loop(241) = {-537, 554, -549, -547, -545, -543, -541, -539};
Plane Surface(241) = {241};
Curve Loop(242) = {555, 557, -556, -550, -554, -535, -553, -515, -551, -499};
Plane Surface(242) = {242};
Curve Loop(243) = {556, 559, -558, -525};
Plane Surface(243) = {243};
Curve Loop(244) = {558, 561, -560, -522, -552, -527};
Plane Surface(244) = {244};
Curve Loop(245) = {560, 562, -555, -497};
Plane Surface(245) = {245};
Curve Loop(246) = {557, 559, 561, 562};
Plane Surface(246) = {246};
Surface Loop(1) = {1, 2, 3, 4, 5, 6, 7, 8, 9, 10};
Volume(1) = {1};
Surface Loop(2) = {11, 12, 13, 14, 15, 16, 17, 18, 19, 20, 21, 22, 23, 24, 25, 26, 27, 28, 29, 30, 31, 32, 33, 34, 35, 36, 37, 38, 39, 40, 41, 42, 43, 44};
Volume(2) = {2};
Surface Loop(3) = {45, 46, 47, 48, 49, 50, 51, 52, 53, 54, 55, 56, 57, 58, 59, 60, 61, 62};
Volume(3) = {3};
Surface Loop(4) = {63, 64, 65, 66, 67, 68, 69, 70, 71, 72, 73, 74, 75, 76, 77, 78};
Volume(4) = {4};
Surface Loop(5) = {79, 80, 81, 82, 83, 84, 85, 86, 87, 88, 89, 90, 91, 92, 93, 94};
Volume(5) = {5};
Surface Loop(6) = {95, 96, 97, 98, 99, 100, 101, 102, 103, 104, 105, 106, 107, 108, 109, 110, 111, 112, 113, 114, 115, 116, 117, 118, 119, 120, 121, 122, 123, 124, 125, 126, 127, 128};
Volume(6) = {6};
Surface Loop(7) = {129, 130, 131, 132, 133, 134, 135, 136, 137, 138, 139, 140, 141, 142};
Volume(7) = {7};
Surface Loop(8) = {143, 144, 145, 146, 147, 148, 149, 150, 151, 152, 153, 154, 155, 156, 10, 157, 44, 158, 62, 159, 78, 160, 94, 76, 161, 162, 128, 92, 163, 164, 136, 126, 165, 138, 166};
Volume(8) = {8};
Surface Loop(9) = {167, 168, 169, 170, 171, 172, 173, 174, 175, 176, 177, 178, 179, 180, 142, 181, 122, 182, 88, 183, 72, 184, 60, 185, 42, 186, 74, 8, 187, 90, 188, 124, 189, 140, 190};
Volume(9) = {9};
Surface Loop(10) = {191, 192, 193, 194, 195, 196, 197, 198, 199, 200, 201, 202, 203, 204, 166, 205};
Volume(10) = {10};
Surface Loop(11) = {206, 207, 208, 209, 210, 211, 212, 213, 214, 215, 216, 217, 218, 219, 190, 220};
Volume(11) = {11};
Surface Loop(12) = {221, 137, 222, 127, 223, 93, 224, 77, 225, 151, 199, 226, 193, 145, 146, 147, 148, 149, 150, 198, 194, 195, 196, 197};
Volume(12) = {12};
Surface Loop(13) = {9, 227, 43, 228, 61, 229, 75, 230, 91, 231, 125, 232, 139, 233, 169, 170, 171, 234, 153, 154, 155, 203, 235, 208, 209, 210, 201, 202};
Volume(13) = {13};
Surface Loop(14) = {141, 236, 123, 237, 89, 238, 73, 239, 173, 174, 175, 176, 177, 178, 179, 240, 212, 213, 214, 215, 216, 217, 218, 241};
Volume(14) = {14};
Surface Loop(15) = {242, 243, 244, 245, 205, 226, 235, 220, 241, 246};
Volume(15) = {15};
Physical Surface("CCD3") = {1, 1, 2, 2, 3, 3, 4, 4, 5, 5, 6, 6, 7, 7, 8, 8, 9, 9, 10, 10};
Physical Surface("CCD2") = {11, 11, 12, 12, 13, 13, 14, 14, 15, 15, 16, 16, 17, 17, 18, 18, 19, 19, 20, 20, 21, 21, 22, 22, 23, 23, 24, 24, 25, 25, 26, 26, 27, 27, 28, 28, 29, 29, 30, 30, 31, 31, 32, 32, 33, 33, 34, 34, 35, 35, 36, 36, 37, 37, 38, 38, 39, 39, 40, 40, 41, 41, 42, 42, 43, 43, 44, 44};
Physical Surface("CCD1") = {45, 45, 46, 46, 47, 47, 48, 48, 49, 49, 50, 50, 51, 51, 52, 52, 53, 53, 54, 54, 55, 55, 56, 56, 57, 57, 58, 58, 59, 59, 60, 60, 61, 61, 62, 62};
Physical Surface("DR3") = {63, 63, 64, 64, 65, 65, 66, 66, 67, 67, 68, 68, 69, 69, 70, 70, 71, 71, 72, 72, 73, 73, 74, 74, 75, 75, 76, 76, 77, 77, 78, 78};
Physical Surface("DR2") = {79, 79, 80, 80, 81, 81, 82, 82, 83, 83, 84, 84, 85, 85, 86, 86, 87, 87, 88, 88, 89, 89, 90, 90, 91, 91, 92, 92, 93, 93, 94, 94};
Physical Surface("Dr1") = {95, 95, 96, 96, 97, 97, 98, 98, 99, 99, 100, 100, 101, 101, 102, 102, 103, 103, 104, 104, 105, 105, 106, 106, 107, 107, 108, 108, 109, 109, 110, 110, 111, 111, 112, 112, 113, 113, 114, 114, 115, 115, 116, 116, 117, 117, 118, 118, 119, 119, 120, 120, 121, 121, 122, 122, 123, 123, 124, 124, 125, 125, 126, 126, 127, 127, 128, 128};
Physical Surface("Reservoir") = {129, 129, 130, 130, 131, 131, 132, 132, 133, 133, 134, 134, 135, 135, 136, 136, 137, 137, 138, 138, 139, 139, 140, 140, 141, 141, 142, 142};
Physical Surface("TopMetal") = {166, 166, 190, 190, 191, 191, 192, 192, 193, 193, 194, 194, 195, 195, 196, 196, 197, 197, 198, 198, 199, 199, 200, 200, 201, 201, 202, 202, 203, 203, 204, 204, 205, 205, 206, 206, 207, 207, 208, 208, 209, 209, 210, 210, 211, 211, 212, 212, 213, 213, 214, 214, 215, 215, 216, 216, 217, 217, 218, 218, 219, 219, 220, 220};
Physical Volume("HELIUM") = {12, 13, 14};
Physical Volume("METAL") = {1, 2, 3, 4, 5, 6, 7, 10, 11};
Physical Volume("VACUUM") = {15};
Physical Volume("DIELECTRIC") = {8, 9};
Field[1] = Box;
Field[1].Thickness = 4;
Field[1].VIn = 1;
Field[1].VOut = 5;
Field[1].XMax = -662;
Field[1].XMin = -695;
Field[1].YMax = 150;
Field[1].YMin = 125;
Field[1].ZMax = 6;
Field[1].ZMin = -0.7;
Field[2] = Box;
Field[2].Thickness = 2;
Field[2].VIn = 0.5;
Field[2].VOut = 5;
Field[2].XMax = -662;
Field[2].XMin = -695;
Field[2].YMax = 140;
Field[2].YMin = 135;
Field[2].ZMax = 4.5;
Field[2].ZMin = -0.1;
Field[3] = Min;
Field[3].FieldsList = {1, 2};
Background Field = 3;
