cl__1 = 1e+22;
Point(189) = {-34.5, 24.5, 0, cl__1};
Point(190) = {-34.5, 23.6, 0, cl__1};
Point(191) = {-35.4, 23.6, 0, cl__1};
Point(192) = {-35.4, 24.5, 0, cl__1};
Point(193) = {-34.5, 24.5, 0.9, cl__1};
Point(194) = {-34.5, 23.6, 0.9, cl__1};
Point(195) = {-35.4, 23.6, 0.9, cl__1};
Point(196) = {-35.4, 24.5, 0.9, cl__1};
Point(197) = {-35.4, 31.4, 0, cl__1};
Point(198) = {-34.5, 31.4, 0, cl__1};
Point(199) = {-34.5, 30.5, 0, cl__1};
Point(200) = {-35.4, 30.5, 0, cl__1};
Point(201) = {-35.4, 31.4, 0.9, cl__1};
Point(202) = {-34.5, 31.4, 0.9, cl__1};
Point(203) = {-34.5, 30.5, 0.9, cl__1};
Point(204) = {-35.4, 30.5, 0.9, cl__1};
Point(205) = {-11.75, 35, 0, cl__1};
Point(206) = {-11.75, 35, 0.9, cl__1};
Point(207) = {-11.75, 33, 0, cl__1};
Point(208) = {-11.75, 33, 0.9, cl__1};
Point(209) = {-11.75, 32, 0, cl__1};
Point(210) = {-11.75, 32, 0.9, cl__1};
Point(211) = {-11.75, 30, 0, cl__1};
Point(212) = {-11.75, 30, 0.9, cl__1};
Point(213) = {-9.25, 30, 0, cl__1};
Point(214) = {-9.25, 30, 0.9, cl__1};
Point(215) = {-9.25, 25, 0, cl__1};
Point(216) = {-9.25, 25, 0.9, cl__1};
Point(217) = {-9.25, 29.5, 0.9, cl__1};
Point(218) = {-9.25, 25.5, 0.9, cl__1};
Point(219) = {-11.75, 25, 0, cl__1};
Point(220) = {-11.75, 25, 0.9, cl__1};
Point(221) = {-11.75, 23, 0, cl__1};
Point(222) = {-11.75, 23, 0.9, cl__1};
Point(223) = {-11.75, 22, 0, cl__1};
Point(224) = {-11.75, 22, 0.9, cl__1};
Point(225) = {-11.75, 20, 0, cl__1};
Point(226) = {-11.75, 20, 0.9, cl__1};
Point(227) = {-12.75, 20, 0, cl__1};
Point(228) = {-12.75, 20, 0.9, cl__1};
Point(229) = {-12.75, 22, 0, cl__1};
Point(230) = {-12.75, 22, 0.9, cl__1};
Point(231) = {-12.75, 23, 0, cl__1};
Point(232) = {-12.75, 23, 0.9, cl__1};
Point(233) = {-12.75, 25, 0, cl__1};
Point(234) = {-12.75, 25, 0.9, cl__1};
Point(235) = {-15.25, 25, 0, cl__1};
Point(236) = {-15.25, 25, 0.9, cl__1};
Point(237) = {-15.25, 30, 0, cl__1};
Point(238) = {-15.25, 30, 0.9, cl__1};
Point(239) = {-15.25, 25.5, 0.9, cl__1};
Point(240) = {-15.25, 29.5, 0.9, cl__1};
Point(241) = {-12.75, 30, 0, cl__1};
Point(242) = {-12.75, 30, 0.9, cl__1};
Point(243) = {-12.75, 32, 0, cl__1};
Point(244) = {-12.75, 32, 0.9, cl__1};
Point(245) = {-12.75, 33, 0, cl__1};
Point(246) = {-12.75, 33, 0.9, cl__1};
Point(247) = {-12.75, 35, 0, cl__1};
Point(248) = {-12.75, 35, 0.9, cl__1};
Point(249) = {-15.75, 35, 0, cl__1};
Point(250) = {-15.75, 35, 0.9, cl__1};
Point(251) = {-15.75, 32, 0, cl__1};
Point(252) = {-15.75, 32, 0.9, cl__1};
Point(253) = {-15.75, 23, 0, cl__1};
Point(254) = {-15.75, 23, 0.9, cl__1};
Point(255) = {-15.75, 29.5, 0.9, cl__1};
Point(256) = {-15.75, 25.5, 0.9, cl__1};
Point(257) = {-15.75, 20, 0, cl__1};
Point(258) = {-15.75, 20, 0.9, cl__1};
Point(259) = {-16.25, 20, 0, cl__1};
Point(260) = {-16.25, 20, 0.9, cl__1};
Point(261) = {-16.25, 23, 0, cl__1};
Point(262) = {-16.25, 23, 0.9, cl__1};
Point(263) = {-16.25, 32, 0, cl__1};
Point(264) = {-16.25, 32, 0.9, cl__1};
Point(265) = {-16.25, 25.5, 0.9, cl__1};
Point(266) = {-16.25, 29.5, 0.9, cl__1};
Point(267) = {-16.25, 35, 0, cl__1};
Point(268) = {-16.25, 35, 0.9, cl__1};
Point(269) = {-16.75, 35, 0, cl__1};
Point(270) = {-16.75, 35, 0.9, cl__1};
Point(271) = {-16.75, 32, 0, cl__1};
Point(272) = {-16.75, 32, 0.9, cl__1};
Point(273) = {-16.75, 23, 0, cl__1};
Point(274) = {-16.75, 23, 0.9, cl__1};
Point(275) = {-16.75, 29.5, 0.9, cl__1};
Point(276) = {-16.75, 25.5, 0.9, cl__1};
Point(277) = {-16.75, 20, 0, cl__1};
Point(278) = {-16.75, 20, 0.9, cl__1};
Point(279) = {-19.25, 20, 0, cl__1};
Point(280) = {-19.25, 20, 0.9, cl__1};
Point(281) = {-19.25, 23, 0, cl__1};
Point(282) = {-19.25, 23, 0.9, cl__1};
Point(283) = {-19.25, 32, 0, cl__1};
Point(284) = {-19.25, 32, 0.9, cl__1};
Point(285) = {-19.25, 25.5, 0.9, cl__1};
Point(286) = {-19.25, 29.5, 0.9, cl__1};
Point(287) = {-19.25, 35, 0, cl__1};
Point(288) = {-19.25, 35, 0.9, cl__1};
Point(289) = {-19.75, 35, 0, cl__1};
Point(290) = {-19.75, 35, 0.9, cl__1};
Point(291) = {-19.75, 32, 0, cl__1};
Point(292) = {-19.75, 32, 0.9, cl__1};
Point(293) = {-19.75, 23, 0, cl__1};
Point(294) = {-19.75, 23, 0.9, cl__1};
Point(295) = {-19.75, 29.5, 0.9, cl__1};
Point(296) = {-19.75, 25.5, 0.9, cl__1};
Point(297) = {-19.75, 20, 0, cl__1};
Point(298) = {-19.75, 20, 0.9, cl__1};
Point(299) = {-20.25, 20, 0, cl__1};
Point(300) = {-20.25, 20, 0.9, cl__1};
Point(301) = {-20.25, 23, 0, cl__1};
Point(302) = {-20.25, 23, 0.9, cl__1};
Point(303) = {-20.25, 32, 0, cl__1};
Point(304) = {-20.25, 32, 0.9, cl__1};
Point(305) = {-20.25, 25.5, 0.9, cl__1};
Point(306) = {-20.25, 29.5, 0.9, cl__1};
Point(307) = {-20.25, 35, 0, cl__1};
Point(308) = {-20.25, 35, 0.9, cl__1};
Point(309) = {-23.25, 35, 0, cl__1};
Point(310) = {-23.25, 35, 0.9, cl__1};
Point(311) = {-23.25, 33, 0, cl__1};
Point(312) = {-23.25, 33, 0.9, cl__1};
Point(313) = {-23.25, 32, 0, cl__1};
Point(314) = {-23.25, 32, 0.9, cl__1};
Point(315) = {-23.25, 30, 0, cl__1};
Point(316) = {-23.25, 30, 0.9, cl__1};
Point(317) = {-20.75, 30, 0, cl__1};
Point(318) = {-20.75, 30, 0.9, cl__1};
Point(319) = {-20.75, 25, 0, cl__1};
Point(320) = {-20.75, 25, 0.9, cl__1};
Point(321) = {-20.75, 29.5, 0.9, cl__1};
Point(322) = {-20.75, 25.5, 0.9, cl__1};
Point(323) = {-23.25, 25, 0, cl__1};
Point(324) = {-23.25, 25, 0.9, cl__1};
Point(325) = {-23.25, 23, 0, cl__1};
Point(326) = {-23.25, 23, 0.9, cl__1};
Point(327) = {-23.25, 22, 0, cl__1};
Point(328) = {-23.25, 22, 0.9, cl__1};
Point(329) = {-23.25, 20, 0, cl__1};
Point(330) = {-23.25, 20, 0.9, cl__1};
Point(331) = {-24.25, 20, 0, cl__1};
Point(332) = {-24.25, 20, 0.9, cl__1};
Point(333) = {-24.25, 22, 0, cl__1};
Point(334) = {-24.25, 22, 0.9, cl__1};
Point(335) = {-24.25, 23, 0, cl__1};
Point(336) = {-24.25, 23, 0.9, cl__1};
Point(337) = {-24.25, 25, 0, cl__1};
Point(338) = {-24.25, 25, 0.9, cl__1};
Point(339) = {-26.75, 25, 0, cl__1};
Point(340) = {-26.75, 25, 0.9, cl__1};
Point(341) = {-26.75, 30, 0, cl__1};
Point(342) = {-26.75, 30, 0.9, cl__1};
Point(343) = {-26.75, 25.5, 0.9, cl__1};
Point(344) = {-26.75, 29.5, 0.9, cl__1};
Point(345) = {-24.25, 30, 0, cl__1};
Point(346) = {-24.25, 30, 0.9, cl__1};
Point(347) = {-24.25, 32, 0, cl__1};
Point(348) = {-24.25, 32, 0.9, cl__1};
Point(349) = {-24.25, 33, 0, cl__1};
Point(350) = {-24.25, 33, 0.9, cl__1};
Point(351) = {-24.25, 35, 0, cl__1};
Point(352) = {-24.25, 35, 0.9, cl__1};
Point(353) = {-27.25, 35, 0, cl__1};
Point(354) = {-27.25, 35, 0.9, cl__1};
Point(355) = {-27.25, 32, 0, cl__1};
Point(356) = {-27.25, 32, 0.9, cl__1};
Point(357) = {-27.25, 23, 0, cl__1};
Point(358) = {-27.25, 23, 0.9, cl__1};
Point(359) = {-27.25, 29.48611111111111, 0.9, cl__1};
Point(360) = {-27.25, 25.51388888888889, 0.9, cl__1};
Point(361) = {-27.25, 20, 0, cl__1};
Point(362) = {-27.25, 20, 0.9, cl__1};
Point(363) = {-29.75, 20, 0, cl__1};
Point(364) = {-29.75, 20, 0.9, cl__1};
Point(365) = {-29.75, 23, 0, cl__1};
Point(366) = {-29.75, 23, 0.9, cl__1};
Point(367) = {-29.75, 32, 0, cl__1};
Point(368) = {-29.75, 32, 0.9, cl__1};
Point(369) = {-29.75, 25.65277777777778, 0.9, cl__1};
Point(370) = {-29.75, 29.34722222222222, 0.9, cl__1};
Point(371) = {-29.75, 35, 0, cl__1};
Point(372) = {-29.75, 35, 0.9, cl__1};
Point(373) = {-30.25, 35, 0, cl__1};
Point(374) = {-30.25, 35, 0.9, cl__1};
Point(375) = {-30.25, 32, 0, cl__1};
Point(376) = {-30.25, 32, 0.9, cl__1};
Point(377) = {-30.25, 23, 0, cl__1};
Point(378) = {-30.25, 23, 0.9, cl__1};
Point(379) = {-30.25, 29.31944444444444, 0.9, cl__1};
Point(380) = {-30.25, 25.68055555555556, 0.9, cl__1};
Point(381) = {-30.25, 20, 0, cl__1};
Point(382) = {-30.25, 20, 0.9, cl__1};
Point(383) = {-32.75, 20, 0, cl__1};
Point(384) = {-32.75, 20, 0.9, cl__1};
Point(385) = {-32.75, 23, 0, cl__1};
Point(386) = {-32.75, 23, 0.9, cl__1};
Point(387) = {-32.75, 32, 0, cl__1};
Point(388) = {-32.75, 32, 0.9, cl__1};
Point(389) = {-32.75, 25.81944444444444, 0.9, cl__1};
Point(390) = {-32.75, 29.18055555555556, 0.9, cl__1};
Point(391) = {-32.75, 35, 0, cl__1};
Point(392) = {-32.75, 35, 0.9, cl__1};
Point(393) = {-33.25, 35, 0, cl__1};
Point(394) = {-33.25, 35, 0.9, cl__1};
Point(395) = {-33.25, 32, 0, cl__1};
Point(396) = {-33.25, 32, 0.9, cl__1};
Point(397) = {-33.25, 23, 0, cl__1};
Point(398) = {-33.25, 23, 0.9, cl__1};
Point(399) = {-33.25, 29.15277777777778, 0.9, cl__1};
Point(400) = {-33.25, 25.84722222222222, 0.9, cl__1};
Point(401) = {-33.25, 20, 0, cl__1};
Point(402) = {-33.25, 20, 0.9, cl__1};
Point(403) = {-35.75, 20, 0, cl__1};
Point(404) = {-35.75, 20, 0.9, cl__1};
Point(405) = {-35.75, 23, 0, cl__1};
Point(406) = {-35.75, 23, 0.9, cl__1};
Point(407) = {-34, 23, 0, cl__1};
Point(408) = {-34, 23, 0.9, cl__1};
Point(409) = {-34, 25, 0, cl__1};
Point(410) = {-34, 25, 0.9, cl__1};
Point(411) = {-35.75, 25, 0, cl__1};
Point(412) = {-35.75, 25, 0.9, cl__1};
Point(413) = {-35.75, 30, 0, cl__1};
Point(414) = {-35.75, 30, 0.9, cl__1};
Point(415) = {-35.75, 25.98611111111111, 0.9, cl__1};
Point(416) = {-35.75, 29.01388888888889, 0.9, cl__1};
Point(417) = {-34, 30, 0, cl__1};
Point(418) = {-34, 30, 0.9, cl__1};
Point(419) = {-34, 32, 0, cl__1};
Point(420) = {-34, 32, 0.9, cl__1};
Point(421) = {-35.75, 32, 0, cl__1};
Point(422) = {-35.75, 32, 0.9, cl__1};
Point(423) = {-35.75, 35, 0, cl__1};
Point(424) = {-35.75, 35, 0.9, cl__1};
Point(425) = {-9, 20, 0.9, cl__1};
Point(426) = {-9, 20, 1.86, cl__1};
Point(427) = {-36, 20, 0.9, cl__1};
Point(428) = {-36, 20, 1.86, cl__1};
Point(429) = {-36, 26, 0.9, cl__1};
Point(430) = {-36, 26, 1.86, cl__1};
Point(431) = {-27, 25.5, 0.9, cl__1};
Point(432) = {-27, 25.5, 1.86, cl__1};
Point(433) = {-9, 25.5, 0.9, cl__1};
Point(434) = {-9, 25.5, 1.86, cl__1};
Point(435) = {-36, 35, 0.9, cl__1};
Point(436) = {-36, 35, 1.86, cl__1};
Point(437) = {-9, 35, 0.9, cl__1};
Point(438) = {-9, 35, 1.86, cl__1};
Point(439) = {-9, 29.5, 0.9, cl__1};
Point(440) = {-9, 29.5, 1.86, cl__1};
Point(441) = {-27, 29.5, 0.9, cl__1};
Point(442) = {-27, 29.5, 1.86, cl__1};
Point(443) = {-36, 29, 0.9, cl__1};
Point(444) = {-36, 29, 1.86, cl__1};
Point(445) = {-9, 20, 2.13, cl__1};
Point(446) = {-36, 20, 2.13, cl__1};
Point(447) = {-36, 26, 2.13, cl__1};
Point(448) = {-27, 25.5, 2.13, cl__1};
Point(449) = {-9, 25.5, 2.13, cl__1};
Point(450) = {-36, 35, 2.13, cl__1};
Point(451) = {-9, 35, 2.13, cl__1};
Point(452) = {-9, 29.5, 2.13, cl__1};
Point(453) = {-27, 29.5, 2.13, cl__1};
Point(454) = {-36, 29, 2.13, cl__1};
Point(455) = {-36, 20, 12.13, cl__1};
Point(456) = {-36, 35, 12.13, cl__1};
Point(457) = {-9, 35, 12.13, cl__1};
Point(458) = {-9, 20, 12.13, cl__1};
Line(283) = {189, 190};
Line(284) = {190, 191};
Line(285) = {191, 192};
Line(286) = {192, 189};
Line(287) = {189, 193};
Line(288) = {190, 194};
Line(289) = {193, 194};
Line(290) = {191, 195};
Line(291) = {194, 195};
Line(292) = {192, 196};
Line(293) = {195, 196};
Line(294) = {196, 193};
Line(295) = {197, 198};
Line(296) = {198, 199};
Line(297) = {199, 200};
Line(298) = {200, 197};
Line(299) = {197, 201};
Line(300) = {198, 202};
Line(301) = {201, 202};
Line(302) = {199, 203};
Line(303) = {202, 203};
Line(304) = {200, 204};
Line(305) = {203, 204};
Line(306) = {204, 201};
Line(307) = {205, 206};
Line(308) = {207, 208};
Line(309) = {205, 207};
Line(310) = {206, 208};
Line(311) = {209, 210};
Line(312) = {207, 209};
Line(313) = {208, 210};
Line(314) = {211, 212};
Line(315) = {209, 211};
Line(316) = {210, 212};
Line(317) = {213, 214};
Line(318) = {211, 213};
Line(319) = {212, 214};
Line(320) = {215, 216};
Line(321) = {213, 215};
Line(322) = {214, 217};
Line(323) = {217, 218};
Line(324) = {218, 216};
Line(325) = {219, 220};
Line(326) = {215, 219};
Line(327) = {216, 220};
Line(328) = {221, 222};
Line(329) = {219, 221};
Line(330) = {220, 222};
Line(331) = {223, 224};
Line(332) = {221, 223};
Line(333) = {222, 224};
Line(334) = {225, 226};
Line(335) = {223, 225};
Line(336) = {224, 226};
Line(337) = {227, 228};
Line(338) = {225, 227};
Line(339) = {226, 228};
Line(340) = {229, 230};
Line(341) = {227, 229};
Line(342) = {228, 230};
Line(343) = {231, 232};
Line(344) = {229, 231};
Line(345) = {230, 232};
Line(346) = {233, 234};
Line(347) = {231, 233};
Line(348) = {232, 234};
Line(349) = {235, 236};
Line(350) = {233, 235};
Line(351) = {234, 236};
Line(352) = {237, 238};
Line(353) = {235, 237};
Line(354) = {236, 239};
Line(355) = {239, 240};
Line(356) = {240, 238};
Line(357) = {241, 242};
Line(358) = {237, 241};
Line(359) = {238, 242};
Line(360) = {243, 244};
Line(361) = {241, 243};
Line(362) = {242, 244};
Line(363) = {245, 246};
Line(364) = {243, 245};
Line(365) = {244, 246};
Line(366) = {247, 248};
Line(367) = {245, 247};
Line(368) = {246, 248};
Line(369) = {247, 205};
Line(370) = {248, 206};
Line(371) = {217, 240};
Line(372) = {239, 218};
Line(373) = {249, 250};
Line(374) = {251, 252};
Line(375) = {249, 251};
Line(376) = {250, 252};
Line(377) = {253, 254};
Line(378) = {251, 253};
Line(379) = {252, 255};
Line(380) = {255, 256};
Line(381) = {256, 254};
Line(382) = {257, 258};
Line(383) = {253, 257};
Line(384) = {254, 258};
Line(385) = {259, 260};
Line(386) = {257, 259};
Line(387) = {258, 260};
Line(388) = {261, 262};
Line(389) = {259, 261};
Line(390) = {260, 262};
Line(391) = {263, 264};
Line(392) = {261, 263};
Line(393) = {262, 265};
Line(394) = {265, 266};
Line(395) = {266, 264};
Line(396) = {267, 268};
Line(397) = {263, 267};
Line(398) = {264, 268};
Line(399) = {267, 249};
Line(400) = {268, 250};
Line(401) = {255, 266};
Line(402) = {265, 256};
Line(403) = {269, 270};
Line(404) = {271, 272};
Line(405) = {269, 271};
Line(406) = {270, 272};
Line(407) = {273, 274};
Line(408) = {271, 273};
Line(409) = {272, 275};
Line(410) = {275, 276};
Line(411) = {276, 274};
Line(412) = {277, 278};
Line(413) = {273, 277};
Line(414) = {274, 278};
Line(415) = {279, 280};
Line(416) = {277, 279};
Line(417) = {278, 280};
Line(418) = {281, 282};
Line(419) = {279, 281};
Line(420) = {280, 282};
Line(421) = {283, 284};
Line(422) = {281, 283};
Line(423) = {282, 285};
Line(424) = {285, 286};
Line(425) = {286, 284};
Line(426) = {287, 288};
Line(427) = {283, 287};
Line(428) = {284, 288};
Line(429) = {287, 269};
Line(430) = {288, 270};
Line(431) = {275, 286};
Line(432) = {285, 276};
Line(433) = {289, 290};
Line(434) = {291, 292};
Line(435) = {289, 291};
Line(436) = {290, 292};
Line(437) = {293, 294};
Line(438) = {291, 293};
Line(439) = {292, 295};
Line(440) = {295, 296};
Line(441) = {296, 294};
Line(442) = {297, 298};
Line(443) = {293, 297};
Line(444) = {294, 298};
Line(445) = {299, 300};
Line(446) = {297, 299};
Line(447) = {298, 300};
Line(448) = {301, 302};
Line(449) = {299, 301};
Line(450) = {300, 302};
Line(451) = {303, 304};
Line(452) = {301, 303};
Line(453) = {302, 305};
Line(454) = {305, 306};
Line(455) = {306, 304};
Line(456) = {307, 308};
Line(457) = {303, 307};
Line(458) = {304, 308};
Line(459) = {307, 289};
Line(460) = {308, 290};
Line(461) = {295, 306};
Line(462) = {305, 296};
Line(463) = {309, 310};
Line(464) = {311, 312};
Line(465) = {309, 311};
Line(466) = {310, 312};
Line(467) = {313, 314};
Line(468) = {311, 313};
Line(469) = {312, 314};
Line(470) = {315, 316};
Line(471) = {313, 315};
Line(472) = {314, 316};
Line(473) = {317, 318};
Line(474) = {315, 317};
Line(475) = {316, 318};
Line(476) = {319, 320};
Line(477) = {317, 319};
Line(478) = {318, 321};
Line(479) = {321, 322};
Line(480) = {322, 320};
Line(481) = {323, 324};
Line(482) = {319, 323};
Line(483) = {320, 324};
Line(484) = {325, 326};
Line(485) = {323, 325};
Line(486) = {324, 326};
Line(487) = {327, 328};
Line(488) = {325, 327};
Line(489) = {326, 328};
Line(490) = {329, 330};
Line(491) = {327, 329};
Line(492) = {328, 330};
Line(493) = {331, 332};
Line(494) = {329, 331};
Line(495) = {330, 332};
Line(496) = {333, 334};
Line(497) = {331, 333};
Line(498) = {332, 334};
Line(499) = {335, 336};
Line(500) = {333, 335};
Line(501) = {334, 336};
Line(502) = {337, 338};
Line(503) = {335, 337};
Line(504) = {336, 338};
Line(505) = {339, 340};
Line(506) = {337, 339};
Line(507) = {338, 340};
Line(508) = {341, 342};
Line(509) = {339, 341};
Line(510) = {340, 343};
Line(511) = {343, 344};
Line(512) = {344, 342};
Line(513) = {345, 346};
Line(514) = {341, 345};
Line(515) = {342, 346};
Line(516) = {347, 348};
Line(517) = {345, 347};
Line(518) = {346, 348};
Line(519) = {349, 350};
Line(520) = {347, 349};
Line(521) = {348, 350};
Line(522) = {351, 352};
Line(523) = {349, 351};
Line(524) = {350, 352};
Line(525) = {351, 309};
Line(526) = {352, 310};
Line(527) = {321, 344};
Line(528) = {343, 322};
Line(529) = {353, 354};
Line(530) = {355, 356};
Line(531) = {353, 355};
Line(532) = {354, 356};
Line(533) = {357, 358};
Line(534) = {355, 357};
Line(535) = {356, 359};
Line(536) = {359, 360};
Line(537) = {360, 358};
Line(538) = {361, 362};
Line(539) = {357, 361};
Line(540) = {358, 362};
Line(541) = {363, 364};
Line(542) = {361, 363};
Line(543) = {362, 364};
Line(544) = {365, 366};
Line(545) = {363, 365};
Line(546) = {364, 366};
Line(547) = {367, 368};
Line(548) = {365, 367};
Line(549) = {366, 369};
Line(550) = {369, 370};
Line(551) = {370, 368};
Line(552) = {371, 372};
Line(553) = {367, 371};
Line(554) = {368, 372};
Line(555) = {371, 353};
Line(556) = {372, 354};
Line(557) = {359, 370};
Line(558) = {369, 360};
Line(559) = {373, 374};
Line(560) = {375, 376};
Line(561) = {373, 375};
Line(562) = {374, 376};
Line(563) = {377, 378};
Line(564) = {375, 377};
Line(565) = {376, 379};
Line(566) = {379, 380};
Line(567) = {380, 378};
Line(568) = {381, 382};
Line(569) = {377, 381};
Line(570) = {378, 382};
Line(571) = {383, 384};
Line(572) = {381, 383};
Line(573) = {382, 384};
Line(574) = {385, 386};
Line(575) = {383, 385};
Line(576) = {384, 386};
Line(577) = {387, 388};
Line(578) = {385, 387};
Line(579) = {386, 389};
Line(580) = {389, 390};
Line(581) = {390, 388};
Line(582) = {391, 392};
Line(583) = {387, 391};
Line(584) = {388, 392};
Line(585) = {391, 373};
Line(586) = {392, 374};
Line(587) = {379, 390};
Line(588) = {389, 380};
Line(589) = {393, 394};
Line(590) = {395, 396};
Line(591) = {393, 395};
Line(592) = {394, 396};
Line(593) = {397, 398};
Line(594) = {395, 397};
Line(595) = {396, 399};
Line(596) = {399, 400};
Line(597) = {400, 398};
Line(598) = {401, 402};
Line(599) = {397, 401};
Line(600) = {398, 402};
Line(601) = {403, 404};
Line(602) = {401, 403};
Line(603) = {402, 404};
Line(604) = {405, 406};
Line(605) = {403, 405};
Line(606) = {404, 406};
Line(607) = {407, 408};
Line(608) = {405, 407};
Line(609) = {406, 408};
Line(610) = {409, 410};
Line(611) = {407, 409};
Line(612) = {408, 410};
Line(613) = {411, 412};
Line(614) = {409, 411};
Line(615) = {410, 412};
Line(616) = {413, 414};
Line(617) = {411, 413};
Line(618) = {412, 415};
Line(619) = {415, 416};
Line(620) = {416, 414};
Line(621) = {417, 418};
Line(622) = {413, 417};
Line(623) = {414, 418};
Line(624) = {419, 420};
Line(625) = {417, 419};
Line(626) = {418, 420};
Line(627) = {421, 422};
Line(628) = {419, 421};
Line(629) = {420, 422};
Line(630) = {423, 424};
Line(631) = {421, 423};
Line(632) = {422, 424};
Line(633) = {423, 393};
Line(634) = {424, 394};
Line(635) = {399, 416};
Line(636) = {415, 400};
Line(637) = {425, 426};
Line(638) = {427, 428};
Line(639) = {425, 226};
Line(640) = {228, 258};
Line(641) = {260, 278};
Line(642) = {280, 298};
Line(643) = {300, 330};
Line(644) = {332, 362};
Line(645) = {364, 382};
Line(646) = {384, 402};
Line(647) = {404, 427};
Line(648) = {426, 428};
Line(649) = {429, 430};
Line(650) = {427, 429};
Line(651) = {428, 430};
Line(652) = {431, 432};
Line(653) = {429, 415};
Line(654) = {400, 389};
Line(655) = {380, 369};
Line(656) = {360, 431};
Line(657) = {430, 432};
Line(658) = {433, 434};
Line(659) = {431, 343};
Line(660) = {322, 305};
Line(661) = {296, 285};
Line(662) = {276, 265};
Line(663) = {256, 239};
Line(664) = {218, 433};
Line(665) = {432, 434};
Line(666) = {433, 425};
Line(667) = {434, 426};
Line(668) = {435, 436};
Line(669) = {437, 438};
Line(670) = {435, 424};
Line(671) = {394, 392};
Line(672) = {374, 372};
Line(673) = {354, 352};
Line(674) = {310, 308};
Line(675) = {290, 288};
Line(676) = {270, 268};
Line(677) = {250, 248};
Line(678) = {206, 437};
Line(679) = {436, 438};
Line(680) = {439, 440};
Line(681) = {437, 439};
Line(682) = {438, 440};
Line(683) = {441, 442};
Line(684) = {439, 217};
Line(685) = {240, 255};
Line(686) = {266, 275};
Line(687) = {286, 295};
Line(688) = {306, 321};
Line(689) = {344, 441};
Line(690) = {440, 442};
Line(691) = {443, 444};
Line(692) = {441, 359};
Line(693) = {370, 379};
Line(694) = {390, 399};
Line(695) = {416, 443};
Line(696) = {442, 444};
Line(697) = {443, 435};
Line(698) = {444, 436};
Line(699) = {426, 445};
Line(700) = {428, 446};
Line(701) = {445, 446};
Line(702) = {430, 447};
Line(703) = {446, 447};
Line(704) = {432, 448};
Line(705) = {447, 448};
Line(706) = {434, 449};
Line(707) = {448, 449};
Line(708) = {449, 445};
Line(709) = {436, 450};
Line(710) = {438, 451};
Line(711) = {450, 451};
Line(712) = {440, 452};
Line(713) = {451, 452};
Line(714) = {442, 453};
Line(715) = {452, 453};
Line(716) = {444, 454};
Line(717) = {453, 454};
Line(718) = {454, 450};
Line(719) = {429, 443};
Line(720) = {447, 454};
Line(721) = {439, 433};
Line(722) = {452, 449};
Line(723) = {446, 455};
Line(724) = {450, 456};
Line(725) = {455, 456};
Line(726) = {451, 457};
Line(727) = {456, 457};
Line(728) = {445, 458};
Line(729) = {457, 458};
Line(730) = {458, 455};
Curve Loop(111) = {283, 284, 285, 286};
Plane Surface(111) = {111};
Curve Loop(112) = {287, 289, -288, -283};
Plane Surface(112) = {112};
Curve Loop(113) = {288, 291, -290, -284};
Plane Surface(113) = {113};
Curve Loop(114) = {290, 293, -292, -285};
Plane Surface(114) = {114};
Curve Loop(115) = {292, 294, -287, -286};
Plane Surface(115) = {115};
Curve Loop(116) = {289, 291, 293, 294};
Plane Surface(116) = {116};
Curve Loop(117) = {295, 296, 297, 298};
Plane Surface(117) = {117};
Curve Loop(118) = {299, 301, -300, -295};
Plane Surface(118) = {118};
Curve Loop(119) = {300, 303, -302, -296};
Plane Surface(119) = {119};
Curve Loop(120) = {302, 305, -304, -297};
Plane Surface(120) = {120};
Curve Loop(121) = {304, 306, -299, -298};
Plane Surface(121) = {121};
Curve Loop(122) = {301, 303, 305, 306};
Plane Surface(122) = {122};
Curve Loop(123) = {307, 310, -308, -309};
Plane Surface(123) = {123};
Curve Loop(124) = {308, 313, -311, -312};
Plane Surface(124) = {124};
Curve Loop(125) = {311, 316, -314, -315};
Plane Surface(125) = {125};
Curve Loop(126) = {314, 319, -317, -318};
Plane Surface(126) = {126};
Curve Loop(127) = {317, 322, 323, 324, -320, -321};
Plane Surface(127) = {127};
Curve Loop(128) = {320, 327, -325, -326};
Plane Surface(128) = {128};
Curve Loop(129) = {325, 330, -328, -329};
Plane Surface(129) = {129};
Curve Loop(130) = {328, 333, -331, -332};
Plane Surface(130) = {130};
Curve Loop(131) = {331, 336, -334, -335};
Plane Surface(131) = {131};
Curve Loop(132) = {334, 339, -337, -338};
Plane Surface(132) = {132};
Curve Loop(133) = {337, 342, -340, -341};
Plane Surface(133) = {133};
Curve Loop(134) = {340, 345, -343, -344};
Plane Surface(134) = {134};
Curve Loop(135) = {343, 348, -346, -347};
Plane Surface(135) = {135};
Curve Loop(136) = {346, 351, -349, -350};
Plane Surface(136) = {136};
Curve Loop(137) = {349, 354, 355, 356, -352, -353};
Plane Surface(137) = {137};
Curve Loop(138) = {352, 359, -357, -358};
Plane Surface(138) = {138};
Curve Loop(139) = {357, 362, -360, -361};
Plane Surface(139) = {139};
Curve Loop(140) = {360, 365, -363, -364};
Plane Surface(140) = {140};
Curve Loop(141) = {363, 368, -366, -367};
Plane Surface(141) = {141};
Curve Loop(142) = {366, 370, -307, -369};
Plane Surface(142) = {142};
Curve Loop(143) = {309, 312, 315, 318, 321, 326, 329, 332, 335, 338, 341, 344, 347, 350, 353, 358, 361, 364, 367, 369};
Plane Surface(143) = {143};
Curve Loop(144) = {370, 310, 313, 316, 319, 322, 371, 356, 359, 362, 365, 368};
Plane Surface(144) = {144};
Curve Loop(145) = {-371, 323, -372, 355};
Plane Surface(145) = {145};
Curve Loop(146) = {372, 324, 327, 330, 333, 336, 339, 342, 345, 348, 351, 354};
Plane Surface(146) = {146};
Curve Loop(147) = {373, 376, -374, -375};
Plane Surface(147) = {147};
Curve Loop(148) = {374, 379, 380, 381, -377, -378};
Plane Surface(148) = {148};
Curve Loop(149) = {377, 384, -382, -383};
Plane Surface(149) = {149};
Curve Loop(150) = {382, 387, -385, -386};
Plane Surface(150) = {150};
Curve Loop(151) = {385, 390, -388, -389};
Plane Surface(151) = {151};
Curve Loop(152) = {388, 393, 394, 395, -391, -392};
Plane Surface(152) = {152};
Curve Loop(153) = {391, 398, -396, -397};
Plane Surface(153) = {153};
Curve Loop(154) = {396, 400, -373, -399};
Plane Surface(154) = {154};
Curve Loop(155) = {375, 378, 383, 386, 389, 392, 397, 399};
Plane Surface(155) = {155};
Curve Loop(156) = {400, 376, 379, 401, 395, 398};
Plane Surface(156) = {156};
Curve Loop(157) = {-401, 380, -402, 394};
Plane Surface(157) = {157};
Curve Loop(158) = {402, 381, 384, 387, 390, 393};
Plane Surface(158) = {158};
Curve Loop(159) = {403, 406, -404, -405};
Plane Surface(159) = {159};
Curve Loop(160) = {404, 409, 410, 411, -407, -408};
Plane Surface(160) = {160};
Curve Loop(161) = {407, 414, -412, -413};
Plane Surface(161) = {161};
Curve Loop(162) = {412, 417, -415, -416};
Plane Surface(162) = {162};
Curve Loop(163) = {415, 420, -418, -419};
Plane Surface(163) = {163};
Curve Loop(164) = {418, 423, 424, 425, -421, -422};
Plane Surface(164) = {164};
Curve Loop(165) = {421, 428, -426, -427};
Plane Surface(165) = {165};
Curve Loop(166) = {426, 430, -403, -429};
Plane Surface(166) = {166};
Curve Loop(167) = {405, 408, 413, 416, 419, 422, 427, 429};
Plane Surface(167) = {167};
Curve Loop(168) = {430, 406, 409, 431, 425, 428};
Plane Surface(168) = {168};
Curve Loop(169) = {-431, 410, -432, 424};
Plane Surface(169) = {169};
Curve Loop(170) = {432, 411, 414, 417, 420, 423};
Plane Surface(170) = {170};
Curve Loop(171) = {433, 436, -434, -435};
Plane Surface(171) = {171};
Curve Loop(172) = {434, 439, 440, 441, -437, -438};
Plane Surface(172) = {172};
Curve Loop(173) = {437, 444, -442, -443};
Plane Surface(173) = {173};
Curve Loop(174) = {442, 447, -445, -446};
Plane Surface(174) = {174};
Curve Loop(175) = {445, 450, -448, -449};
Plane Surface(175) = {175};
Curve Loop(176) = {448, 453, 454, 455, -451, -452};
Plane Surface(176) = {176};
Curve Loop(177) = {451, 458, -456, -457};
Plane Surface(177) = {177};
Curve Loop(178) = {456, 460, -433, -459};
Plane Surface(178) = {178};
Curve Loop(179) = {435, 438, 443, 446, 449, 452, 457, 459};
Plane Surface(179) = {179};
Curve Loop(180) = {460, 436, 439, 461, 455, 458};
Plane Surface(180) = {180};
Curve Loop(181) = {-461, 440, -462, 454};
Plane Surface(181) = {181};
Curve Loop(182) = {462, 441, 444, 447, 450, 453};
Plane Surface(182) = {182};
Curve Loop(183) = {463, 466, -464, -465};
Plane Surface(183) = {183};
Curve Loop(184) = {464, 469, -467, -468};
Plane Surface(184) = {184};
Curve Loop(185) = {467, 472, -470, -471};
Plane Surface(185) = {185};
Curve Loop(186) = {470, 475, -473, -474};
Plane Surface(186) = {186};
Curve Loop(187) = {473, 478, 479, 480, -476, -477};
Plane Surface(187) = {187};
Curve Loop(188) = {476, 483, -481, -482};
Plane Surface(188) = {188};
Curve Loop(189) = {481, 486, -484, -485};
Plane Surface(189) = {189};
Curve Loop(190) = {484, 489, -487, -488};
Plane Surface(190) = {190};
Curve Loop(191) = {487, 492, -490, -491};
Plane Surface(191) = {191};
Curve Loop(192) = {490, 495, -493, -494};
Plane Surface(192) = {192};
Curve Loop(193) = {493, 498, -496, -497};
Plane Surface(193) = {193};
Curve Loop(194) = {496, 501, -499, -500};
Plane Surface(194) = {194};
Curve Loop(195) = {499, 504, -502, -503};
Plane Surface(195) = {195};
Curve Loop(196) = {502, 507, -505, -506};
Plane Surface(196) = {196};
Curve Loop(197) = {505, 510, 511, 512, -508, -509};
Plane Surface(197) = {197};
Curve Loop(198) = {508, 515, -513, -514};
Plane Surface(198) = {198};
Curve Loop(199) = {513, 518, -516, -517};
Plane Surface(199) = {199};
Curve Loop(200) = {516, 521, -519, -520};
Plane Surface(200) = {200};
Curve Loop(201) = {519, 524, -522, -523};
Plane Surface(201) = {201};
Curve Loop(202) = {522, 526, -463, -525};
Plane Surface(202) = {202};
Curve Loop(203) = {465, 468, 471, 474, 477, 482, 485, 488, 491, 494, 497, 500, 503, 506, 509, 514, 517, 520, 523, 525};
Plane Surface(203) = {203};
Curve Loop(204) = {526, 466, 469, 472, 475, 478, 527, 512, 515, 518, 521, 524};
Plane Surface(204) = {204};
Curve Loop(205) = {-527, 479, -528, 511};
Plane Surface(205) = {205};
Curve Loop(206) = {528, 480, 483, 486, 489, 492, 495, 498, 501, 504, 507, 510};
Plane Surface(206) = {206};
Curve Loop(207) = {529, 532, -530, -531};
Plane Surface(207) = {207};
Curve Loop(208) = {530, 535, 536, 537, -533, -534};
Plane Surface(208) = {208};
Curve Loop(209) = {533, 540, -538, -539};
Plane Surface(209) = {209};
Curve Loop(210) = {538, 543, -541, -542};
Plane Surface(210) = {210};
Curve Loop(211) = {541, 546, -544, -545};
Plane Surface(211) = {211};
Curve Loop(212) = {544, 549, 550, 551, -547, -548};
Plane Surface(212) = {212};
Curve Loop(213) = {547, 554, -552, -553};
Plane Surface(213) = {213};
Curve Loop(214) = {552, 556, -529, -555};
Plane Surface(214) = {214};
Curve Loop(215) = {531, 534, 539, 542, 545, 548, 553, 555};
Plane Surface(215) = {215};
Curve Loop(216) = {556, 532, 535, 557, 551, 554};
Plane Surface(216) = {216};
Curve Loop(217) = {-557, 536, -558, 550};
Plane Surface(217) = {217};
Curve Loop(218) = {558, 537, 540, 543, 546, 549};
Plane Surface(218) = {218};
Curve Loop(219) = {559, 562, -560, -561};
Plane Surface(219) = {219};
Curve Loop(220) = {560, 565, 566, 567, -563, -564};
Plane Surface(220) = {220};
Curve Loop(221) = {563, 570, -568, -569};
Plane Surface(221) = {221};
Curve Loop(222) = {568, 573, -571, -572};
Plane Surface(222) = {222};
Curve Loop(223) = {571, 576, -574, -575};
Plane Surface(223) = {223};
Curve Loop(224) = {574, 579, 580, 581, -577, -578};
Plane Surface(224) = {224};
Curve Loop(225) = {577, 584, -582, -583};
Plane Surface(225) = {225};
Curve Loop(226) = {582, 586, -559, -585};
Plane Surface(226) = {226};
Curve Loop(227) = {561, 564, 569, 572, 575, 578, 583, 585};
Plane Surface(227) = {227};
Curve Loop(228) = {586, 562, 565, 587, 581, 584};
Plane Surface(228) = {228};
Curve Loop(229) = {-587, 566, -588, 580};
Plane Surface(229) = {229};
Curve Loop(230) = {588, 567, 570, 573, 576, 579};
Plane Surface(230) = {230};
Curve Loop(231) = {589, 592, -590, -591};
Plane Surface(231) = {231};
Curve Loop(232) = {590, 595, 596, 597, -593, -594};
Plane Surface(232) = {232};
Curve Loop(233) = {593, 600, -598, -599};
Plane Surface(233) = {233};
Curve Loop(234) = {598, 603, -601, -602};
Plane Surface(234) = {234};
Curve Loop(235) = {601, 606, -604, -605};
Plane Surface(235) = {235};
Curve Loop(236) = {604, 609, -607, -608};
Plane Surface(236) = {236};
Curve Loop(237) = {607, 612, -610, -611};
Plane Surface(237) = {237};
Curve Loop(238) = {610, 615, -613, -614};
Plane Surface(238) = {238};
Curve Loop(239) = {613, 618, 619, 620, -616, -617};
Plane Surface(239) = {239};
Curve Loop(240) = {616, 623, -621, -622};
Plane Surface(240) = {240};
Curve Loop(241) = {621, 626, -624, -625};
Plane Surface(241) = {241};
Curve Loop(242) = {624, 629, -627, -628};
Plane Surface(242) = {242};
Curve Loop(243) = {627, 632, -630, -631};
Plane Surface(243) = {243};
Curve Loop(244) = {630, 634, -589, -633};
Plane Surface(244) = {244};
Curve Loop(245) = {591, 594, 599, 602, 605, 608, 611, 614, 617, 622, 625, 628, 631, 633};
Plane Surface(245) = {245};
Curve Loop(246) = {634, 592, 595, 635, 620, 623, 626, 629, 632};
Plane Surface(246) = {246};
Curve Loop(247) = {-635, 596, -636, 619};
Plane Surface(247) = {247};
Curve Loop(248) = {636, 597, 600, 603, 606, 609, 612, 615, 618};
Plane Surface(248) = {248};
Curve Loop(249) = {637, 648, -638, -647, -603, -646, -573, -645, -543, -644, -495, -643, -447, -642, -417, -641, -387, -640, -339, -639};
Plane Surface(249) = {249};
Curve Loop(250) = {638, 651, -649, -650};
Plane Surface(250) = {250};
Curve Loop(251) = {649, 657, -652, -656, -558, -655, -588, -654, -636, -653};
Plane Surface(251) = {251};
Curve Loop(252) = {652, 665, -658, -664, -372, -663, -402, -662, -432, -661, -462, -660, -528, -659};
Plane Surface(252) = {252};
Curve Loop(253) = {658, 667, -637, -666};
Plane Surface(253) = {253};
Curve Loop(254) = {666, 639, -336, -333, -330, -327, -324, 664};
Plane Surface(254) = {254};
Curve Loop(255) = {-342, 640, -384, -381, 663, -354, -351, -348, -345};
Plane Surface(255) = {255};
Curve Loop(256) = {-390, 641, -414, -411, 662, -393};
Plane Surface(256) = {256};
Curve Loop(257) = {-420, 642, -444, -441, 661, -423};
Plane Surface(257) = {257};
Curve Loop(258) = {-450, 643, -492, -489, -486, -483, -480, 660, -453};
Plane Surface(258) = {258};
Curve Loop(259) = {-498, 644, -540, -537, 656, 659, -510, -507, -504, -501};
Plane Surface(259) = {259};
Curve Loop(260) = {-546, 645, -570, -567, 655, -549};
Plane Surface(260) = {260};
Curve Loop(261) = {-576, 646, -600, -597, 654, -579};
Plane Surface(261) = {261};
Curve Loop(262) = {-606, 647, 650, 653, -618, -615, -612, -609, -289, -294, -293, -291};
Plane Surface(262) = {262};
Curve Loop(263) = {648, 651, 657, 665, 667};
Plane Surface(263) = {263};
Curve Loop(264) = {668, 679, -669, -678, -370, -677, -400, -676, -430, -675, -460, -674, -526, -673, -556, -672, -586, -671, -634, -670};
Plane Surface(264) = {264};
Curve Loop(265) = {669, 682, -680, -681};
Plane Surface(265) = {265};
Curve Loop(266) = {680, 690, -683, -689, -527, -688, -461, -687, -431, -686, -401, -685, -371, -684};
Plane Surface(266) = {266};
Curve Loop(267) = {683, 696, -691, -695, -635, -694, -587, -693, -557, -692};
Plane Surface(267) = {267};
Curve Loop(268) = {691, 698, -668, -697};
Plane Surface(268) = {268};
Curve Loop(269) = {697, 670, -632, -629, -626, -623, -620, 695, -301, -306, -305, -303};
Plane Surface(269) = {269};
Curve Loop(270) = {-592, 671, -584, -581, 694, -595};
Plane Surface(270) = {270};
Curve Loop(271) = {-562, 672, -554, -551, 693, -565};
Plane Surface(271) = {271};
Curve Loop(272) = {-532, 673, -524, -521, -518, -515, -512, 689, 692, -535};
Plane Surface(272) = {272};
Curve Loop(273) = {-466, 674, -458, -455, 688, -478, -475, -472, -469};
Plane Surface(273) = {273};
Curve Loop(274) = {-436, 675, -428, -425, 687, -439};
Plane Surface(274) = {274};
Curve Loop(275) = {-406, 676, -398, -395, 686, -409};
Plane Surface(275) = {275};
Curve Loop(276) = {-376, 677, -368, -365, -362, -359, -356, 685, -379};
Plane Surface(276) = {276};
Curve Loop(277) = {-310, 678, 681, 684, -322, -319, -316, -313};
Plane Surface(277) = {277};
Curve Loop(278) = {679, 682, 690, 696, 698};
Plane Surface(278) = {278};
Curve Loop(279) = {699, 701, -700, -648};
Plane Surface(279) = {279};
Curve Loop(280) = {700, 703, -702, -651};
Plane Surface(280) = {280};
Curve Loop(281) = {702, 705, -704, -657};
Plane Surface(281) = {281};
Curve Loop(282) = {704, 707, -706, -665};
Plane Surface(282) = {282};
Curve Loop(283) = {706, 708, -699, -667};
Plane Surface(283) = {283};
Curve Loop(284) = {701, 703, 705, 707, 708};
Plane Surface(284) = {284};
Curve Loop(285) = {709, 711, -710, -679};
Plane Surface(285) = {285};
Curve Loop(286) = {710, 713, -712, -682};
Plane Surface(286) = {286};
Curve Loop(287) = {712, 715, -714, -690};
Plane Surface(287) = {287};
Curve Loop(288) = {714, 717, -716, -696};
Plane Surface(288) = {288};
Curve Loop(289) = {716, 718, -709, -698};
Plane Surface(289) = {289};
Curve Loop(290) = {711, 713, 715, 717, 718};
Plane Surface(290) = {290};
Curve Loop(291) = {-719, 649, 702, 720, -716, -691};
Plane Surface(291) = {291};
Curve Loop(292) = {-653, 719, -695, -619};
Plane Surface(292) = {292};
Curve Loop(293) = {-654, -596, -694, -580};
Plane Surface(293) = {293};
Curve Loop(294) = {-655, -566, -693, -550};
Plane Surface(294) = {294};
Curve Loop(295) = {-656, -536, -692, -689, -511, -659};
Plane Surface(295) = {295};
Curve Loop(296) = {-660, -479, -688, -454};
Plane Surface(296) = {296};
Curve Loop(297) = {-661, -440, -687, -424};
Plane Surface(297) = {297};
Curve Loop(298) = {-662, -410, -686, -394};
Plane Surface(298) = {298};
Curve Loop(299) = {-663, -380, -685, -355};
Plane Surface(299) = {299};
Curve Loop(300) = {-664, -323, -684, 721};
Plane Surface(300) = {300};
Curve Loop(301) = {-705, 720, -717, -715, 722, -707};
Plane Surface(301) = {301};
Curve Loop(302) = {-721, 680, 712, 722, -706, -658};
Plane Surface(302) = {302};
Curve Loop(303) = {723, 725, -724, -718, -720, -703};
Plane Surface(303) = {303};
Curve Loop(304) = {724, 727, -726, -711};
Plane Surface(304) = {304};
Curve Loop(305) = {726, 729, -728, -708, -722, -713};
Plane Surface(305) = {305};
Curve Loop(306) = {728, 730, -723, -701};
Plane Surface(306) = {306};
Curve Loop(307) = {725, 727, 729, 730};
Plane Surface(307) = {307};
Surface Loop(1) = {123, 124, 125, 126, 127, 128, 129, 130, 131, 132, 133, 134, 135, 136, 137, 138, 139, 140, 141, 142, 143, 144, 145, 146};
Volume(1) = {1};
Surface Loop(2) = {147, 148, 149, 150, 151, 152, 153, 154, 155, 156, 157, 158};
Volume(2) = {2};
Surface Loop(3) = {159, 160, 161, 162, 163, 164, 165, 166, 167, 168, 169, 170};
Volume(3) = {3};
Surface Loop(4) = {171, 172, 173, 174, 175, 176, 177, 178, 179, 180, 181, 182};
Volume(4) = {4};
Surface Loop(5) = {183, 184, 185, 186, 187, 188, 189, 190, 191, 192, 193, 194, 195, 196, 197, 198, 199, 200, 201, 202, 203, 204, 205, 206};
Volume(5) = {5};
Surface Loop(6) = {207, 208, 209, 210, 211, 212, 213, 214, 215, 216, 217, 218};
Volume(6) = {6};
Surface Loop(7) = {219, 220, 221, 222, 223, 224, 225, 226, 227, 228, 229, 230};
Volume(7) = {7};
Surface Loop(8) = {231, 232, 233, 234, 235, 236, 237, 238, 239, 240, 241, 242, 243, 244, 245, 246, 247, 248};
Volume(8) = {8};
Surface Loop(9) = {112, 113, 114, 115, 111, 116};
Volume(9) = {9};
Surface Loop(10) = {118, 119, 120, 121, 117, 122};
Volume(10) = {10};
Surface Loop(11) = {249, 250, 251, 252, 253, 254, 146, 255, 158, 256, 170, 257, 182, 258, 206, 259, 218, 260, 230, 261, 248, 262, 116, 263};
Volume(11) = {11};
Surface Loop(12) = {264, 265, 266, 267, 268, 269, 246, 270, 228, 271, 216, 272, 204, 273, 180, 274, 168, 275, 156, 276, 144, 277, 122, 278};
Volume(12) = {12};
Surface Loop(13) = {279, 280, 281, 282, 283, 263, 284};
Volume(13) = {13};
Surface Loop(14) = {285, 286, 287, 288, 289, 278, 290};
Volume(14) = {14};
Surface Loop(15) = {291, 292, 247, 293, 229, 294, 217, 295, 205, 296, 181, 297, 169, 298, 157, 299, 145, 300, 267, 288, 301, 281, 251, 252, 302, 266, 287, 282};
Volume(15) = {15};
Surface Loop(16) = {303, 304, 305, 306, 284, 301, 290, 307};
Volume(16) = {16};
Physical Surface("Sense2") = {123, 123, 124, 124, 125, 125, 126, 126, 127, 127, 128, 128, 129, 129, 130, 130, 131, 131, 132, 132, 133, 133, 134, 134, 135, 135, 136, 136, 137, 137, 138, 138, 139, 139, 140, 140, 141, 141, 142, 142, 143, 143, 144, 144, 145, 145, 146, 146};
Physical Surface("Guard2") = {147, 147, 148, 148, 149, 149, 150, 150, 151, 151, 152, 152, 153, 153, 154, 154, 155, 155, 156, 156, 157, 157, 158, 158};
Physical Surface("Twiddle") = {159, 159, 160, 160, 161, 161, 162, 162, 163, 163, 164, 164, 165, 165, 166, 166, 167, 167, 168, 168, 169, 169, 170, 170};
Physical Surface("Guard1") = {171, 171, 172, 172, 173, 173, 174, 174, 175, 175, 176, 176, 177, 177, 178, 178, 179, 179, 180, 180, 181, 181, 182, 182};
Physical Surface("Sense1") = {183, 183, 184, 184, 185, 185, 186, 186, 187, 187, 188, 188, 189, 189, 190, 190, 191, 191, 192, 192, 193, 193, 194, 194, 195, 195, 196, 196, 197, 197, 198, 198, 199, 199, 200, 200, 201, 201, 202, 202, 203, 203, 204, 204, 205, 205, 206, 206};
Physical Surface("Dr3") = {207, 207, 208, 208, 209, 209, 210, 210, 211, 211, 212, 212, 213, 213, 214, 214, 215, 215, 216, 216, 217, 217, 218, 218};
Physical Surface("Dr2") = {219, 219, 220, 220, 221, 221, 222, 222, 223, 223, 224, 224, 225, 225, 226, 226, 227, 227, 228, 228, 229, 229, 230, 230};
Physical Surface("Dr1") = {231, 231, 232, 232, 233, 233, 234, 234, 235, 235, 236, 236, 237, 237, 238, 238, 239, 239, 240, 240, 241, 241, 242, 242, 243, 243, 244, 244, 245, 245, 246, 246, 247, 247, 248, 248};
Physical Surface("Via1") = {111, 111, 112, 112, 113, 113, 114, 114, 115, 115, 116, 116};
Physical Surface("Via2") = {117, 117, 118, 118, 119, 119, 120, 120, 121, 121, 122, 122};
Physical Surface("TopMetal") = {263, 263, 278, 278, 279, 279, 280, 280, 281, 281, 282, 282, 283, 283, 284, 284, 285, 285, 286, 286, 287, 287, 288, 288, 289, 289, 290, 290};
Physical Volume("HELIUM") = {15};
Physical Volume("VACUUM") = {16};
Physical Volume("METAL") = {1, 2, 3, 4, 5, 6, 7, 8, 9, 10, 13, 14};
Physical Volume("DIELECTRIC") = {11, 12};
Field[1] = Box;
Field[1].Thickness = 4;
Field[1].VIn = 1;
Field[1].VOut = 5;
Field[1].XMax = -7;
Field[1].XMin = -36;
Field[1].YMax = 32;
Field[1].YMin = 24;
Field[1].ZMax = 6;
Field[1].ZMin = -0.7;
Field[2] = Box;
Field[2].Thickness = 2;
Field[2].VIn = 0.5;
Field[2].VOut = 5;
Field[2].XMax = -9;
Field[2].XMin = -36;
Field[2].YMax = 30;
Field[2].YMin = 25;
Field[2].ZMax = 4.5;
Field[2].ZMin = -0.1;
Field[3] = Min;
Field[3].FieldsList = {1, 2};
Background Field = 3;
